<svg xmlns="http://www.w3.org/2000/svg" width="121" height="121" viewBox="0 0 121 121"><defs><style>.cls-1{fill:#020320;}.cls-2{fill:#ff7a14;}.cls-3{fill:#ffcc27;}.cls-4{fill:#ff4f0b;}.cls-5{fill:#ffa61e;}.cls-6{fill:#00a7fc;}.cls-7{fill:#00ccfd;}.cls-8{fill:#00e7fd;}.cls-9{fill:#0079fb;}</style></defs><g><g><circle class="cls-1" cx="60.5" cy="60.5" r="60.5"/><g id="g5210"><path id="path5212" class="cls-2" d="M78.75,69.7V82.37H90.92V69.7Z"/><path id="path5214" class="cls-3" d="M90.35,58l-5.56.08,0,6H97L90.92,58h0l-.55,0Z"/><polygon id="polygon5216" class="cls-4" points="90.92 70.21 78.75 82.37 90.92 82.37 90.92 70.21"/><polygon id="polygon5218" class="cls-2" points="90.92 70.21 78.75 70.21 78.75 82.37 90.92 70.21"/><path id="path5220" class="cls-5" d="M78.75,45.87V58h0V70.26H90.91V58h0L78.75,45.87h0Z"/><polygon id="polygon5222" class="cls-3" points="90.92 58.04 78.75 58.04 78.75 70.21 90.92 58.04"/><polygon id="polygon5224" class="cls-5" points="90.92 58.04 78.75 70.21 90.92 70.21 90.92 58.04"/><path id="path5226" class="cls-6" d="M54.42,70.21V82.37H66.58V70.21Z"/><path id="path5228" class="cls-2" d="M30.14,68.09l0,2.12h0V82.37l.15-.15H42.12l.11-12,0,0h0l-.11-2.11h-12Z"/><path id="path5230" class="cls-5" d="M42.25,45.87Zm0,0L30.09,58h.07l0,0,0,0L24,64.12h6.21V70l.21-.15-.33.33H42.25V58l0,0v0h0V45.87h0Z"/><polygon id="polygon5232" class="cls-3" points="30.08 58.04 30.08 70.21 42.25 58.04 30.08 58.04"/><path id="path5234" class="cls-7" d="M66.58,33.71,62,29.07,45.81,45.85l8.61,0V58l12.13,0,0-12.14H78.75L66.58,33.71Z"/><path id="path5236" class="cls-7" d="M66.49,46,54.42,58H66.58V46.31l-.1-.34Z"/><polygon id="polygon5238" class="cls-6" points="54.42 58.04 66.58 58.04 66.58 45.88 54.42 58.04"/><polygon id="polygon5240" class="cls-6" points="54.42 70.21 54.42 82.37 66.58 70.21 54.42 70.21"/><path id="path5242" class="cls-8" d="M60.5,27.63l-6.08,6.08L42.25,45.87H54.42L66.58,33.71Z"/><polygon id="polygon5244" class="cls-4" points="30.08 82.37 42.25 82.37 42.25 70.21 30.08 82.37"/><polygon id="polygon5246" class="cls-9" points="54.42 82.37 66.58 82.37 66.58 70.21 54.42 82.37"/></g></g></g></svg>