<svg xmlns="http://www.w3.org/2000/svg" width="95" height="25.97" viewBox="0 0 95 25.97"><defs><style>.cls-1{opacity:0.4;}.cls-2{fill:#42526e;}</style></defs><title>client1</title><g id="Слой_2" data-name="Слой 2"><g id="Capa_1" data-name="Capa 1"><g class="cls-1"><polygon class="cls-2" points="36.38 0 18.19 25.97 22.74 25.97 40.71 0 36.38 0 36.38 0"/><polygon class="cls-2" points="46.3 16.06 46.3 1.87 43.25 1.87 27.15 24.42 32.11 24.42 41.88 10.7 41.88 24.42 45.51 24.42 55.21 10.61 55.21 24.42 59.67 24.42 59.67 1.87 56.45 1.87 46.3 16.06 46.3 16.06"/><path class="cls-2" d="M65.41,14.28V10.09l3,4.19Zm23-12.41H83.32L77.81,9.61l-5.35-7.7H67.4L75.25,13.2,73.9,15.09,64.67,1.87H61.12V24.42H65.4V18.25H70.7l.47.66-3.93,5.51h5.05l1.41-2,1.45,2,5.24,0-4-5.74,1.35-1.89,5.3,7.63h5.05L80.31,13.2,88.38,1.87Z"/><path class="cls-2" d="M92,4.59h-.55V3.46h.7c.36,0,.75.07.75.54s-.43.58-.9.58ZM93.45,4c0-.68-.38-1-1.2-1H90.94V6.56h.53V5H92L93,6.56h.57L92.55,5a.9.9,0,0,0,.9-1Z"/><path class="cls-2" d="M92.08,7.38a2.46,2.46,0,0,1-2.41-2.6,2.41,2.41,0,1,1,4.8,0,2.46,2.46,0,0,1-2.39,2.6Zm0-5.62a3,3,0,0,0-2.94,3,2.93,2.93,0,1,0,5.86,0,3,3,0,0,0-2.92-3Z"/><path class="cls-2" d="M7.41,12.44l-3.15,0V5.9H7.41a3.27,3.27,0,1,1,0,6.53Zm13.86,7.81h-1.1v-5.5h4.91l1.69-2.27V10.86h-6.6V5.94h6.31v-4H15.84v22L9.75,16.65A7.64,7.64,0,0,0,15,9.39,7.47,7.47,0,0,0,7.55,1.92H0V24.42H4.25V17.09l6.16,7.33h8.07l2.79-4.18Z"/><polygon class="cls-2" points="26.68 24.41 26.68 21.85 24.7 24.41 26.68 24.41 26.68 24.41"/></g></g></g></svg>