<svg xmlns="http://www.w3.org/2000/svg" width="90.95" height="26.77" viewBox="0 0 90.95 26.77"><defs><style>.cls-1{opacity:0.4;}.cls-2{fill:#42526e;fill-rule:evenodd;}</style></defs><title>client2</title><g id="Слой_2" data-name="Слой 2"><g id="Capa_1" data-name="Capa 1"><g class="cls-1"><path class="cls-2" d="M85.74,7.67V0h-4V7.67H76.57V0h-4V7.67H65.17a2.18,2.18,0,0,1-2.08-2.38c0-1.33.71-2.5,2.11-2.5h2.26c.93,0,.93,1.08,0,1.08H63.9a2.2,2.2,0,0,0,2.23,2.63h2.2C71.67,6.49,71.8,4,71.8,3a3.51,3.51,0,0,0-3.35-3H64.86a5.49,5.49,0,0,0-5.33,5.41,5.48,5.48,0,0,0,5.33,5.72h3.78a4.64,4.64,0,0,0,4-2.59,2.85,2.85,0,0,0,2.84,2.59h3.46A2.85,2.85,0,0,0,81.78,8.3a2.85,2.85,0,0,0,2.85,2.83h3.46a2.85,2.85,0,0,0,2.86-2.85V7.67Z"/><polygon class="cls-2" points="38.59 13.38 38.59 24.51 42.55 24.51 42.55 21.95 43.67 20.55 47.02 26.77 51.29 26.77 47.11 18.67 45.5 18.67 49.93 13.38 45.74 13.38 42.55 16.91 42.55 13.38 38.59 13.38 38.59 13.38"/><path class="cls-2" d="M51.17,9.59a2.71,2.71,0,0,0,2.7,1.55h1.87A2.85,2.85,0,0,0,58.6,8.28V0H57.19a2.74,2.74,0,0,0-2.56,3V6.83a.74.74,0,1,1-1.47,0V0h-4V6.93a.75.75,0,1,1-1.5,0V0h-4V8.28a2.85,2.85,0,0,0,2.86,2.85h1.84a2.79,2.79,0,0,0,2.73-1.55Z"/><path class="cls-2" d="M88.52,13.39H80.2a1.69,1.69,0,0,0-1.7,1.69v7.75a1.69,1.69,0,0,0,1.7,1.69h8.32a1.69,1.69,0,0,0,1.7-1.69V15.08a1.69,1.69,0,0,0-1.7-1.69Zm-7.76,4.22a2.79,2.79,0,0,1,2.6-2.78h2v1.55H83.29V18.8h2.09v1.65H83.46a2.79,2.79,0,0,1-2.7-2.84Zm5.31,4.84H83.74V20.9h2.09V18.38H83.74V16.82h2.52c1.05,0,1.67.56,1.64,1.33a1.63,1.63,0,0,1-.77,1.45,1.49,1.49,0,0,1,.93,1.48c0,.93-1.05,1.36-2,1.36Z"/><path class="cls-2" d="M38.28,0H32V7.67H26.79V0h-4V8.28a2.85,2.85,0,0,0,2.86,2.85h3.46A2.85,2.85,0,0,0,32,8.37v2.76h6.35c1.7,0,4.59-2.2,4.59-5.69A5.62,5.62,0,0,0,38.28,0Zm-1,7.67H36V3.15h1.3c1.33,0,2.11.8,2.11,2.38a1.89,1.89,0,0,1-2.11,2.13Z"/><path class="cls-2" d="M72,19.48a2.84,2.84,0,0,0,2.66-3.09,3.17,3.17,0,0,0-3.07-3H62.87v7.67H54.72a2.18,2.18,0,0,1-2.08-2.38c0-1.33.71-2.5,2.11-2.5h2.35a.54.54,0,1,1,.06,1.08H53.45a2.2,2.2,0,0,0,2.23,2.63h2.54c3.35,0,3.66-2.47,3.66-3.46a3.44,3.44,0,0,0-3.28-3H54.41a5.57,5.57,0,0,0,0,11.13H58.9a4.63,4.63,0,0,0,4-2.56v2.56h4V18.58l3.69,5.94h4.4l-2.91-5Zm-1.58-2.24H66.87V16.16h3.5a.54.54,0,1,1,.06,1.08Z"/><path class="cls-2" d="M16.36,0a5.61,5.61,0,0,0-5.21,7.71H5.64a2.1,2.1,0,0,1-2-2.1c0-1.36,1-2.6,2-2.6h4.4v-3H5.3A5.56,5.56,0,0,0,0,5.81C0,10,4.15,11.19,5.3,11.19H7.87a5,5,0,0,0,3.64-2.72A5.62,5.62,0,1,0,16.36,0Zm0,7.75a2.14,2.14,0,1,1,2.15-2.14,2.14,2.14,0,0,1-2.15,2.14Z"/><path class="cls-2" d="M33.38,13.39v5.75L29,13.39H25.44V24L20.92,13.39H19.16a2.85,2.85,0,0,0-2.63,2.2l-3.81,8.94h3.53l1.16-2.61A3.43,3.43,0,0,0,21,24.52H29.6V19.76l2.73,3.74a2.76,2.76,0,0,0,2.63,1h2.39V13.39Zm-15.76,8,1.32-3,1.12,3Z"/><path class="cls-2" d="M11.32,18.83c.62-.4.9-1.05.87-2.32a3.13,3.13,0,0,0-3.35-3.12H1.44V24.52H9.59a3.08,3.08,0,0,0,1.73-5.69ZM8.1,21.16H5.53V19.89H8.07a.63.63,0,1,1,0,1.27Zm0-3.77H5.53V16.25H8.07a.58.58,0,1,1,0,1.14Z"/></g></g></g></svg>