<svg xmlns="http://www.w3.org/2000/svg" width="107.54" height="25.89" viewBox="0 0 107.54 25.89"><defs><style>.cls-1{opacity:0.4;}.cls-2{fill:#42526e;}</style></defs><title>client4</title><g id="Слой_2" data-name="Слой 2"><g id="Capa_1" data-name="Capa 1"><g class="cls-1"><path class="cls-2" d="M5.92,20.62a9.31,9.31,0,0,1-4-1l-1.06,1H.32L0,14.56l.57-.05c1.75,4.11,4,5.18,5.49,5.18,2,0,3.23-1.08,3.23-3.09,0-1.49-.56-2.29-3.18-3.41-.88-.38-1.72-.61-2.57-1A4.84,4.84,0,0,1,.46,7.61,5.34,5.34,0,0,1,5.81,2.43,5.79,5.79,0,0,1,9,3.2l.25.13,1.08-.93h.45l.46,5.36-.55.07C9.14,4.72,7.52,3.35,5.71,3.35A2.48,2.48,0,0,0,3.18,6.09c0,1.53,1,2.39,2.41,3,1,.41,2.15.86,3.17,1.35C11,11.52,12,13,12,14.95c0,3.8-3.34,5.67-6.07,5.67"/><path class="cls-2" d="M20.3,20.65c-3.88,0-6.16-2.78-6.16-6.56a6.42,6.42,0,0,1,6.55-6.63c3.87,0,6.13,2.63,6.13,6.54a6.36,6.36,0,0,1-6.52,6.65M20.5,8.23c-1.91,0-3.14,2-3.14,5.95s1.53,5.72,3.23,5.72c2.18,0,3-2.7,3-5.88s-1-5.78-3.15-5.78"/><path class="cls-2" d="M37,19.31a8.78,8.78,0,0,1-4.55,1.22c-1.55,0-2.7-.84-2.58-3.4V9.37h-2V9l2.5-2,2-2.62h.41V7.94h4.14V9.37H32.81v7.18a2.27,2.27,0,0,0,.62,1.93,2.69,2.69,0,0,0,1.75.5c.44,0,1.28,0,1.83,0Z"/><path class="cls-2" d="M47.9,12.65c.08-1.91-.64-3.1-2.37-3.1a5.87,5.87,0,0,0-2.88.68v9l1.53.58v.38H38v-.38l1.72-.57V2.78L37.85,1.55V1.28L42.56,0l.1.08V9.62l.11.06a7,7,0,0,1,4.52-2.2c2.38,0,3.55,1.66,3.55,3.87l0,7.91,1.72.58v.38H46.36v-.38l1.53-.58Z"/><path class="cls-2" d="M56.57,13.12c0,3.15.9,5.72,3.95,5.72A10.43,10.43,0,0,0,64.75,18l.16.33a8.33,8.33,0,0,1-5.52,2.35c-3.5-.11-5.94-2.57-5.94-6.38a6.57,6.57,0,0,1,6.33-6.8c3.67,0,5.28,2.61,5.28,5.65ZM62,12.2c-.08-2-.62-4-2.43-4s-2.8,1.68-3,4.2Z"/><path class="cls-2" d="M72.36,20.65a18.49,18.49,0,0,1-4.67-.71V2.78L65.78,1.56V1.28L70.52,0l.1.09V9.21l.11.06a5.49,5.49,0,0,1,4-1.8c2.48,0,4.92,2.23,4.92,6.28,0,3.73-2.79,6.9-7.25,6.9m.49-11.27a5.53,5.53,0,0,0-2.23.44v8.65a4.24,4.24,0,0,0,3.17,1.26c1.87-.17,2.72-2.18,2.75-5.14s-1-5.11-3.69-5.2"/><path class="cls-2" d="M91.88,9.16,86.7,22a10,10,0,0,1-2,3.1,3,3,0,0,1-2,.79,1.84,1.84,0,0,1-2.07-1.71,1.63,1.63,0,0,1,1.63-1.57,2.62,2.62,0,0,1,2.14,1.31A10.24,10.24,0,0,0,85.68,22c.18-.34.32-.68.43-.93l.25-.55L81.54,8.91l-1.67-.65V7.9h6.66v.36l-1.75.66,3,8h.13l2.67-7.8L89,8.27V7.9h4.7v.36Z"/><path class="cls-2" d="M102.52,20.64a10.1,10.1,0,0,1-3.93-.73v-3.6l.53-.06c.94,1.67,2.17,3.58,4.07,3.58a1.93,1.93,0,0,0,2-2.11c0-1.07-.74-1.69-3-2.57s-3.51-1.94-3.51-3.91,2.06-3.76,4.5-3.76a10.74,10.74,0,0,1,3.5.48l.09,3.24-.52.15c-1.18-2-2.09-3.05-3.46-3.05a1.71,1.71,0,0,0-1.85,1.85c0,.76.55,1.57,2.65,2.36,3,1.1,4,2.13,4,4,0,2.46-2.08,4.14-5,4.14"/><polygon class="cls-2" points="93.92 11.8 96.47 5.62 99.37 5.62 94.52 11.8 93.92 11.8"/></g></g></g></svg>