<svg xmlns="http://www.w3.org/2000/svg" width="108.91" height="22.93" viewBox="0 0 108.91 22.93"><defs><style>.cls-1{opacity:0.4;}.cls-2,.cls-3{fill:#42526e;}.cls-2{fill-rule:evenodd;}</style></defs><title>client3</title><g id="Слой_2" data-name="Слой 2"><g id="Capa_1" data-name="Capa 1"><g class="cls-1"><path class="cls-2" d="M15.79,0C14.18.74,9.55,4.29,7.06,6.16a66.28,66.28,0,0,1,14.06-2.7C20,2.64,16.68.43,15.79,0Z"/><path class="cls-2" d="M1.23,22.93A79.52,79.52,0,0,1,21,18.72c.2-.75,1.18-3.27,1.36-3.95A61.26,61.26,0,0,0,2.43,19.59l-1.2,3.34Z"/><path class="cls-2" d="M21.82,3.94s-9.05,9-10.47,10.33a53.89,53.89,0,0,1,12-2.37,19.89,19.89,0,0,1,.86-2.18L29,9.25s-3.64-2.92-7.15-5.3Z"/><path class="cls-2" d="M2.78,18.62C5.64,15.7,15.89,6.3,15.89,6.3A93.36,93.36,0,0,0,3,10.12L0,13.18c2.5-.53,3.31-.64,5.14-.9L2.78,18.62Z"/><path class="cls-2" d="M42.36,21.75H29.6V18.87L37.31,5.63A14.4,14.4,0,0,0,38.17,4s-.45,0-1.68,0H30.2L31.11.51H43.34v3l-7.77,13.6c-.44.73-.76,1.33-.76,1.33h8.61l-1.06,3.35Zm5.72-15a2.43,2.43,0,0,1-2.41-2.44,2.46,2.46,0,0,1,2.47-2.44,2.4,2.4,0,0,1,2.38,2.44A2.43,2.43,0,0,1,48.08,6.8Zm-2,15V8.55L50,7.67V21.78Zm7.81,0h4L57.92,0l-4,.91,0,20.83Zm7.83,0h4L65.75,0l-4,.91,0,20.83Zm37.81,0H95.94l-1.35-5.17c-.32-1.21-.68-2.65-.85-3.65-.12-.71-.15-.91-.24-1.5-.09.65-.12.85-.35,1.94-.29,1.29-.94,3.88-1.29,5.29l-.76,3.08H87.42l-4.19-15h4l1.2,5.62C88.83,14,89.3,17,89.3,17a48.4,48.4,0,0,1,1.09-5.23L91.8,6.7h3.7l1.2,5c.68,2.79,1.12,5.32,1.12,5.32.09-.65.41-3,.82-4.91L99.79,6.7h4.06l-4.29,15ZM77.28,10.11a2.15,2.15,0,0,0-3.73.73,10.75,10.75,0,0,0-.41,3.35,10.63,10.63,0,0,0,.5,3.79,2.18,2.18,0,0,0,2,1.24c1.7,0,2.44-1.53,2.44-5.09,0-2-.26-3.35-.79-4ZM80.48,20a6.15,6.15,0,0,1-5,2.09c-4.09,0-6.76-3.06-6.76-7.79s2.7-7.88,6.76-7.88a6.3,6.3,0,0,1,5.11,2.26,7.81,7.81,0,0,1,1.73,5.5A8.17,8.17,0,0,1,80.48,20Z"/><path class="cls-3" d="M106.77,3.75v.67H107c.18,0,.28,0,.34-.09a.34.34,0,0,0,.1-.25c0-.21-.12-.33-.43-.33Zm.68,1.84-.18-.33a2.29,2.29,0,0,0-.36-.52.19.19,0,0,0-.14-.07v.92h-.35V3.47h.65a.6.6,0,0,1,.69.61.54.54,0,0,1-.53.58,1.64,1.64,0,0,1,.33.42l.31.51ZM107,2.95a1.53,1.53,0,0,0-1.51,1.59,1.51,1.51,0,1,0,3,0A1.54,1.54,0,0,0,107,2.95Zm0,3.48a1.9,1.9,0,1,1,1.88-1.9A1.88,1.88,0,0,1,107,6.43Z"/></g></g></g></svg>