<svg xmlns="http://www.w3.org/2000/svg" xmlns:xlink="http://www.w3.org/1999/xlink" width="761.99" height="584.97" viewBox="0 0 761.99 584.97"><defs><style>.cls-1{opacity:0.15;}.cls-2{fill:url(#Degradado_sin_nombre_31);}</style><linearGradient id="Degradado_sin_nombre_31" x1="292.22" y1="158.58" x2="664.22" y2="712.58" gradientUnits="userSpaceOnUse"><stop offset="0" stop-color="#022c81" stop-opacity="0"/><stop offset="1" stop-color="#1245fb"/></linearGradient></defs><g><g><g class="cls-1"><path class="cls-2" d="M0,581.56c39.95,2.51,80.08,5,120.08,2.07,35-2.59,69.88-9.59,102.08-24,29.58-13.19,56.57-32.58,76.24-58.52,18.23-24,29.89-52.21,40.34-80.3,10.51-28.24,19.89-57.11,34-83.83,14.55-27.5,34.48-50.48,60.8-67.27C461.33,252,492.61,241,522.7,228c31.22-13.48,60.16-30.39,86.54-51.92,26.67-21.77,50.43-46.87,72.51-73.22,22.42-26.74,42.77-55,64.09-82.64C751.12,13.41,756.48,6.65,762,0H.26Z"/></g></g></g></svg>