<svg xmlns="http://www.w3.org/2000/svg" xmlns:xlink="http://www.w3.org/1999/xlink" width="1068.42" height="583.31" viewBox="0 0 1068.42 583.31"><defs><style>.cls-1,.cls-9{opacity:0.7;}.cls-1{fill:url(#Degradado_sin_nombre_465);}.cls-2{fill:url(#Degradado_sin_nombre_402);}.cls-3{fill:url(#Degradado_sin_nombre_402-2);}.cls-4{fill:url(#Degradado_sin_nombre_404);}.cls-5{fill:url(#Degradado_sin_nombre_403);}.cls-6{fill:url(#Degradado_sin_nombre_404-2);}.cls-7{fill:url(#Degradado_sin_nombre_412);}.cls-8{fill:url(#Degradado_sin_nombre_402-3);}.cls-9{fill:url(#Degradado_sin_nombre_468);}.cls-10{fill:#f5f8f9;}.cls-11{opacity:0.2;fill:url(#Degradado_sin_nombre_507);}.cls-12{fill:url(#Degradado_sin_nombre_80);}.cls-13{fill:url(#Degradado_sin_nombre_469);}.cls-14{fill:url(#Degradado_sin_nombre_469-2);}.cls-15{fill:url(#Degradado_sin_nombre_80-2);}.cls-16{fill:url(#Degradado_sin_nombre_469-3);}.cls-17{fill:url(#Degradado_sin_nombre_80-3);}.cls-18{fill:url(#Degradado_sin_nombre_505);}.cls-19{fill:url(#Degradado_sin_nombre_80-4);}.cls-20{fill:url(#Degradado_sin_nombre_469-4);}.cls-21{fill:url(#Degradado_sin_nombre_469-5);}.cls-22{fill:url(#Degradado_sin_nombre_80-5);}.cls-23{fill:url(#Degradado_sin_nombre_486);}.cls-24{fill:url(#Degradado_sin_nombre_469-6);}.cls-25{fill:url(#Degradado_sin_nombre_514);}.cls-26,.cls-27{opacity:0.8;}.cls-26{fill:url(#Degradado_sin_nombre_477);}.cls-27{fill:url(#Degradado_sin_nombre_477-2);}.cls-28{fill:url(#Degradado_sin_nombre_11);}.cls-29{fill:url(#Degradado_sin_nombre_469-7);}.cls-30{fill:url(#Degradado_sin_nombre_469-8);}.cls-31{fill:url(#Degradado_sin_nombre_80-6);}.cls-32{fill:url(#Degradado_sin_nombre_11-2);}.cls-33{fill:url(#Degradado_sin_nombre_505-2);}.cls-34{fill:url(#Degradado_sin_nombre_469-9);}.cls-35{fill:url(#Degradado_sin_nombre_11-3);}.cls-36{fill:url(#Degradado_sin_nombre_539);}.cls-37{fill:url(#Degradado_sin_nombre_80-7);}.cls-38{fill:url(#Degradado_sin_nombre_543);}.cls-39{fill:url(#Degradado_sin_nombre_469-10);}.cls-40{fill:url(#Degradado_sin_nombre_89);}.cls-41{fill:url(#Degradado_sin_nombre_469-11);}.cls-42{fill:url(#Degradado_sin_nombre_469-12);}.cls-43{fill:url(#Degradado_sin_nombre_472);}.cls-44{fill:url(#Degradado_sin_nombre_469-13);}.cls-45{fill:url(#Degradado_sin_nombre_505-3);}.cls-46{fill:url(#Degradado_sin_nombre_505-4);}.cls-47{fill:url(#Degradado_sin_nombre_89-2);}.cls-48{fill:url(#Degradado_sin_nombre_89-3);}.cls-49{fill:url(#Degradado_sin_nombre_469-14);}.cls-50{fill:url(#Degradado_sin_nombre_469-15);}.cls-51{fill:url(#Degradado_sin_nombre_555);}.cls-52{fill:url(#Degradado_sin_nombre_73);}</style><linearGradient id="Degradado_sin_nombre_465" x1="1581.63" y1="-338.22" x2="1805.56" y2="-97.22" gradientTransform="matrix(0.83, 0.56, -0.56, 0.83, -1482.89, -499.8)" gradientUnits="userSpaceOnUse"><stop offset="0" stop-color="#1a54c5" stop-opacity="0"/><stop offset="0.03" stop-color="#1a54c5" stop-opacity="0.11"/><stop offset="0.1" stop-color="#1a54c5" stop-opacity="0.32"/><stop offset="0.18" stop-color="#1a54c5" stop-opacity="0.5"/><stop offset="0.26" stop-color="#1a54c5" stop-opacity="0.66"/><stop offset="0.35" stop-color="#1a54c5" stop-opacity="0.78"/><stop offset="0.45" stop-color="#1a54c5" stop-opacity="0.88"/><stop offset="0.57" stop-color="#1a54c5" stop-opacity="0.95"/><stop offset="0.72" stop-color="#1a54c5" stop-opacity="0.99"/><stop offset="1" stop-color="#1a54c5"/></linearGradient><linearGradient id="Degradado_sin_nombre_402" x1="841.2" y1="73.64" x2="925.27" y2="287.27" gradientTransform="translate(-632.7 -107.36) rotate(13.69)" gradientUnits="userSpaceOnUse"><stop offset="0.04" stop-color="#ee5044"/><stop offset="1" stop-color="#ee5044" stop-opacity="0"/></linearGradient><linearGradient id="Degradado_sin_nombre_402-2" x1="841.43" y1="73.55" x2="941.24" y2="327.17" xlink:href="#Degradado_sin_nombre_402"/><linearGradient id="Degradado_sin_nombre_404" x1="951.84" y1="205.9" x2="814.29" y2="33.74" gradientTransform="translate(424.21 -639.74) rotate(90)" gradientUnits="userSpaceOnUse"><stop offset="0" stop-color="#fff"/><stop offset="0.03" stop-color="#e0e8f7"/><stop offset="0.07" stop-color="#b7c9ed"/><stop offset="0.12" stop-color="#91ade3"/><stop offset="0.18" stop-color="#7195db"/><stop offset="0.24" stop-color="#5580d4"/><stop offset="0.31" stop-color="#3f70ce"/><stop offset="0.38" stop-color="#2f63ca"/><stop offset="0.48" stop-color="#235ac7"/><stop offset="0.62" stop-color="#1c55c5"/><stop offset="1" stop-color="#1a54c5"/></linearGradient><linearGradient id="Degradado_sin_nombre_403" x1="749.88" y1="-11.78" x2="957.88" y2="243.37" gradientTransform="translate(-632.7 -107.36) rotate(13.69)" gradientUnits="userSpaceOnUse"><stop offset="0" stop-color="#1a54c5"/><stop offset="0.38" stop-color="#1c55c5"/><stop offset="0.52" stop-color="#235ac7"/><stop offset="0.62" stop-color="#2f63ca"/><stop offset="0.69" stop-color="#3f70ce"/><stop offset="0.76" stop-color="#5580d4"/><stop offset="0.82" stop-color="#7195db"/><stop offset="0.88" stop-color="#91ade3"/><stop offset="0.93" stop-color="#b7c9ed"/><stop offset="0.97" stop-color="#e0e8f7"/><stop offset="1" stop-color="#fff"/></linearGradient><linearGradient id="Degradado_sin_nombre_404-2" x1="917" y1="73.57" x2="1169.03" y2="377.96" gradientTransform="translate(355.75 -726.87) rotate(90)" xlink:href="#Degradado_sin_nombre_404"/><linearGradient id="Degradado_sin_nombre_412" x1="775.31" y1="-40.91" x2="962.68" y2="155.3" gradientTransform="translate(-632.7 -107.36) rotate(13.69)" gradientUnits="userSpaceOnUse"><stop offset="0" stop-color="#1a54c5"/><stop offset="0.17" stop-color="#1d56c6"/><stop offset="0.3" stop-color="#275ec8"/><stop offset="0.43" stop-color="#386bcd"/><stop offset="0.55" stop-color="#507dd3"/><stop offset="0.66" stop-color="#7094db"/><stop offset="0.77" stop-color="#96b0e4"/><stop offset="0.88" stop-color="#c3d2f0"/><stop offset="0.98" stop-color="#f6f8fd"/><stop offset="1" stop-color="#fff"/></linearGradient><linearGradient id="Degradado_sin_nombre_402-3" x1="858.97" y1="136.93" x2="931.86" y2="363.95" xlink:href="#Degradado_sin_nombre_402"/><linearGradient id="Degradado_sin_nombre_468" x1="740.82" y1="174.86" x2="915.75" y2="174.86" gradientTransform="translate(-632.7 -107.36) rotate(13.69)" gradientUnits="userSpaceOnUse"><stop offset="0" stop-color="#1a54c5" stop-opacity="0"/><stop offset="0.02" stop-color="#1a54c5" stop-opacity="0.09"/><stop offset="0.07" stop-color="#1a54c5" stop-opacity="0.3"/><stop offset="0.13" stop-color="#1a54c5" stop-opacity="0.49"/><stop offset="0.19" stop-color="#1a54c5" stop-opacity="0.65"/><stop offset="0.25" stop-color="#1a54c5" stop-opacity="0.77"/><stop offset="0.32" stop-color="#1a54c5" stop-opacity="0.87"/><stop offset="0.4" stop-color="#1a54c5" stop-opacity="0.94"/><stop offset="0.51" stop-color="#1a54c5" stop-opacity="0.99"/><stop offset="0.69" stop-color="#1a54c5"/><stop offset="1" stop-color="#1a54c5"/></linearGradient><linearGradient id="Degradado_sin_nombre_507" x1="457.9" y1="289.6" x2="1056.8" y2="291.75" gradientUnits="userSpaceOnUse"><stop offset="0" stop-color="#1577e2"/><stop offset="0.13" stop-color="#207fe4" stop-opacity="0.86"/><stop offset="0.56" stop-color="#4497ea" stop-opacity="0.4"/><stop offset="0.86" stop-color="#5aa6ee" stop-opacity="0.11"/><stop offset="1" stop-color="#63acef" stop-opacity="0"/></linearGradient><linearGradient id="Degradado_sin_nombre_80" x1="829.31" y1="254.4" x2="866.41" y2="254.4" gradientUnits="userSpaceOnUse"><stop offset="0" stop-color="#ff8532"/><stop offset="1" stop-color="#ffdc7b"/></linearGradient><linearGradient id="Degradado_sin_nombre_469" x1="862.34" y1="242.02" x2="875.6" y2="242.02" gradientUnits="userSpaceOnUse"><stop offset="0" stop-color="#0f56a3"/><stop offset="1" stop-color="#022c81"/></linearGradient><linearGradient id="Degradado_sin_nombre_469-2" x1="726.21" y1="165.5" x2="733.21" y2="165.5" xlink:href="#Degradado_sin_nombre_469"/><linearGradient id="Degradado_sin_nombre_80-2" x1="721.08" y1="215.58" x2="754.02" y2="215.58" xlink:href="#Degradado_sin_nombre_80"/><linearGradient id="Degradado_sin_nombre_469-3" x1="709.44" y1="283.04" x2="848.02" y2="283.04" xlink:href="#Degradado_sin_nombre_469"/><linearGradient id="Degradado_sin_nombre_80-3" x1="452.16" y1="126.72" x2="490.43" y2="126.72" gradientTransform="matrix(1, -0.09, 0.09, 1, 254.89, 66.08)" xlink:href="#Degradado_sin_nombre_80"/><radialGradient id="Degradado_sin_nombre_505" cx="752.54" cy="339.18" r="119.64" gradientUnits="userSpaceOnUse"><stop offset="0" stop-color="#5699e9"/><stop offset="0.3" stop-color="#3a79d8"/><stop offset="0.68" stop-color="#1a54c5"/></radialGradient><linearGradient id="Degradado_sin_nombre_80-4" x1="-377.07" y1="-149.9" x2="-339.98" y2="-149.9" gradientTransform="matrix(0.91, -0.41, 0.41, 0.91, 1226.18, 168.5)" xlink:href="#Degradado_sin_nombre_80"/><linearGradient id="Degradado_sin_nombre_469-4" x1="-344.05" y1="-162.28" x2="-330.79" y2="-162.28" gradientTransform="matrix(0.91, -0.41, 0.41, 0.91, 1226.18, 168.5)" xlink:href="#Degradado_sin_nombre_469"/><linearGradient id="Degradado_sin_nombre_469-5" x1="746.13" y1="321.35" x2="799.05" y2="188.51" xlink:href="#Degradado_sin_nombre_469"/><linearGradient id="Degradado_sin_nombre_80-5" x1="715.45" y1="223.74" x2="784.97" y2="227.49" xlink:href="#Degradado_sin_nombre_80"/><linearGradient id="Degradado_sin_nombre_486" x1="728.44" y1="201.89" x2="759.8" y2="206.47" xlink:href="#Degradado_sin_nombre_80"/><linearGradient id="Degradado_sin_nombre_469-6" x1="717.8" y1="204.08" x2="749.13" y2="204.08" xlink:href="#Degradado_sin_nombre_469"/><linearGradient id="Degradado_sin_nombre_514" x1="270.96" y1="251.2" x2="380.12" y2="288.47" gradientUnits="userSpaceOnUse"><stop offset="0" stop-color="#f5f8f9"/><stop offset="0.2" stop-color="#f5f8f9" stop-opacity="0.78"/><stop offset="0.59" stop-color="#f5f8f9" stop-opacity="0.36"/><stop offset="0.87" stop-color="#f5f8f9" stop-opacity="0.1"/><stop offset="1" stop-color="#f5f8f9" stop-opacity="0"/></linearGradient><linearGradient id="Degradado_sin_nombre_477" x1="399.05" y1="215.84" x2="309.78" y2="232.42" gradientUnits="userSpaceOnUse"><stop offset="0" stop-color="#1245fb"/><stop offset="1" stop-color="#f5f8f9" stop-opacity="0"/></linearGradient><linearGradient id="Degradado_sin_nombre_477-2" x1="328.97" y1="402.07" x2="299.97" y2="301.07" xlink:href="#Degradado_sin_nombre_477"/><linearGradient id="Degradado_sin_nombre_11" x1="-116.52" y1="-301.28" x2="-80.15" y2="-301.15" gradientTransform="translate(1055.15 597.04) rotate(-16.82)" gradientUnits="userSpaceOnUse"><stop offset="0" stop-color="#1577e2"/><stop offset="1" stop-color="#63acef"/></linearGradient><linearGradient id="Degradado_sin_nombre_469-7" x1="698.68" y1="472.99" x2="724.54" y2="473.08" gradientTransform="matrix(1, -0.09, 0.09, 1, 235.02, 79.23)" xlink:href="#Degradado_sin_nombre_469"/><linearGradient id="Degradado_sin_nombre_469-8" x1="1019.46" y1="476.07" x2="1035.05" y2="476.13" xlink:href="#Degradado_sin_nombre_469"/><linearGradient id="Degradado_sin_nombre_80-6" x1="893.27" y1="397.61" x2="921.76" y2="397.71" xlink:href="#Degradado_sin_nombre_80"/><linearGradient id="Degradado_sin_nombre_11-2" x1="904.53" y1="368.98" x2="922.99" y2="369.05" gradientTransform="matrix(1, 0, 0, 1, 0, 0)" xlink:href="#Degradado_sin_nombre_11"/><radialGradient id="Degradado_sin_nombre_505-2" cx="1019.65" cy="500" r="97.14" xlink:href="#Degradado_sin_nombre_505"/><linearGradient id="Degradado_sin_nombre_469-9" x1="882.51" y1="406.46" x2="963.37" y2="406.75" xlink:href="#Degradado_sin_nombre_469"/><linearGradient id="Degradado_sin_nombre_11-3" x1="935.48" y1="424.3" x2="964.79" y2="424.41" gradientTransform="matrix(1, 0, 0, 1, 0, 0)" xlink:href="#Degradado_sin_nombre_11"/><linearGradient id="Degradado_sin_nombre_539" x1="916.76" y1="371.45" x2="915.45" y2="376.16" gradientUnits="userSpaceOnUse"><stop offset="0.02" stop-color="#1577e2"/><stop offset="0.12" stop-color="#1577e2" stop-opacity="0.85"/><stop offset="0.29" stop-color="#1577e2" stop-opacity="0.59"/><stop offset="0.46" stop-color="#1577e2" stop-opacity="0.38"/><stop offset="0.62" stop-color="#1577e2" stop-opacity="0.22"/><stop offset="0.77" stop-color="#1577e2" stop-opacity="0.1"/><stop offset="0.9" stop-color="#1577e2" stop-opacity="0.03"/><stop offset="1" stop-color="#1577e2" stop-opacity="0"/></linearGradient><linearGradient id="Degradado_sin_nombre_80-7" x1="894.27" y1="364.93" x2="922.27" y2="359.76" xlink:href="#Degradado_sin_nombre_80"/><linearGradient id="Degradado_sin_nombre_543" x1="958.04" y1="476.97" x2="966.8" y2="461.08" gradientUnits="userSpaceOnUse"><stop offset="0" stop-color="#0f56a3" stop-opacity="0"/><stop offset="1" stop-color="#022c81"/></linearGradient><linearGradient id="Degradado_sin_nombre_469-10" x1="-1730.81" y1="-937.83" x2="-1733.14" y2="-910.7" gradientTransform="matrix(0.58, -0.81, 0.81, 0.58, 2396.24, -472.44)" xlink:href="#Degradado_sin_nombre_469"/><linearGradient id="Degradado_sin_nombre_89" x1="507.71" y1="264.56" x2="646.35" y2="264.56" gradientUnits="userSpaceOnUse"><stop offset="0" stop-color="#f89484"/><stop offset="1" stop-color="#ee4e42"/></linearGradient><linearGradient id="Degradado_sin_nombre_469-11" x1="531.49" y1="453.36" x2="529.53" y2="476.28" xlink:href="#Degradado_sin_nombre_469"/><linearGradient id="Degradado_sin_nombre_469-12" x1="506.89" y1="270.58" x2="534.44" y2="247.04" xlink:href="#Degradado_sin_nombre_469"/><radialGradient id="Degradado_sin_nombre_472" cx="612.24" cy="395.02" r="198.66" gradientUnits="userSpaceOnUse"><stop offset="0" stop-color="#5699e9"/><stop offset="0.41" stop-color="#316fd3"/><stop offset="0.68" stop-color="#1a54c5"/></radialGradient><linearGradient id="Degradado_sin_nombre_469-13" x1="496.2" y1="216.28" x2="488.64" y2="304.51" xlink:href="#Degradado_sin_nombre_469"/><radialGradient id="Degradado_sin_nombre_505-3" cx="516.62" cy="288.03" r="131.2" xlink:href="#Degradado_sin_nombre_505"/><radialGradient id="Degradado_sin_nombre_505-4" cx="543.51" cy="441.52" r="106.48" xlink:href="#Degradado_sin_nombre_505"/><linearGradient id="Degradado_sin_nombre_89-2" x1="475.08" y1="263.04" x2="570.17" y2="330.55" xlink:href="#Degradado_sin_nombre_89"/><linearGradient id="Degradado_sin_nombre_89-3" x1="505.04" y1="223.36" x2="563.68" y2="223.36" xlink:href="#Degradado_sin_nombre_89"/><linearGradient id="Degradado_sin_nombre_469-14" x1="538.47" y1="182.97" x2="560.31" y2="182.97" xlink:href="#Degradado_sin_nombre_469"/><linearGradient id="Degradado_sin_nombre_469-15" x1="517.62" y1="200.55" x2="565.66" y2="200.55" xlink:href="#Degradado_sin_nombre_469"/><linearGradient id="Degradado_sin_nombre_555" x1="521.33" y1="227.73" x2="529.27" y2="226.92" gradientUnits="userSpaceOnUse"><stop offset="0" stop-color="#ee4e42" stop-opacity="0"/><stop offset="1" stop-color="#ee4e42"/></linearGradient><linearGradient id="Degradado_sin_nombre_73" x1="532.29" y1="390.67" x2="532.29" y2="471.03" gradientUnits="userSpaceOnUse"><stop offset="0" stop-color="#1a54c5" stop-opacity="0"/><stop offset="0.13" stop-color="#1a54c5" stop-opacity="0.02"/><stop offset="0.27" stop-color="#1a54c5" stop-opacity="0.09"/><stop offset="0.42" stop-color="#1a54c5" stop-opacity="0.2"/><stop offset="0.57" stop-color="#1a54c5" stop-opacity="0.36"/><stop offset="0.73" stop-color="#1a54c5" stop-opacity="0.56"/><stop offset="0.88" stop-color="#1a54c5" stop-opacity="0.8"/><stop offset="1" stop-color="#1a54c5"/></linearGradient></defs><title>magnetic-people</title><g id="Слой_2" data-name="Слой 2"><g id="Слой_1-2" data-name="Слой 1"><path class="cls-1" d="M54.68,233.33,53.5,227.2,29.9,105.35A15.09,15.09,0,1,0,.28,111.09L24.75,237.44l.31,1.62a15.09,15.09,0,0,0,29.62-5.74Z"/><path class="cls-2" d="M157.11,255.27a24.24,24.24,0,0,0,13.49,38.34l38.33,9.34,4.64-19-38.33-9.34A24.29,24.29,0,0,1,157.11,255.27Z"/><path class="cls-3" d="M196.47,187.43a65.43,65.43,0,0,0-80.65,57.77,65.52,65.52,0,0,1,76-38.73l38.33,9.34,4.64-19Z"/><rect class="cls-4" x="224.78" y="275.09" width="19.6" height="48.02" transform="translate(-111.55 456.22) rotate(-76.31)"/><polygon class="cls-5" points="208.93 302.94 203.82 323.89 199.19 342.94 245.85 354.31 250.49 335.26 255.59 314.31 208.93 302.94"/><rect class="cls-6" x="246.01" y="187.96" width="19.6" height="48.02" transform="translate(-10.7 410.34) rotate(-76.31)"/><polygon class="cls-7" points="230.16 215.81 225.17 236.29 220.41 255.81 267.07 267.18 271.83 247.66 276.82 227.18 230.16 215.81"/><path class="cls-8" d="M191.83,206.48a65.42,65.42,0,0,0-31,127.12l38.33,9.34,4.64-19,5.1-20.95-38.33-9.34a24.26,24.26,0,0,1,11.48-47.14l38.33,9.34,4.64-19,4.41-18.09.7-2.86Z"/><path class="cls-9" d="M115.82,245.21c.61-1.48,1.28-2.93,2-4.34a15,15,0,0,0-4.75-2.09L49.41,223.27l3.25,5.34a15.09,15.09,0,0,1-16.46,22.5l69.72,17a15,15,0,0,0,5,.34,65.31,65.31,0,0,1,4.87-23.23Z"/><circle class="cls-10" cx="40.51" cy="236.63" r="3.55" transform="translate(-198.98 219.97) rotate(-76.31)"/><path class="cls-11" d="M281,213.66c38.92-34.77,78.43-44.17,126.9-32.68,63.74,15.11,107-2.17,151.75-51.9,38.83-43.2,94.53-63.23,150.4-45.76,61,19.08,118.2,41.51,173.81-9.23,38.35-35,54.41-58.65,108.3-68.14,18.85-3.32,54-12.33,63.68,1.61,7.05,10.17.91,49.39,1.15,62.55l2.36,128.12,5,272.3c.47,25.65,7.68,64.57,1.65,89.7-5.76,24.06,6.36,9.66-13.51,19.07-31.49,14.9-106.37-15.49-134-27.24-55.92-23.79-103.05-93.71-164.33-97-95.77-5.21-143.45,114.06-244.94,106.13-66.87-5.23-81.3-35.58-110.34-90.35-23.77-44.82-98.49-43.27-119.4-84.3-26-51-35.85-13.41-26.28-55.39C262.48,290.46,271.74,254.28,281,213.66Z"/><path class="cls-12" d="M852.23,249.36l-22.92,7.39L840,267.47l26.37-7c.11-10.88-2.53-16.7-4.06-19.16A18.54,18.54,0,0,1,852.23,249.36Z"/><path class="cls-13" d="M873.5,223.54a59.71,59.71,0,0,0-9.94,15.5,19.15,19.15,0,0,1-1.22,2.29c1.54,2.46,4.17,8.28,4.06,19.16l9.19-2.43Z"/><polygon class="cls-14" points="733.21 166 728.21 159 726.21 172 733.21 166"/><polygon class="cls-15" points="739.71 235.25 739.64 228.06 748.53 222.84 747.75 215.25 754.02 212.64 741.47 195.9 722.64 197.47 721.08 227.28 739.71 235.25"/><path class="cls-16" d="M709.44,303s24.58,29.81,50.73,14.64,46-38.18,46-38.18L848,264.81l-5.49-20.66-60.88,19.26S715.45,298,709.44,303Z"/><path class="cls-17" d="M728.64,166.16l8.06-6.76,4.22-1.65c1.39-.49,3.48-.64,4.43-1.78l1.47-1.75a6,6,0,0,0,1.16-5.56l-.22-.75,5.13-3.35a2.67,2.67,0,0,0,.72-3.77l-4.28-6.05a2.67,2.67,0,0,0-3.84-.54l-13.91,11.75-14.2,15.32S721.58,169.41,728.64,166.16Z"/><path class="cls-18" d="M709.44,303s-4.71-3.14-6.8-12-8.63-45.24-8.89-56c-.18-7.31-2.79-24.1-4.43-34a16.52,16.52,0,0,1,4-13.73l26.83-29.88s4.71,10.46,12.55,8.89l-24.84,29L714.29,216a17.51,17.51,0,0,0,9.94,11c7.32,3.08,17.64,7.93,19.47,11.4,2.88,5.49,5,18.56,5,18.56s-14.38,34.25-23.79,43.14S709.44,303,709.44,303Z"/><path class="cls-19" d="M839.63,171.91,821.73,188l14.17,5.4,21.21-17.15c-4.35-10-9.14-14.2-11.54-15.82A18.54,18.54,0,0,1,839.63,171.91Z"/><path class="cls-20" d="M848.48,139.65a59.71,59.71,0,0,0-2.74,18.21,19.15,19.15,0,0,1-.18,2.59c2.41,1.62,7.19,5.85,11.54,15.82l7.39-6Z"/><path class="cls-21" d="M843.31,187.93,803.8,219.37a37.49,37.49,0,0,0-12.32,17.74c-5.56,17.11-18,50.25-33.15,63-29.16,24.58-48.94,2.92-48.94,2.92s19.66-10.77,27-30.64c3.45-9.38,7.2-20,10.19-28.56a60.12,60.12,0,0,1,19.83-27.64l59.13-46Z"/><polygon class="cls-22" points="748.69 222.63 730.95 223.52 739.82 227.96 748.69 222.63"/><path class="cls-23" d="M747.1,203.41s-8.17.58-13.5-1.19-4.44,4.25-4.44,4.25-7.1-6-2.66-7.8S744.26,200,744.26,200Z"/><path class="cls-24" d="M739.44,188.82c-10.09.49-15.83,1.44-17.95,3.55s-7.12,11.19,0,27a9.24,9.24,0,0,0,4.19-2.59c-1.09-.68-1.87-2.53-1.87-4.72,0-2.76,1.24-5,2.77-5,1.31,0,2.41,1.65,2.7,3.86,1.32-4.63-2.54-6.49.44-10.15,3.33-4.07,8.24,1.85,15.4,0S749.53,188.33,739.44,188.82Z"/><polygon class="cls-25" points="285.33 180.92 234.75 386.8 336.8 450.7 440.63 132.11 285.33 180.92"/><path class="cls-26" d="M389.94,218.09q-6.36,2.54-12.6,5.29c-4.16,1.83-8.29,3.74-12.39,5.67l-1.78.86,1.62-5.34,2.35-8.13,2.23-8.16,3.21-11.71-10.24,6-5.94,3.49-5.9,3.57-5.86,3.65-5.8,3.75q-5.78,3.79-11.45,7.79c-3.78,2.67-7.5,5.43-11.13,8.37,4.44-1.45,8.78-3.07,13.08-4.79s8.55-3.51,12.76-5.37l6.3-2.83,6.25-2.93,1.92-.93L355,221.67l-2.34,8.13L350.39,238l-3.18,11.68,10.2-6,5.86-3.45,5.82-3.53c3.86-2.39,7.7-4.81,11.5-7.31s7.57-5.06,11.29-7.7,7.4-5.37,11-8.27C398.47,214.81,394.18,216.41,389.94,218.09Z"/><path class="cls-27" d="M321.41,388.32q-2.54-6.36-5.29-12.6c-1.83-4.16-3.74-8.29-5.67-12.39l-.86-1.78,5.34,1.62,8.13,2.35,8.16,2.23,11.71,3.21-6-10.24-3.49-5.94-3.57-5.9L326.19,343l-3.75-5.8q-3.79-5.78-7.79-11.45c-2.67-3.78-5.43-7.5-8.37-11.13,1.45,4.44,3.07,8.78,4.79,13.08s3.51,8.55,5.37,12.76l2.83,6.3,2.93,6.25.93,1.92-5.31-1.61L309.7,351l-8.16-2.23-11.68-3.18,6,10.2,3.45,5.86,3.53,5.82c2.39,3.86,4.81,7.7,7.31,11.5s5.06,7.57,7.7,11.29,5.37,7.4,8.27,11C324.7,396.85,323.1,392.56,321.41,388.32Z"/><path class="cls-28" d="M864.31,362.67,874,332.1a9.72,9.72,0,0,1,6.4-6.26l4.07-1.24a1.32,1.32,0,0,0,.88-1.64h0a1.32,1.32,0,0,0-1.64-.88L880,323.22l6.1-6.8a2.71,2.71,0,0,0,.38-3.07l-2.6-4.91a2.71,2.71,0,0,0-4.38-.57l-7.36,8a15,15,0,0,0-2.48,3.65l-19.08,39.06A9.11,9.11,0,0,0,855,370.82h0"/><path class="cls-29" d="M967,498.6l15-27.2,19.4,15.09s-7.12,3.53-15.22-1.91L981,492.36Z"/><path class="cls-30" d="M1014.07,466.22l1.46,18.44,19.67,6.34s2-9-10.38-13l-1.48-16.79Z"/><path class="cls-31" d="M921.94,358a23.83,23.83,0,0,0-1.82-9.32c-2-5-8.49-5.85-12-3.22s-9.66,1.46-14.05,5.56,4,16.1-.32,22.25-14.6,21.66-8.46,33.08,6.15,14.64,2,23.71,2,19.61,10.83,21.08,19.32-5.85,19-12,2.34-38.93,4.68-42.74-4.39-19.32-4.39-19.32v-9.66Z"/><path class="cls-32" d="M906.94,378.24,898.16,358l17.56-9.37,7.61,11.42-2,1.76,1.75,4.52a5,5,0,0,1-2.74,6.45l-1.06.45,2.63,5,.88,11.12h-7Z"/><path class="cls-33" d="M958.17,426.24s6.15,6.15,22.83,3.51c11-1.73,26.08-.94,35.17-.19a9.1,9.1,0,0,1,8.33,8.52l2,32.38-12.42.76-3.81-24.49-57.08,14.34,13.76,36L975,484.66l9.78,6.56L977,517.7a10.85,10.85,0,0,1-19.79,2.39l-41.48-71.31S950.26,426.24,958.17,426.24Z"/><path class="cls-34" d="M958.17,426.24s-33.08,21.37-45.08,24.88l-16-44.27a38.39,38.39,0,0,0-15.81-19.55l-26.76-16.67,10.24-8.78,42.56,16.39s12.35,15.76,14.51-.29l15.6-3.42a12.62,12.62,0,0,1,13.2,5.3l14.41,22L952.9,404l-8.78-11.42Z"/><path class="cls-35" d="M952.9,404l-11.42,29.56s-12.88,2.93-14.34,3.81l-.26.17a4.11,4.11,0,0,0,.71,7l1.39.16a6.25,6.25,0,0,0,5.11-.28l5.93-3,.22,3.88a1.47,1.47,0,0,0,1.47,1.39h0a1.47,1.47,0,0,0,1.34-.87l3.71-8.21s22-28.66,18.32-35.66"/><polygon class="cls-36" points="919.4 372.58 909.71 375.01 921.18 377.35 919.4 372.58"/><path class="cls-37" d="M906.1,376.31s-2.39-7.31-.39-11.31,5-9,6-11a13.67,13.67,0,0,0,1.25-3.85s2.75-.15,5.75,2.85-1-6-1-6h-5c-1,0-11,7-11,7l-5,4,9,19.35Z"/><polygon class="cls-38" points="952.49 461 937.82 464.67 969.6 505 952.49 461"/><path class="cls-39" d="M623.21,402l22,20.33,21.47-8.45s-5-10.07-18.42-4.18l-11.16-12Z"/><path class="cls-40" d="M644.53,263.51l-7.45-3.12a10.9,10.9,0,0,0-6.41-.39l-12.25,3.94,0-.11-49.92,8.68L520.7,240.46l-13,22.05,39.39,20.62a46.7,46.7,0,0,0,10.37,4,42.22,42.22,0,0,0,19.21.79l42.79-13.22L630,276.43l2-.61a1.15,1.15,0,0,0-.27-2.24l-.86-.05-4-1.42,9.64-3,7.31,1.8a1.89,1.89,0,0,0,2.34-1.73l.17-2.8A3,3,0,0,0,644.53,263.51Z"/><path class="cls-41" d="M520.82,452.72l-1.68,23.53,19.33,12.61s5.36-10.92-7.24-18.49l.84-14.29Z"/><polygon class="cls-42" points="540.38 253.66 528.46 273.37 519.14 264.49 521.66 236.75 540.38 253.66"/><path class="cls-43" d="M600.17,348a35,35,0,0,0-22.49-13l-63.91-10.23c-1.19.15,1.9-9.09.32-9L508,324.88l-28.38-23.42c-5.09.26,8.69,13.09-.84,12.61-1.17-.06-25,.08-26.05,0l5.88,13.45,42.31,29.43,76.59,4,57.94,52.61,12.23-10Z"/><path class="cls-44" d="M526.4,257.56c-4.4-10.46-3.27-23.06-3.27-23.06s-6.2,11.88-12.86,5.88-1.33-22-1.33-22S485,229.07,475,255c-9.46,24.59-23.1,55.75-24.52,59,2.52,3,10.83,9.67,35.91,11,13.84.71,22.27.37,27.41-.26l7.82-41.51S534.26,276.25,526.4,257.56Z"/><path class="cls-45" d="M513.6,347.62v-1.77L483,324.77q-2.5-.19-4.77-.44l-17.61,23,.38.3Z"/><path class="cls-46" d="M539.83,363.91,491.21,325c-9,0-35-3-40.75-11l-.12.28s-6.06,16.54,6.4,29.56a30.73,30.73,0,0,0,6,4.75l60.23,37.62L520,462.35l16,1.15,15.88-76.78A23.6,23.6,0,0,0,539.83,363.91Z"/><path class="cls-47" d="M581.14,322.66l-3.62-3.1,1.87-.14a1.11,1.11,0,0,0,.41-2.1L577.18,316a10.35,10.35,0,0,0-5.42-1.06l-9.43.73-46.09-19.82-12-38.25-21.79,5.85,16.12,38.07A15.45,15.45,0,0,0,508,312L574,329.1l5,3.9a2.61,2.61,0,0,0,3.65-1.88l.51-2.65A6.13,6.13,0,0,0,581.14,322.66Z"/><path class="cls-48" d="M547.71,193.06l-41.18,26.89s-3.36,9.24,0,21.85,11,13.12,11.39,10.76,1.21-4,2.18-10.5c.08-.55,1.13-3.29,1.65-4.61l6.63-5.74A10,10,0,0,0,543,232.79l3.88-3.6,3.36,3.36,13.45-18.49v-9.24Z"/><circle class="cls-49" cx="549.39" cy="182.97" r="10.92"/><path class="cls-50" d="M565.36,201.46c-1.68-8.4-6.72-15.13-21-15.13-9.4,0-19.33,9.24-26.73,26.44a22.41,22.41,0,0,0,12.86,1c-1.15-2-.27-5.08,2.18-7.3,2.7-2.45,6.28-2.9,8-1a3.47,3.47,0,0,1,.83,1.73c5.19-3.43,8.13-3.55,12.1-1.56,5,2.52,9.68,9.1,9.68,9.1S566.69,208.1,565.36,201.46Z"/><polygon class="cls-51" points="528.71 230.97 519.28 218 520.4 237.75 528.71 230.97"/><path class="cls-52" d="M523.21,386l21-1s-13.2,3-11,13,2.2,19-2.2,28-2.2,21-4.4,25a27.52,27.52,0,0,1-6.23,7.17Z"/></g></g></svg>