<svg id="ourResultsPic" class="img-fluid mx-auto d-block" xmlns="http://www.w3.org/2000/svg" xmlns:xlink="http://www.w3.org/1999/xlink" width="1455.5" height="603"
     viewBox="0 0 1455.5 603">
    <defs>
        <style>
            #ourResultsPic .cls-1{opacity:0.7;}#ourResultsPic .cls-2{opacity:0.05;}#ourResultsPic .cls-3{fill:url(#noname-gradient_8);}#ourResultsPic .cls-4{fill:url(#noname-gradient_8-2);}#ourResultsPic .cls-5{fill:url(#noname-gradient_8-3);}#ourResultsPic .cls-6{fill:url(#noname-gradient_8-4);}#ourResultsPic .cls-7{fill:url(#noname-gradient_8-5);}#ourResultsPic .cls-8{fill:url(#noname-gradient_8-6);}#ourResultsPic .cls-9{fill:url(#noname-gradient_8-7);}#ourResultsPic .cls-10,#ourResultsPic .cls-11,#ourResultsPic .cls-13{fill:#1245fb;}#ourResultsPic .cls-10{opacity:0.1;}#ourResultsPic .cls-10,#ourResultsPic .cls-12,#ourResultsPic .cls-13,#ourResultsPic .cls-14,#ourResultsPic .cls-15,#ourResultsPic .cls-16,#ourResultsPic .cls-17,#ourResultsPic .cls-18,#ourResultsPic .cls-19,#ourResultsPic .cls-20,#ourResultsPic .cls-22,#ourResultsPic .cls-23,#ourResultsPic .cls-24{isolation:isolate;}#ourResultsPic .cls-13,#ourResultsPic .cls-14{font-size:24.21px;font-family:ProximaNova-Bold,
            Proxima
            Nova;font-weight:700;}#ourResultsPic .cls-14,#ourResultsPic .cls-16,#ourResultsPic .cls-17,#ourResultsPic .cls-18,#ourResultsPic .cls-19,#ourResultsPic .cls-21{fill:#fff;}#ourResultsPic .cls-15,#ourResultsPic .cls-18{opacity:0.5;}#ourResultsPic .cls-16,#ourResultsPic .cls-17,#ourResultsPic .cls-18,#ourResultsPic .cls-19{font-size:18.16px;font-family:ProximaNova-Light,
            Proxima
            Nova;}#ourResultsPic .cls-16{letter-spacing:-0.03em;}#ourResultsPic .cls-19{letter-spacing:-0.03em;}#ourResultsPic .cls-20,#ourResultsPic .cls-22,#ourResultsPic .cls-23,#ourResultsPic .cls-24{fill:none;stroke-miterlimit:10;}#ourResultsPic .cls-20{stroke:#607393;opacity:0.2;}#ourResultsPic .cls-22,#ourResultsPic .cls-23,#ourResultsPic .cls-24{opacity:0.35;}#ourResultsPic .cls-22{stroke:url(#noname-gradient_11);}#ourResultsPic .cls-23{stroke:url(#noname-gradient_11-2);}#ourResultsPic .cls-24{stroke:url(#noname-gradient_11-3);}
        </style>
        <linearGradient id="noname-gradient_8" y1="174.5" x2="1455.5" y2="174.5"
                        gradientTransform="matrix(1, 0, 0, -1, 0, 700)" gradientUnits="userSpaceOnUse">
            <stop offset="0" stop-color="#607393" stop-opacity="0"/>
            <stop offset="0.5" stop-color="#607393" stop-opacity="0.52"/>
            <stop offset="0.72" stop-color="#607393" stop-opacity="0.28"/>
            <stop offset="1" stop-color="#607393" stop-opacity="0"/>
        </linearGradient>
        <linearGradient id="noname-gradient_8-2" y1="251.5" x2="1455.5" y2="251.5"
                        xlink:href="#noname-gradient_8"/>
        <linearGradient id="noname-gradient_8-3" y1="328.5" x2="1455.5" y2="328.5"
                        xlink:href="#noname-gradient_8"/>
        <linearGradient id="noname-gradient_8-4" y1="405.5" x2="1455.5" y2="405.5"
                        xlink:href="#noname-gradient_8"/>
        <linearGradient id="noname-gradient_8-5" y1="482.5" x2="1455.5" y2="482.5"
                        xlink:href="#noname-gradient_8"/>
        <linearGradient id="noname-gradient_8-6" y1="559.5" x2="1455.5" y2="559.5"
                        xlink:href="#noname-gradient_8"/>
        <linearGradient id="noname-gradient_8-7" y1="97.5" x2="1455.5" y2="97.5"
                        xlink:href="#noname-gradient_8"/>
        <linearGradient id="noname-gradient_11" x1="589.59" y1="671" x2="589.59" y2="344.5"
                        gradientTransform="matrix(1, 0, 0, -1, 0, 700)" gradientUnits="userSpaceOnUse">
            <stop offset="0.01" stop-color="#607393"/>
            <stop offset="0.18" stop-color="#607393" stop-opacity="0.98"/>
            <stop offset="0.34" stop-color="#607393" stop-opacity="0.9"/>
            <stop offset="0.5" stop-color="#607393" stop-opacity="0.77"/>
            <stop offset="0.65" stop-color="#607393" stop-opacity="0.59"/>
            <stop offset="0.8" stop-color="#607393" stop-opacity="0.36"/>
            <stop offset="0.94" stop-color="#607393" stop-opacity="0.09"/>
            <stop offset="0.98" stop-color="#607393" stop-opacity="0"/>
        </linearGradient>
        <linearGradient id="noname-gradient_11-2" x1="211.99" y1="514.5" x2="211.99" y2="215.5"
                        xlink:href="#noname-gradient_11"/>
        <linearGradient id="noname-gradient_11-3" x1="970.99" y1="-1265.39" x2="970.99" y2="-1728.59"
                        gradientTransform="matrix(1, 0, 0, -0.58, 0, -554.14)" xlink:href="#noname-gradient_11"/>
    </defs>

    <g>
        <g>
            <g class="cls-1">
                <g class="cls-2">
                    <rect class="cls-3" y="525" width="1455.5" height="1"/>
                </g>
                <rect class="cls-4" y="448" width="1455.5" height="1"/>
                <rect class="cls-5" y="371" width="1455.5" height="1"/>
                <rect class="cls-6" y="294" width="1455.5" height="1"/>
                <rect class="cls-7" y="217" width="1455.5" height="1"/>
                <rect class="cls-8" y="140" width="1455.5" height="1"/>
                <rect class="cls-9" y="602" width="1455.5" height="1"/>
                <rect class="cls-3" y="525" width="1455.5" height="1"/>
            </g>
            <circle class="cls-10" cx="589.59" cy="34.5" r="34.5"/>
            <circle class="cls-10" cx="589.59" cy="34.5" r="18.5"/>
            <circle class="cls-11" cx="589.59" cy="34.5" r="5.5"/>
            <g class="cls-12">
                <text class="cls-13" transform="translate(647.73 96.55)">+</text>
                <text class="cls-14" transform="translate(659.93 96.55)">30%</text>
            </g>
            <g class="cls-15">
                <text class="cls-16" transform="translate(647.73 116.04)">R</text>
                <text class="cls-17" transform="translate(657.97 116.04)">ent Premium</text>
            </g>
            <g class="cls-12">
                <text class="cls-13" transform="translate(647.73 150.02)">+</text>
                <text class="cls-14" transform="translate(659.93 150.02)">100%</text>
            </g>
            <g class="cls-15">
                <text class="cls-16" transform="translate(647.73 169.5)">R</text>
                <text class="cls-17" transform="translate(657.97 169.5)">ent Premium</text>
            </g>
            <g class="cls-12">
                <text class="cls-13" transform="translate(779.26 96.55)">+</text>
                <text class="cls-14" transform="translate(791.46 96.55)">33%</text>
            </g>
            <g class="cls-12">
                <text class="cls-18" transform="translate(779.26 116.04)">Faster</text>
                <text class="cls-19" transform="translate(832.64 116.04)">L</text>
                <text class="cls-17" transform="translate(841.32 116.04)">ease-Up</text>
            </g>
            <line class="cls-20" x1="647.73" y1="62.27" x2="772.5" y2="62.27"/>
            <path class="cls-21"
                  d="M677.05,24c.31.87.6,1.74.94,2.6q2.93,7.55,5.87,15.09a1.4,1.4,0,0,0,1.6,1.08,5.8,5.8,0,0,1,1,.12c.1,0,.21.19.24.31s-.16.19-.27.22a1.44,1.44,0,0,1-.45,0l-7.32-.11a7.45,7.45,0,0,1-.94.08c-.31,0-.33-.24-.49-.37.15-.11.28-.3.44-.32.44-.06.89,0,1.34-.09s1-.14,1.64-.23l-1.76-5.16h-6.2c-.52,1.53-1.06,3.09-1.58,4.67-.18.56,0,.71.52.74s1,.06,1.56.12a2.26,2.26,0,0,1,.52.2c-.18.46-.52.48-.87.47-1.44,0-2.89-.08-4.33-.11-.27,0-.55.11-.82.09a2.72,2.72,0,0,1-.65-.2V43a4.19,4.19,0,0,1,.72-.25h.84a1.73,1.73,0,0,0,1.47-1.3l6-15.93c.19-.5.36-1,.54-1.51Zm-1.2,4.83L673,36.4h5.67Z"/>
            <path class="cls-21"
                  d="M743.36,24c1,.45,2.1.88,3.13,1.36.43.2.61,0,.82-.31a7.81,7.81,0,0,1,.49-.67c.07-.08.29-.15.33-.11a.49.49,0,0,1,.16.38,28.2,28.2,0,0,0-.42,5.4c0,.17-.18.34-.27.52-.17-.16-.43-.29-.49-.49-.23-.72-.35-1.47-.58-2.18a4.51,4.51,0,0,0-3.93-3.22,5.2,5.2,0,0,0-4.25,1,7,7,0,0,0-2.09,3.16,14.36,14.36,0,0,0-.77,6,10.27,10.27,0,0,0,2,5.92,5.46,5.46,0,0,0,3.59,2.12,5.71,5.71,0,0,0,4.28-.88,6,6,0,0,0,2.17-3.42c.14-.46.2-.94.36-1.39.06-.18.29-.3.44-.45.11.19.34.4.32.57a26.34,26.34,0,0,0-.09,5.43,1.25,1.25,0,0,1,0,.39,2.67,2.67,0,0,1-.18.43c-.16-.1-.38-.16-.48-.31-.28-.41-.51-.85-.79-1.31a8,8,0,0,1-6.21,1.73,9.46,9.46,0,0,1-5.54-2.41,9.29,9.29,0,0,1-3.14-5.67,10.47,10.47,0,0,1,2.06-8.51,8.28,8.28,0,0,1,5-3l.3-.11Z"/>
            <path class="cls-21"
                  d="M753,24.22h6.8a.61.61,0,0,1,.28,0,2.39,2.39,0,0,1,.34.29c-.12.09-.22.25-.35.27a9.24,9.24,0,0,1-1.22.12c-.36,0-.56.15-.57.53,0,1.48-.08,3-.11,4.44v2.68h8.7V26.69a8.87,8.87,0,0,0-.12-1.34c-.09-.53-.58-.44-.93-.52a2.94,2.94,0,0,0-.84,0c-.27,0-.3-.18-.44-.28.13-.1.26-.27.4-.28.84,0,1.69-.08,2.53-.08q2.06,0,4.11.08c.17,0,.33.2.49.31a2.3,2.3,0,0,1-.56.25c-.42.07-.85.06-1.27.14a.46.46,0,0,0-.29.31,11.28,11.28,0,0,0-.12,1.51q0,6.89,0,13.79a16.46,16.46,0,0,0,.11,1.68c.06.56.57.44.91.54a2,2,0,0,0,.78,0c.25,0,.29.18.44.27-.15.09-.31.27-.46.27h-6.5a2,2,0,0,1-.57-.19v-.23c.55-.08,1.1-.19,1.66-.25.31,0,.53-.1.53-.48s.09-.63.09-1V33.42h-8.7v7.13c0,.52.07,1,.11,1.56s.33.46.61.51.78.06,1.16.14a1.67,1.67,0,0,1,.48.28c-.15.09-.31.26-.46.27h-6.67c-.14,0-.29-.16-.43-.24.13-.11.24-.27.39-.3a5.16,5.16,0,0,1,.93-.12c.78,0,.91-.07.92-1V25.94c0-1.06-.06-1.11-1-1.08a2.91,2.91,0,0,1-.94-.12c-.16,0-.28-.26-.42-.39Z"/>
            <path class="cls-21"
                  d="M713.56,27.21V42c0,.47.13.68.62.68a15,15,0,0,1,1.67.12c.15,0,.28.16.42.25-.14.1-.29.29-.43.3H710.2a2,2,0,0,1-.49-.13V43a3,3,0,0,1,.65-.23,13.43,13.43,0,0,0,1.67-.14.79.79,0,0,0,.51-.5,9.26,9.26,0,0,0,.1-1.63V28.42a11,11,0,0,0-.31-2.36,1.46,1.46,0,0,0-1.52-1.14,9.38,9.38,0,0,1-1.27-.13c-.12,0-.2-.21-.3-.33.13-.08.25-.22.38-.22.82,0,1.65,0,2.47,0a14.81,14.81,0,0,0,2.23-.06.92.92,0,0,1,.92.46c2.07,3,4.17,5.9,6.26,8.84,1,1.48,2.11,3,3.23,4.5V25.57c0-.47-.09-.69-.62-.66a10,10,0,0,1-1.56-.11,2.27,2.27,0,0,1-.52-.19V24.4a3.58,3.58,0,0,1,.86-.22q2.45,0,4.9.06c.15,0,.29.19.44.29-.16.09-.31.24-.48.25-.66,0-1.32,0-2.06.07V43.5l-.18.13a2.48,2.48,0,0,1-.63-.46q-4.79-6.72-9.55-13.46Z"/>
            <path class="cls-21"
                  d="M688.2,24.41a2.87,2.87,0,0,1,.66-.18h6.44a2.33,2.33,0,0,1,.63.19v.25a2.37,2.37,0,0,1-.68.23c-1.87,0-1.59-.12-1.6,1.66V37.8a6.79,6.79,0,0,0,.69,3,3.6,3.6,0,0,0,3.07,1.91,8.59,8.59,0,0,0,2.67-.16,3.77,3.77,0,0,0,3-3.28,39.38,39.38,0,0,0,.36-5.36c.06-2.64,0-5.27,0-7.91,0-.94-.17-1.11-1.12-1.11a3,3,0,0,1-.79,0c-.18,0-.31-.25-.46-.39.16-.09.31-.26.47-.26h4.86c.15,0,.29.19.43.29-.14.09-.28.24-.42.25h-1.24c-.41,0-.73.17-.72.75v6.78c0,1.43.09,2.87,0,4.29a15.46,15.46,0,0,1-.73,3.74,4.85,4.85,0,0,1-4.17,3.18,10.83,10.83,0,0,1-5.51-.44,4.76,4.76,0,0,1-3.23-3.84,17.92,17.92,0,0,1-.23-3V25.84c0-.75-.21-.94-1-1A1.24,1.24,0,0,1,688.2,24.41Z"/>
            <path class="cls-21"
                  d="M654.68,42.63h3.37a23.3,23.3,0,0,0,2.63-.21c2.45-.26,3-1.1,3.26-3.35v-.33c0-.08.27-.44.44-.46s.36.21.36.5q0,2.15,0,4.29c0,.36-.11.51-.49.5l-9.89-.14q-2.2,0-4.4-.11a3,3,0,0,1-.67-.18V42.9a15.23,15.23,0,0,1,1.6-.24c.56,0,.75-.31.75-.81V25.69c0-.63-.17-.78-.8-.78a5.74,5.74,0,0,1-1.07,0c-.17,0-.31-.26-.46-.4.18-.09.36-.26.55-.27h1.52l4.8-.07a1.27,1.27,0,0,1,.5.08c.11,0,.19.18.29.28-.1.09-.18.25-.29.27a7.34,7.34,0,0,1-1.11.12c-.72,0-.85.14-.85.85q0,6.44,0,12.88C654.68,39.91,654.68,41.19,654.68,42.63Z"/>
            <path class="cls-21"
                  d="M677.9,53.55c-.52.13-.85.09-1.12-.35s-.81-1-1.18-1.56a.8.8,0,0,0-.83-.4h-1.1v2.34H673V47.8a26.34,26.34,0,0,1,3.13,0,1.55,1.55,0,0,1,1.36,1.59A1.77,1.77,0,0,1,676.26,51l-.21.13Zm-4.2-5.13v2.14h1.89a1.06,1.06,0,0,0,1.12-1.23c0-.58-.42-.89-1.16-.9Z"/>
            <path class="cls-21"
                  d="M708.72,50.22h2.64c.58,0,.58,0,.54.67h-3.23v2h3.46v.69h-3.94a.43.43,0,0,1-.31-.29V47.74h4.25c.14.5,0,.66-.53.65h-2.91Z"/>
            <path class="cls-21" d="M743.29,53.57V47.76h4.14v.62H744V50.2h3.21v.69H744v2h3.55v.65Z"/>
            <path class="cls-21"
                  d="M680.91,53.57v-5.8H685c.14.47,0,.66-.5.65h-2.91v1.81h2.68c.49,0,.66.16.51.67h-3.18v2h3.54v.65Z"/>
            <path class="cls-21"
                  d="M719.55,48.49l-.42.39a2.49,2.49,0,0,0-2.34-.47c-.38.13-.72.28-.75.78s.32.73.71.87c.57.2,1.17.32,1.75.51a1.46,1.46,0,0,1,1.16,1.71h0A1.87,1.87,0,0,1,718,53.62a3.15,3.15,0,0,1-2.5-.72c-.18-.17-.38-.32-.13-.6s.42-.08.6.08a2.26,2.26,0,0,0,2.16.56,1,1,0,0,0,.84-.86.86.86,0,0,0-.69-.84l-1.79-.55a1.6,1.6,0,0,1-1.23-1.4,1.7,1.7,0,0,1,1.19-1.45A2.75,2.75,0,0,1,719.55,48.49Z"/>
            <path class="cls-21"
                  d="M693.47,53.55c-.52.17-.8,0-.91-.43a1.27,1.27,0,0,0-1.67-1.1,4,4,0,0,1-.84,0c-.91,0-.9,0-1.25.88-.15.37-.23.89-1,.63.17-.44.33-.88.52-1.31q.94-2.13,1.91-4.25a.48.48,0,0,1,.35-.23.5.5,0,0,1,.4.19C691.85,49.79,692.65,51.66,693.47,53.55Zm-1.7-2.23-1.14-2.66-1.13,2.66Z"/>
            <path class="cls-21"
                  d="M734.15,53.54a.59.59,0,0,1-.91-.46c-.19-1-.78-1.2-1.66-1a.79.79,0,0,1-.28,0,1.5,1.5,0,0,0-2,1.23c-.09.45-.41.39-.81.29l1.14-2.66c.37-.86.73-1.74,1.14-2.58.11-.23.37-.39.56-.58a2.61,2.61,0,0,1,.49.57c.73,1.62,1.44,3.24,2.15,4.87C734.06,53.27,734.09,53.39,734.15,53.54Zm-4-2.24h2.27l-1.11-2.63Z"/>
            <path class="cls-21"
                  d="M722.28,47.75H727c.13.6.11.64-.44.65h-1.55v4.71a.61.61,0,0,1-.28.48c-.36.11-.48-.11-.47-.47V48.4h-1.44C722.26,48.4,722.26,48.4,722.28,47.75Z"/>
            <path class="cls-21"
                  d="M740.36,47.76c.14.47,0,.68-.5.65s-1,0-1.54,0V53c0,.24.11.55-.33.57s-.41-.28-.41-.57V48.4h-1.46c-.46,0-.67-.14-.53-.65Z"/>
            <path class="cls-21" d="M697,52.93h3.47v.64h-4.15V47.76H697Z"/>
            <line class="cls-22" x1="589.59" y1="355.5" x2="589.59" y2="29"/>
            <g class="cls-12">
                <text class="cls-13" transform="translate(264.13 227.24)">+</text>
                <text class="cls-14" transform="translate(276.33 227.24)">30%</text>
            </g>
            <path class="cls-21"
                  d="M369.6,187.27a4.9,4.9,0,0,1-3.52-.92,1.83,1.83,0,0,0-2.46,0,6.4,6.4,0,0,1-4.42,1,5.2,5.2,0,0,1-4.44-3c-.87-1.86-.22-3.5,1-4.9a2.62,2.62,0,0,0,.64-3c-.82-2.23,1.2-4.8,3.89-5.2a9.07,9.07,0,0,1,2,0,2.37,2.37,0,0,1,1.94,3.7c-.14.25-.28.52-.61.5s-.41-.35-.45-.63a2.21,2.21,0,0,0-.83-1.45,2.09,2.09,0,0,0-2.53-.32,1.83,1.83,0,0,0-.88,2.36c1.12,2.94,3.45,4.9,5.83,6.78.33.26.65.14.83-.25a2.11,2.11,0,0,0,0-2.11c-.27-.47-1.58-.51-.85-1.25s1.83-.33,2.76,0a1.06,1.06,0,0,1,.66,1.52c-.18.54-.35,1.09-.55,1.62-1,2.47-.92,2.56,1.4,3.78a4.47,4.47,0,0,1,.61.3c.59.44,2,.14,1.78,1.12C371.3,187.61,370.05,187.17,369.6,187.27Zm-12.53-5.18a3.33,3.33,0,0,0,1.82,3.18,3.51,3.51,0,0,0,3.71,0c.53-.29,1-.61.35-1.27l-4.14-4c-.57-.56-1-.38-1.34.23a3.55,3.55,0,0,0-.4,1.86Z"/>
            <path class="cls-21"
                  d="M266.62,170.68c3.5,0,6.65-.23,9.75.06a7.84,7.84,0,0,1,6.89,7.58c.17,4.39-2.22,7.76-6.18,8.73a25.47,25.47,0,0,1-10-.2c1.6-1,1.42-2.48,1.42-3.94v-8.56C268.46,172.17,268.46,172.17,266.62,170.68Zm4.28,7.92h0v5.47a1.73,1.73,0,0,0,1,1.79c3.07,1.31,7.75-1,8.51-4.29,1.34-5.7-2.42-10-8.25-9.56-1,.08-1.42.39-1.37,1.46a48.82,48.82,0,0,1,.12,5.13Z"/>
            <path class="cls-21"
                  d="M388.87,175.54c-.94-1.65-1.71-3.22-3.58-3.62a6.46,6.46,0,0,0-6.34,1.6c-2,2.07-2,4.67-1.38,7.23a7.21,7.21,0,0,0,6.46,5.51c1.91.12,3.51-.3,4.49-2.13.17-.31.32-.87.84-.65s.3.69.28,1.08c-.06,1.82-.72,2.53-2.58,2.73a33.61,33.61,0,0,1-3.92.31c-4.63,0-8.11-3.19-8.3-7.42-.25-5.59,2.62-9.23,7.64-9.72a27,27,0,0,1,6,.51c.53.06,1.11.27,1.08.9A8.89,8.89,0,0,1,388.87,175.54Z"/>
            <path class="cls-21"
                  d="M300.71,179.09c-.88,4.41-.85,5.81.1,7.49a5.51,5.51,0,0,1-3.19,0c1.36-2,1-4.23,1.39-6.32.25-1.57.3-3.18.46-4.77,0-.38,0-.89.48-1s.67.39.84.72c1.39,2.68,2.75,5.37,4.19,8.18.83-.63,1-1.57,1.33-2.34.94-1.89,1.82-3.81,2.76-5.7.18-.37.36-1,.93-.81s.34.67.38,1.05c.25,2.5.47,5,.76,7.49.15,1.29.16,2.7,1.92,3.21-2.65,1.2-3.65.61-3.68-2a21.87,21.87,0,0,0-.59-5.09,52.34,52.34,0,0,0-3.09,6.29c-.6,1.33-1.1,1.2-1.79.06A52.67,52.67,0,0,1,300.71,179.09Z"/>
            <path class="cls-21"
                  d="M321.36,178.44c.49,2.65-.36,5.49,1.31,8.14-.88.46-2,.11-3,.15-.34,0-.56-.26-.36-.57,1.33-2,.44-4.23.64-6.34.13-1.36,0-2.74,0-4.11,0-.45,0-1,.45-1.22s.8.31,1.1.62c2.55,2.69,5.08,5.39,8,8.48-.35-3.28.24-6.19-1.15-9.06.29-.33.9-.09,1.43-.11,1.07,0,2.22-.35,1.28,1.59-.52,1.07-.13,2.58-.17,3.89a52.2,52.2,0,0,1-.16,5.82c-.15,1.1-.5,1.26-1.37.5a78.66,78.66,0,0,1-6.25-6.57c-.45-.49-.91-1-1.36-1.46Z"/>
            <path class="cls-21"
                  d="M389.93,180.71a6.2,6.2,0,0,1,6.64-6.46c3.32.07,6.17,3.34,6.12,7a6.23,6.23,0,0,1-6.21,6A6.85,6.85,0,0,1,389.93,180.71Zm2.08.06a10.93,10.93,0,0,0,.14,1.37,4.71,4.71,0,0,0,4.5,4,4.55,4.55,0,0,0,4.17-4.46c.29-3.24-1.69-6-4.41-6C393.49,175.53,392,177.16,392,180.77Z"/>
            <path class="cls-21"
                  d="M283.93,180.56a6.19,6.19,0,0,1,6.62-6.48c3.32.06,6.21,3.34,6.16,7a6.32,6.32,0,0,1-6.38,6.06A6.86,6.86,0,0,1,283.93,180.56Zm6.24-5.11c-2.6,0-4.3,1.84-4.32,4.65,0,3.27,2.11,5.92,4.73,5.86,2.44-.05,4.27-2.24,4.23-5.06-.05-3.22-1.94-5.45-4.64-5.46Z"/>
            <path class="cls-21"
                  d="M348.46,183.62c.34,2.26-.16,3-2.08,3.18a15.85,15.85,0,0,1-2.89.2,6.2,6.2,0,0,1-6-6.37q0-.2,0-.4a6.48,6.48,0,0,1,6.81-6.13l.47,0c.79.07,1.58.21,2.38.29a1.28,1.28,0,0,1,1.31,1.6c-.07.6.21,1.49-.44,1.7s-.66-.74-1-1.15c-1.5-2.09-5.68-1.55-7,.92a5.81,5.81,0,0,0,4.5,8.35C345.78,186,346.08,185.79,348.46,183.62Z"/>
            <path class="cls-21"
                  d="M318.36,186.57a9.86,9.86,0,0,1-3.92.15c.41-3.94,1-7.77-.21-11.58-.16-.51.09-.62.47-.63h2.38c.38,0,.77.22.43.62-.92,1.05-.5,2.28-.55,3.44-.07,1.59,0,3.18,0,4.78C316.94,184.5,316.67,185.75,318.36,186.57Z"/>
            <path class="cls-21"
                  d="M332.94,174.74c.14-.08.24-.17.34-.17,2.59-.09,2.53-.09,2.47,2.23-.07,2.56,0,5.12,0,7.68a2.48,2.48,0,0,0,1,2c-.27.49-.65.38-1,.38-.8,0-1.75.24-2.35-.11-1-.6.34-1.21.3-2-.13-2.73-.08-5.46,0-8.19C333.68,175.8,333,175.39,332.94,174.74Z"/>
            <g class="cls-15">
                <text class="cls-16" transform="translate(264.13 246.72)">R</text>
                <text class="cls-17" transform="translate(274.37 246.72)">ent Premium</text>
            </g>
            <g class="cls-12">
                <text class="cls-13" transform="translate(264.13 280.7)">+</text>
                <text class="cls-14" transform="translate(276.33 280.7)">100%</text>
            </g>
            <g class="cls-12">
                <text class="cls-13" transform="translate(395.67 227.24)">+</text>
                <text class="cls-14" transform="translate(407.87 227.24)">33%</text>
            </g>
            <g class="cls-12">
                <text class="cls-18" transform="translate(395.67 246.72)">Faster</text>
                <text class="cls-19" transform="translate(449.05 246.72)">L</text>
                <text class="cls-17" transform="translate(457.73 246.72)">ease-Up</text>
            </g>
            <line class="cls-20" x1="264.13" y1="196.96" x2="402.75" y2="196.96"/>
            <line class="cls-23" x1="211.99" y1="484.5" x2="211.99" y2="185.5"/>
            <circle class="cls-10" cx="211.99" cy="185.5" r="34.5"/>
            <circle class="cls-10" cx="211.99" cy="185.5" r="18.5"/>
            <circle class="cls-11" cx="211.99" cy="185.5" r="5.5"/>
            <g class="cls-12">
                <text class="cls-13" transform="translate(1019.33 247.24)">+</text>
                <text class="cls-14" transform="translate(1031.53 247.24)">30%</text>
            </g>
            <g class="cls-15">
                <text class="cls-16" transform="translate(1019.33 266.72)">R</text>
                <text class="cls-17" transform="translate(1029.57 266.72)">ent Premium</text>
            </g>
            <g class="cls-12">
                <text class="cls-13" transform="translate(1150.86 247.24)">+</text>
                <text class="cls-14" transform="translate(1163.06 247.24)">33%</text>
            </g>
            <g class="cls-12">
                <text class="cls-18" transform="translate(1150.86 266.72)">Faster</text>
                <text class="cls-19" transform="translate(1204.24 266.72)">L</text>
                <text class="cls-17" transform="translate(1212.92 266.72)">ease-Up</text>
            </g>
            <line class="cls-20" x1="1019.33" y1="208.96" x2="1139.5" y2="208.96"/>
            <circle class="cls-10" cx="970.99" cy="181.43" r="29.43"/>
            <circle class="cls-10" cx="970.99" cy="181.43" r="15.78"/>
            <circle class="cls-11" cx="970.99" cy="181.43" r="4.69"/>
            <line class="cls-24" x1="970.99" y1="454.5" x2="970.99" y2="184.41"/>
            <path class="cls-21"
                  d="M1059.31,191.16V176.85c0-1.6-1-1.72-2.23-1.73s-2.22.14-2.21,1.74v14.31c0,1.61,1.05,1.7,2.24,1.71S1059.36,192.77,1059.31,191.16Z"/>
            <path class="cls-21"
                  d="M1066.23,190.93v-21.7c0-1.68-.4-2-2.25-2s-2.17.29-2.17,1.89V191c0,1.65.36,1.9,2.31,1.89C1065.89,192.87,1066.22,192.6,1066.23,190.93Z"/>
            <path class="cls-21"
                  d="M1067.36,197.69c-.46.13-.87.52-1.42.21-.88-.51-1.08.11-1.12.77-.05,1,0,2,0,3h0v2.85c0,.44,0,1,.55,1.09s.72-.52.8-1-.09-1.13.83-1.09c2.85.12,4.22-1.93,3.05-4.51a2.08,2.08,0,0,0-2.62-1.35Z"/>
            <path class="cls-21"
                  d="M1048.06,195.6c-2,0-2.2.15-2.21,2.23v4.37c0,.53-.11,1.24.66,1.31s.94-.56.93-1.13c0-1.22.59-1.59,1.72-1.77a2.55,2.55,0,0,0,2.1-3.36C1050.74,195.67,1049.36,195.62,1048.06,195.6Z"/>
            <path class="cls-21"
                  d="M1060.36,197.54a2.86,2.86,0,0,0-3.14,3c-.06,2,.86,3.07,2.61,3.15a2.88,2.88,0,0,0,3.31-3,2.74,2.74,0,0,0-2.78-3.15Z"/>
            <path class="cls-21"
                  d="M1055.56,197.66c-.42.13-.91.55-1.21.44-1.4-.53-1.23.46-1.29,1.23v1.34h0a15.28,15.28,0,0,0,.11,2.24.58.58,0,0,0,.57.59h0a.62.62,0,0,0,.63-.53,3.88,3.88,0,0,0,.1-.89c0-1.4-.17-2.87,1.69-3.37a.49.49,0,0,0,.22-.75A.63.63,0,0,0,1055.56,197.66Z"/>
            <path class="cls-21"
                  d="M1078.18,167.88c-1.89,0-2.54.63-2.52,2.36s.66,2.17,2.54,2.17,2.54-.61,2.52-2.35S1080,167.87,1078.18,167.88Z"/>
            <path class="cls-21"
                  d="M1054.57,170.07a2.15,2.15,0,0,0,2.34,2.48,2.32,2.32,0,0,0,2.69-2.31c0-1.69-.67-2.36-2.52-2.36S1054.56,168.47,1054.57,170.07Z"/>
            <path class="cls-21"
                  d="M1047.82,191c.66-2.68,1.42-5.34,2.12-8q1.71-6.48,3.41-13c.2-.77.51-1.61-.33-2.2a3,3,0,0,0-4.31,1.6q-1.86,7.92-3.69,15.85c-.14.61,0,1.32-.65,1.79-.64-.43-.59-1.15-.74-1.75-1.32-5.21-2.6-10.43-3.92-15.64-.51-2-.8-2.15-3.46-2.11-2,0-2.33.25-2.79,2.19q-1.9,7.91-3.79,15.83a2.34,2.34,0,0,1-.61,1.45c-.48-.34-.48-.82-.58-1.25l-3.7-16.16c-.45-2-1.87-2.67-4.32-2-1.81.51-.94,1.89-.7,2.87,1.58,6.28,3.24,12.55,4.89,18.81.93,3.52.94,3.52,4.5,3.52,2.64,0,3-.27,3.61-2.82,1-4.1,1.95-8.21,2.94-12.31a2.59,2.59,0,0,1,.7-1.6,2.51,2.51,0,0,1,.59,1.44c.94,3.7,1.86,7.41,2.8,11.11,1.07,4.2.34,4.32,5.82,4.16A2.11,2.11,0,0,0,1047.82,191Z"/>
            <path class="cls-21"
                  d="M1081.36,197.64c-2.14-.14-2.7.41-2.71,2.64v.45h0v2c0,.35.09.74.56.75s.61-.32.69-.68a3.62,3.62,0,0,0,.1-.89c0-1.35,0-2.65,1.64-3.12a.51.51,0,0,0,.3-.74A.62.62,0,0,0,1081.36,197.64Z"/>
            <path class="cls-21"
                  d="M1118.36,178.71c1.54-.06,2.54,1.15,2.73,3.34.06.65.05,1.3.06,2V191c0,1.65.36,1.93,2.13,1.93s2.27-.33,2.28-2v-9.8a8.69,8.69,0,0,0-.64-3.08,4.7,4.7,0,0,0-4.2-3.17,6.72,6.72,0,0,0-5.62,2c-.7.68-1.16.72-1.78-.11a5.17,5.17,0,0,0-4.23-1.93,6.88,6.88,0,0,0-4.64,1.88c-.44.36-1,1-1.21-.24-.22-1.57-1.41-1.31-2.43-1.27s-1.35.84-1.35,1.79v7.08h0V191c0,.59-.09,1.31.56,1.61a3.91,3.91,0,0,0,3.08,0c.87-.33.78-1.21.78-2v-8a4.25,4.25,0,0,1,3.58-4c1.68-.06,2.66,1.26,2.78,3.77v8.44c0,1.65.42,2,2.27,2s2.13-.32,2.15-1.93v-8.59A4.14,4.14,0,0,1,1118.36,178.71Z"/>
            <path class="cls-21"
                  d="M1107.36,197.54c-1.93,0-3,1.15-3,3.33a2.56,2.56,0,0,0,2.9,2.86,2.9,2.9,0,0,0,3-3.22,2.78,2.78,0,0,0-2.58-3Z"/>
            <path class="cls-21"
                  d="M1096.71,185.63c0-1.86.07-3.72,0-5.58a5,5,0,0,0-4.61-5.11,14.73,14.73,0,0,0-6.28.35,4.66,4.66,0,0,0-2.56,1.5,1.83,1.83,0,0,0-.18,2.25c.52.77,1.24.42,1.9.17s1.21-.5,1.83-.69a6.4,6.4,0,0,1,3.56-.26,2.74,2.74,0,0,1,2,3.12c-.19,1.53-1.42,1-2.25,1a14.31,14.31,0,0,0-4.73.77c-2.72,1-3.81,3-3.35,5.95a5,5,0,0,0,4.8,4,6.79,6.79,0,0,0,5-1.25c.56-.44,1-.8,1.46.23s1.53.76,2.4.67,1-.83,1-1.57v-5.55Zm-7.93,4.4a2.16,2.16,0,0,1-2.39-1.82,2.32,2.32,0,0,1,1.78-2.76l.11,0a12.67,12.67,0,0,1,3.28-.16c.75,0,.86.53.88,1.13A3.52,3.52,0,0,1,1089,190h-.22Z"/>
            <path class="cls-21"
                  d="M1101.84,202.46c-1.86.1-2.77-.76-2.81-2.64,0-2.16.88-3.22,2.8-3.18.44,0,1.06.17,1.14-.39s-.61-.7-1.06-.8c-2.55-.56-4.51,1.29-4.49,4.22s1.88,4.54,4.5,4c.47-.1,1.15-.15,1.06-.81S1102.28,202.44,1101.84,202.46Z"/>
            <path class="cls-21"
                  d="M1137.36,183.5c-1.42-1-3.15-1.3-4.62-2.17-.73-.43-1.33-1-1.09-1.93a1.88,1.88,0,0,1,1.71-1.4,5.57,5.57,0,0,1,3.38.5c1.6.81,2,.09,1.84-1.55a1.9,1.9,0,0,0-1.53-1.66,10.47,10.47,0,0,0-5.79-.16,5.06,5.06,0,0,0-3.95,4.25c-.28,2.4.5,3.92,2.8,5.15,1.24.66,2.56,1.17,3.81,1.79a1.8,1.8,0,0,1,1.13,2.07,1.89,1.89,0,0,1-1.71,1.47,7.18,7.18,0,0,1-4.11-.6c-.54-.21-1.1-.72-1.67-.2s-.36,1.21-.29,1.86a2,2,0,0,0,1.4,1.61,9.68,9.68,0,0,0,4,.65,8.18,8.18,0,0,0,4.07-.88,4.84,4.84,0,0,0,2.77-4.17A4.7,4.7,0,0,0,1137.36,183.5Z"/>
            <path class="cls-21"
                  d="M1092.58,197.74c-.56-.23-.84.2-1,.63-.28.75-.51,1.52-.76,2.28-.08.24-.14.52-.44.54s-.39-.27-.48-.49c-.29-.74-.56-1.5-.86-2.24-.15-.37-.35-.74-.86-.75-.62.18-.5.67-.37,1.09.39,1.24.82,2.47,1.24,3.7a3.18,3.18,0,0,1,.33,1.89c-.13.49-.59,1.14.29,1.34.68.16.95-.44,1.13-1q1-3,2-6C1092.95,198.39,1093.07,197.94,1092.58,197.74Z"/>
            <path class="cls-21"
                  d="M1076.18,198.06a2.63,2.63,0,0,0-3-.18,2.38,2.38,0,0,0-1.32,2.85c.09,2.32,1.44,3.41,3.61,3,.39-.08.92-.13.9-.61s-.59-.39-.95-.37c-.88.07-2,.13-2-1s1.2-.62,1.87-.76,1.51.13,1.7-.82A2,2,0,0,0,1076.18,198.06Z"/>
            <path class="cls-21"
                  d="M1080.36,191V176.87c0-1.71-1.12-1.74-2.34-1.77s-2.16.22-2.12,1.8c.06,2.35,0,4.71,0,7.07v6.92c0,1.6.44,2,2.14,2S1080.36,192.52,1080.36,191Z"/>
            <path class="cls-21"
                  d="M1073.48,190.8V169.1c0-1.53-.58-2-2.16-2s-2.24.46-2.25,2.07V180h0v10.7c0,1.86.29,2.13,2.05,2.15S1073.47,192.52,1073.48,190.8Z"/>
            <path class="cls-21"
                  d="M1086.25,198.64a2.9,2.9,0,0,0,.33-.37c-.15-.81-1-.55-1.28-1s-.42-1.35-1.06-.89-1.43,1.46-1,2.11c.71,1.2.49,2.42.66,3.63a1.57,1.57,0,0,0,1.56,1.58l.27,0a.69.69,0,0,0,.68-.5c.08-.31-.22-.39-.4-.55a2.5,2.5,0,0,1,.24-4Z"/>
            <path class="cls-21"
                  d="M1068.78,200.76c-.08.9-.2,1.75-1.2,1.7-1.15-.06-1.42-.94-1.35-1.95s.38-1.7,1.35-1.67C1068.88,198.87,1068.67,200,1068.78,200.76Z"/>
            <path class="cls-21"
                  d="M1061.73,200.57c-.12,1-.3,2-1.47,2s-1.54-.92-1.55-1.95.25-1.87,1.42-1.92S1061.57,199.67,1061.73,200.57Z"/>
            <path class="cls-21"
                  d="M1105.74,200.7c.07-1.07.29-2,1.47-2s1.55,1,1.52,2-.32,1.89-1.48,1.89S1105.84,201.57,1105.74,200.7Z"/>
        </g>
    </g>
</svg>