<svg id="ourResultsPic" class="img-fluid mx-auto d-block" xmlns="http://www.w3.org/2000/svg"
     xmlns:xlink="http://www.w3.org/1999/xlink" width="1798.72" height="698.08"
     viewBox="0 0 1798.72 698.08">
    <defs>
        <style>
            #ourResultsPic .cls-1,#ourResultsPic .cls-78,#ourResultsPic .cls-80,#ourResultsPic .cls-81,#ourResultsPic .cls-82{fill:none;}#ourResultsPic .cls-2{fill:#020320;}#ourResultsPic .cls-3{fill:url(#noname__gradient_67);}#ourResultsPic .cls-4{fill:url(#noname__gradient_67-2);}#ourResultsPic .cls-5{fill:url(#noname__gradient_67-3);}#ourResultsPic .cls-6{fill:url(#noname__gradient_67-4);}#ourResultsPic .cls-7{fill:url(#noname__gradient_67-5);}#ourResultsPic .cls-8{fill:url(#noname__gradient_67-6);}#ourResultsPic .cls-9{fill:url(#noname__gradient_67-7);}#ourResultsPic .cls-10{fill:url(#noname__gradient_67-8);}#ourResultsPic .cls-11{fill:url(#noname__gradient_67-9);}#ourResultsPic .cls-12{fill:url(#noname__gradient_67-10);}#ourResultsPic .cls-13{fill:url(#noname__gradient_67-11);}#ourResultsPic .cls-14{fill:url(#noname__gradient_67-12);}#ourResultsPic .cls-15{fill:url(#noname__gradient_67-13);}#ourResultsPic .cls-16{fill:url(#noname__gradient_67-14);}#ourResultsPic .cls-17{fill:url(#noname__gradient_67-15);}#ourResultsPic .cls-18{fill:url(#noname__gradient_67-16);}#ourResultsPic .cls-19{fill:url(#noname__gradient_67-17);}#ourResultsPic .cls-20{fill:url(#noname__gradient_67-18);}#ourResultsPic .cls-21{fill:url(#noname__gradient_67-19);}#ourResultsPic .cls-22{fill:url(#noname__gradient_67-20);}#ourResultsPic .cls-23{fill:url(#noname__gradient_67-21);}#ourResultsPic .cls-24{fill:url(#noname__gradient_67-22);}#ourResultsPic .cls-25{fill:url(#noname__gradient_67-23);}#ourResultsPic .cls-26{fill:url(#noname__gradient_67-24);}#ourResultsPic .cls-27{fill:url(#noname__gradient_67-25);}#ourResultsPic .cls-28{fill:url(#noname__gradient_67-26);}#ourResultsPic .cls-29{fill:url(#noname__gradient_67-27);}#ourResultsPic .cls-30{fill:url(#noname__gradient_67-28);}#ourResultsPic .cls-31{fill:url(#noname__gradient_67-29);}#ourResultsPic .cls-32{fill:url(#noname__gradient_67-30);}#ourResultsPic .cls-33{fill:url(#noname__gradient_67-31);}#ourResultsPic .cls-34{fill:url(#noname__gradient_67-32);}#ourResultsPic .cls-35{fill:url(#noname__gradient_67-33);}#ourResultsPic .cls-36{fill:url(#noname__gradient_67-34);}#ourResultsPic .cls-37{fill:url(#noname__gradient_67-35);}#ourResultsPic .cls-38{fill:url(#noname__gradient_67-36);}#ourResultsPic .cls-39{fill:url(#noname__gradient_67-37);}#ourResultsPic .cls-40{fill:url(#noname__gradient_67-38);}#ourResultsPic .cls-41{fill:url(#noname__gradient_67-39);}#ourResultsPic .cls-42{fill:url(#noname__gradient_67-40);}#ourResultsPic .cls-43{fill:url(#noname__gradient_67-41);}#ourResultsPic .cls-44{fill:url(#noname__gradient_67-42);}#ourResultsPic .cls-45{fill:url(#noname__gradient_67-43);}#ourResultsPic .cls-46{fill:url(#noname__gradient_67-44);}#ourResultsPic .cls-47{fill:url(#noname__gradient_67-45);}#ourResultsPic .cls-48{fill:url(#noname__gradient_67-46);}#ourResultsPic .cls-49{fill:url(#noname__gradient_67-47);}#ourResultsPic .cls-50{fill:url(#noname__gradient_67-48);}#ourResultsPic .cls-51{fill:url(#noname__gradient_67-49);}#ourResultsPic .cls-52{fill:url(#noname__gradient_67-50);}#ourResultsPic .cls-53{fill:url(#noname__gradient_67-51);}#ourResultsPic .cls-54{fill:url(#noname__gradient_67-52);}#ourResultsPic .cls-55{fill:url(#noname__gradient_67-53);}#ourResultsPic .cls-56,#ourResultsPic .cls-57,#ourResultsPic .cls-68{opacity:0.1;}#ourResultsPic .cls-56,#ourResultsPic .cls-57,#ourResultsPic .cls-68,#ourResultsPic .cls-70,#ourResultsPic .cls-71,#ourResultsPic .cls-72,#ourResultsPic .cls-73,#ourResultsPic .cls-74,#ourResultsPic .cls-75,#ourResultsPic .cls-76,#ourResultsPic .cls-77,#ourResultsPic .cls-78,#ourResultsPic .cls-80,#ourResultsPic .cls-81,#ourResultsPic .cls-82{isolation:isolate;}#ourResultsPic .cls-56{fill:url(#noname__gradient_66);}#ourResultsPic .cls-57{fill:url(#noname__gradient_66-2);}#ourResultsPic .cls-58{fill:url(#noname__gradient_67-54);}#ourResultsPic .cls-59{opacity:0.7;}#ourResultsPic .cls-60{opacity:0.05;}#ourResultsPic .cls-61{fill:url(#noname__gradient_8);}#ourResultsPic .cls-62{fill:url(#noname__gradient_8-2);}#ourResultsPic .cls-63{fill:url(#noname__gradient_8-3);}#ourResultsPic .cls-64{fill:url(#noname__gradient_8-4);}#ourResultsPic .cls-65{fill:url(#noname__gradient_8-5);}#ourResultsPic .cls-66{fill:url(#noname__gradient_8-6);}#ourResultsPic .cls-67{fill:url(#noname__gradient_8-7);}#ourResultsPic .cls-68,#ourResultsPic .cls-69,#ourResultsPic .cls-71{fill:#1245fb;}#ourResultsPic .cls-71,#ourResultsPic .cls-72{font-size:24.21px;font-family:ProximaNova-Bold,
            Proxima
            Nova;font-weight:700;}#ourResultsPic .cls-72,#ourResultsPic .cls-74,#ourResultsPic .cls-75,#ourResultsPic .cls-76,#ourResultsPic .cls-77,#ourResultsPic .cls-79{fill:#fff;}#ourResultsPic .cls-73,#ourResultsPic .cls-76{opacity:0.5;}#ourResultsPic .cls-74,#ourResultsPic .cls-75,#ourResultsPic .cls-76,#ourResultsPic .cls-77{font-size:18.16px;font-family:ProximaNova-Light,
            Proxima
            Nova;}#ourResultsPic .cls-74{letter-spacing:-0.03em;}#ourResultsPic .cls-77{letter-spacing:-0.03em;}#ourResultsPic .cls-78{stroke:#607393;opacity:0.2;}#ourResultsPic .cls-78,#ourResultsPic .cls-80,#ourResultsPic .cls-81,#ourResultsPic .cls-82{stroke-miterlimit:10;}#ourResultsPic .cls-80,#ourResultsPic .cls-81,#ourResultsPic .cls-82{opacity:0.35;}#ourResultsPic .cls-80{stroke:url(#noname__gradient_11);}#ourResultsPic .cls-81{stroke:url(#noname__gradient_11-2);}#ourResultsPic .cls-82{stroke:url(#noname__gradient_11-3);}
        </style>
        <linearGradient id="noname__gradient_67" x1="-261.14" y1="266.48" x2="2058.3" y2="266.48"
                        gradientTransform="matrix(1, 0, 0, -1, 0, 700)" gradientUnits="userSpaceOnUse">
            <stop offset="0" stop-color="#134cf9"/>
            <stop offset="1" stop-color="#5092eb"/>
        </linearGradient>
        <linearGradient id="noname__gradient_67-2" x1="-261.14" y1="258.41" x2="2058.3" y2="258.41"
                        xlink:href="#noname__gradient_67"/>
        <linearGradient id="noname__gradient_67-3" x1="-261.14" y1="258.13" x2="2058.3" y2="258.13"
                        xlink:href="#noname__gradient_67"/>
        <linearGradient id="noname__gradient_67-4" x1="-261.14" y1="267.88" x2="1878.5" y2="267.88"
                        xlink:href="#noname__gradient_67"/>
        <linearGradient id="noname__gradient_67-5" x1="-261.14" y1="260.28" x2="2058.3" y2="260.28"
                        xlink:href="#noname__gradient_67"/>
        <linearGradient id="noname__gradient_67-6" x1="-261.14" y1="259.49" x2="2058.3" y2="259.49"
                        xlink:href="#noname__gradient_67"/>
        <linearGradient id="noname__gradient_67-7" x1="-261.14" y1="258.82" x2="2058.3" y2="258.82"
                        xlink:href="#noname__gradient_67"/>
        <linearGradient id="noname__gradient_67-8" x1="-261.14" y1="260.99" x2="2029.38" y2="260.99"
                        xlink:href="#noname__gradient_67"/>
        <linearGradient id="noname__gradient_67-9" x1="-261.14" y1="267.91" x2="1498.63" y2="267.91"
                        xlink:href="#noname__gradient_67"/>
        <linearGradient id="noname__gradient_67-10" x1="-261.14" y1="261" x2="516.2" y2="261"
                        xlink:href="#noname__gradient_67"/>
        <linearGradient id="noname__gradient_67-11" x1="-261.14" y1="267.57" x2="1309.17" y2="267.57"
                        xlink:href="#noname__gradient_67"/>
        <linearGradient id="noname__gradient_67-12" x1="-261.14" y1="266.55" x2="2058.3" y2="266.55"
                        xlink:href="#noname__gradient_67"/>
        <linearGradient id="noname__gradient_67-13" x1="-261.14" y1="267.62" x2="1895.11" y2="267.62"
                        xlink:href="#noname__gradient_67"/>
        <linearGradient id="noname__gradient_67-14" x1="-261.14" y1="267.06" x2="2058.3" y2="267.06"
                        xlink:href="#noname__gradient_67"/>
        <linearGradient id="noname__gradient_67-15" x1="-261.14" y1="265.8" x2="2027.92" y2="265.8"
                        xlink:href="#noname__gradient_67"/>
        <linearGradient id="noname__gradient_67-16" x1="-261.14" y1="258.39" x2="1795.5" y2="258.39"
                        xlink:href="#noname__gradient_67"/>
        <linearGradient id="noname__gradient_67-17" x1="-261.14" y1="258.12" x2="1818.94" y2="258.12"
                        xlink:href="#noname__gradient_67"/>
        <linearGradient id="noname__gradient_67-18" x1="-261.14" y1="258.83" x2="459.07" y2="258.83"
                        xlink:href="#noname__gradient_67"/>
        <linearGradient id="noname__gradient_67-19" x1="-261.14" y1="267.14" x2="2058.3" y2="267.14"
                        xlink:href="#noname__gradient_67"/>
        <linearGradient id="noname__gradient_67-20" x1="-261.14" y1="260.19" x2="1241.78" y2="260.19"
                        xlink:href="#noname__gradient_67"/>
        <linearGradient id="noname__gradient_67-21" x1="-261.14" y1="259.51" x2="1408.78" y2="259.51"
                        xlink:href="#noname__gradient_67"/>
        <linearGradient id="noname__gradient_67-22" x1="-3.43" y1="303.01" x2="1800.58" y2="303.01"
                        xlink:href="#noname__gradient_67"/>
        <linearGradient id="noname__gradient_67-23" x1="-3.43" y1="301.5" x2="1800.58" y2="301.5"
                        xlink:href="#noname__gradient_67"/>
        <linearGradient id="noname__gradient_67-24" x1="-3.43" y1="294.39" x2="1800.58" y2="294.39"
                        xlink:href="#noname__gradient_67"/>
        <linearGradient id="noname__gradient_67-25" x1="-3.43" y1="302.4" x2="1800.58" y2="302.4"
                        xlink:href="#noname__gradient_67"/>
        <linearGradient id="noname__gradient_67-26" x1="-3.43" y1="303.5" x2="1800.58" y2="303.5"
                        xlink:href="#noname__gradient_67"/>
        <linearGradient id="noname__gradient_67-27" x1="-3.43" y1="294.12" x2="1196.77" y2="294.12"
                        xlink:href="#noname__gradient_67"/>
        <linearGradient id="noname__gradient_67-28" x1="-3.43" y1="294.39" x2="1800.58" y2="294.39"
                        xlink:href="#noname__gradient_67"/>
        <linearGradient id="noname__gradient_67-29" x1="-3.43" y1="303.84" x2="1800.58" y2="303.84"
                        xlink:href="#noname__gradient_67"/>
        <linearGradient id="noname__gradient_67-30" x1="-3.43" y1="294.13" x2="1800.58" y2="294.13"
                        xlink:href="#noname__gradient_67"/>
        <linearGradient id="noname__gradient_67-31" x1="-261.14" y1="251.12" x2="778.84" y2="251.12"
                        xlink:href="#noname__gradient_67"/>
        <linearGradient id="noname__gradient_67-32" x1="-261.14" y1="251.4" x2="1898.83" y2="251.4"
                        xlink:href="#noname__gradient_67"/>
        <linearGradient id="noname__gradient_67-33" x1="-261.14" y1="251.87" x2="2058.3" y2="251.87"
                        xlink:href="#noname__gradient_67"/>
        <linearGradient id="noname__gradient_67-34" x1="-261.14" y1="252.35" x2="2058.3" y2="252.35"
                        xlink:href="#noname__gradient_67"/>
        <linearGradient id="noname__gradient_67-35" x1="-261.14" y1="260.51" x2="2058.3" y2="260.51"
                        xlink:href="#noname__gradient_67"/>
        <linearGradient id="noname__gradient_67-36" x1="-261.14" y1="258.65" x2="2058.3" y2="258.65"
                        xlink:href="#noname__gradient_67"/>
        <linearGradient id="noname__gradient_67-37" x1="-261.14" y1="257.89" x2="2058.3" y2="257.89"
                        xlink:href="#noname__gradient_67"/>
        <linearGradient id="noname__gradient_67-38" x1="-261.14" y1="260.02" x2="2058.3" y2="260.02"
                        xlink:href="#noname__gradient_67"/>
        <linearGradient id="noname__gradient_67-39" x1="-261.14" y1="259.4" x2="2058.3" y2="259.4"
                        xlink:href="#noname__gradient_67"/>
        <linearGradient id="noname__gradient_67-40" x1="-261.14" y1="260.85" x2="2058.3" y2="260.85"
                        xlink:href="#noname__gradient_67"/>
        <linearGradient id="noname__gradient_67-41" x1="-261.14" y1="254.08" x2="906.34" y2="254.08"
                        xlink:href="#noname__gradient_67"/>
        <linearGradient id="noname__gradient_67-42" x1="-261.14" y1="254.95" x2="298.86" y2="254.95"
                        xlink:href="#noname__gradient_67"/>
        <linearGradient id="noname__gradient_67-43" x1="-261.14" y1="191.87" x2="2058.3" y2="191.87"
                        xlink:href="#noname__gradient_67"/>
        <linearGradient id="noname__gradient_67-44" x1="-261.14" y1="199.5" x2="2058.3" y2="199.5"
                        xlink:href="#noname__gradient_67"/>
        <linearGradient id="noname__gradient_67-45" x1="-261.14" y1="200.5" x2="2058.3" y2="200.5"
                        xlink:href="#noname__gradient_67"/>
        <linearGradient id="noname__gradient_67-46" x1="-261.14" y1="200.13" x2="2058.3" y2="200.13"
                        xlink:href="#noname__gradient_67"/>
        <linearGradient id="noname__gradient_67-47" x1="-261.14" y1="193.41" x2="2058.3" y2="193.41"
                        xlink:href="#noname__gradient_67"/>
        <linearGradient id="noname__gradient_67-48" x1="-261.14" y1="191.43" x2="2058.3" y2="191.43"
                        xlink:href="#noname__gradient_67"/>
        <linearGradient id="noname__gradient_67-49" x1="-261.14" y1="200.82" x2="2058.3" y2="200.82"
                        xlink:href="#noname__gradient_67"/>
        <linearGradient id="noname__gradient_67-50" x1="-261.14" y1="200.06" x2="2058.3" y2="200.06"
                        xlink:href="#noname__gradient_67"/>
        <linearGradient id="noname__gradient_67-51" x1="-261.14" y1="191.14" x2="2058.3" y2="191.14"
                        xlink:href="#noname__gradient_67"/>
        <linearGradient id="noname__gradient_67-52" x1="-261.14" y1="200.57" x2="1418.91" y2="200.57"
                        xlink:href="#noname__gradient_67"/>
        <linearGradient id="noname__gradient_67-53" x1="-261.14" y1="200.91" x2="1578.83" y2="200.91"
                        xlink:href="#noname__gradient_67"/>
        <linearGradient id="noname__gradient_66" x1="899.36" y1="304.32" x2="899.36" y2="81.47"
                        gradientTransform="matrix(1, 0, 0, -1, 0, 700)" gradientUnits="userSpaceOnUse">
            <stop offset="0" stop-color="#134cf9"/>
            <stop offset="1" stop-color="#5092eb" stop-opacity="0"/>
        </linearGradient>
        <linearGradient id="noname__gradient_66-2" x1="1591.62" y1="83.3" x2="1591.62" y2="82.72"
                        xlink:href="#noname__gradient_66"/>
        <linearGradient id="noname__gradient_67-54" x1="-256.9" y1="206.77" x2="2055.17" y2="206.77"
                        xlink:href="#noname__gradient_67"/>
        <linearGradient id="noname__gradient_8" x1="170.88" y1="174.5" x2="1626.38" y2="174.5"
                        gradientTransform="matrix(1, 0, 0, -1, 0, 700)" gradientUnits="userSpaceOnUse">
            <stop offset="0" stop-color="#607393" stop-opacity="0"/>
            <stop offset="0.5" stop-color="#607393" stop-opacity="0.52"/>
            <stop offset="0.72" stop-color="#607393" stop-opacity="0.28"/>
            <stop offset="1" stop-color="#607393" stop-opacity="0"/>
        </linearGradient>
        <linearGradient id="noname__gradient_8-2" x1="170.88" y1="251.5" x2="1626.38" y2="251.5"
                        xlink:href="#noname__gradient_8"/>
        <linearGradient id="noname__gradient_8-3" x1="170.88" y1="328.5" x2="1626.38" y2="328.5"
                        xlink:href="#noname__gradient_8"/>
        <linearGradient id="noname__gradient_8-4" x1="170.88" y1="405.5" x2="1626.38" y2="405.5"
                        xlink:href="#noname__gradient_8"/>
        <linearGradient id="noname__gradient_8-5" x1="170.88" y1="482.5" x2="1626.38" y2="482.5"
                        xlink:href="#noname__gradient_8"/>
        <linearGradient id="noname__gradient_8-6" x1="170.88" y1="559.5" x2="1626.38" y2="559.5"
                        xlink:href="#noname__gradient_8"/>
        <linearGradient id="noname__gradient_8-7" x1="170.88" y1="97.5" x2="1626.38" y2="97.5"
                        xlink:href="#noname__gradient_8"/>
        <linearGradient id="noname__gradient_11" x1="760.47" y1="671" x2="760.47" y2="344.5"
                        gradientTransform="matrix(1, 0, 0, -1, 0, 700)" gradientUnits="userSpaceOnUse">
            <stop offset="0.01" stop-color="#607393"/>
            <stop offset="0.18" stop-color="#607393" stop-opacity="0.98"/>
            <stop offset="0.34" stop-color="#607393" stop-opacity="0.9"/>
            <stop offset="0.5" stop-color="#607393" stop-opacity="0.77"/>
            <stop offset="0.65" stop-color="#607393" stop-opacity="0.59"/>
            <stop offset="0.8" stop-color="#607393" stop-opacity="0.36"/>
            <stop offset="0.94" stop-color="#607393" stop-opacity="0.09"/>
            <stop offset="0.98" stop-color="#607393" stop-opacity="0"/>
        </linearGradient>
        <linearGradient id="noname__gradient_11-2" x1="382.87" y1="514.5" x2="382.87" y2="215.5"
                        xlink:href="#noname__gradient_11"/>
        <linearGradient id="noname__gradient_11-3" x1="1141.87" y1="-1265.39" x2="1141.87" y2="-1728.59"
                        gradientTransform="matrix(1, 0, 0, -0.58, 0, -554.14)" xlink:href="#noname__gradient_11"/>
    </defs>
    <g>
        <g>
            <path class="cls-1" d="M634.72,440.38a5,5,0,0,1-.36-.44A5,5,0,0,0,634.72,440.38Z"/>
            <polygon class="cls-1" points="633.76 438.91 633.76 438.91 633.76 438.91 633.76 438.91"/>
            <path class="cls-1" d="M634.17,439.68a5,5,0,0,1-.31-.57A5,5,0,0,0,634.17,439.68Z"/>
            <path class="cls-1" d="M635.58,441.14a5,5,0,0,1-.65-.53A5,5,0,0,0,635.58,441.14Z"/>
            <path class="cls-1" d="M635.71,432.79a5,5,0,0,1,.66-.36A5,5,0,0,0,635.71,432.79Z"/>
            <path class="cls-1" d="M636.34,441.55a5,5,0,0,1-.67-.37A5,5,0,0,0,636.34,441.55Z"/>
            <path class="cls-1" d="M635.1,433.26l.22-.18Z"/>
            <path class="cls-1" d="M636.63,432.33a5,5,0,0,1,.59-.18A4.88,4.88,0,0,0,636.63,432.33Z"/>
            <path class="cls-1" d="M634.69,433.65Z"/>
            <path class="cls-1" d="M642.36,440l-.08.1Z"/>
            <path class="cls-1" d="M640.9,441.29l-.42.23A4.16,4.16,0,0,0,640.9,441.29Z"/>
            <path class="cls-1" d="M641.44,440.93l-.18.15Z"/>
            <path class="cls-1" d="M642.78,439.32l-.06.11Z"/>
            <path class="cls-1" d="M638.38,442a5,5,0,0,1-.91-.09A5,5,0,0,0,638.38,442Z"/>
            <path class="cls-1" d="M640.14,441.66a5,5,0,0,1-.55.17A4.89,4.89,0,0,0,640.14,441.66Z"/>
            <path class="cls-1" d="M637.24,441.85a5,5,0,0,1-.61-.19A4.92,4.92,0,0,0,637.24,441.85Z"/>
            <path class="cls-1" d="M639.29,441.91a5,5,0,0,1-.91.09A4.93,4.93,0,0,0,639.29,441.91Z"/>
            <polygon class="cls-1" points="643.07 438.69 643.07 438.69 643.07 438.69 643.07 438.69"/>
            <path class="cls-1" d="M640.48,432.48a5,5,0,0,1,.52.28A5,5,0,0,0,640.48,432.48Z"/>
            <path class="cls-1" d="M639.49,432.13a5,5,0,0,1,.79.24A4.91,4.91,0,0,0,639.49,432.13Z"/>
            <path class="cls-1" d="M642.13,433.73l.2.24Z"/>
            <path class="cls-1" d="M641.3,433a5,5,0,0,1,.41.34A5.08,5.08,0,0,0,641.3,433Z"/>
            <polygon class="cls-1" points="642.61 434.37 642.61 434.37 642.61 434.37 642.61 434.37"/>
            <path class="cls-1" d="M637.49,432.09a5,5,0,0,1,.89-.09A4.91,4.91,0,0,0,637.49,432.09Z"/>
            <path class="cls-1" d="M638.38,432a5,5,0,0,1,.89.09A4.92,4.92,0,0,0,638.38,432Z"/>
            <path class="cls-2"
                  d="M633.76,438.91h0c0,.07.07.13.1.19a5,5,0,0,0,.31.57l.19.27a5,5,0,0,0,.36.44l.21.22a5,5,0,0,0,.65.53l.09,0a5,5,0,0,0,.67.37l.26.1a5,5,0,0,0,.61.19l.26.06a4.55,4.55,0,0,0,1.82,0l.3-.07a5,5,0,0,0,.55-.17l.34-.14a4.16,4.16,0,0,0,.42-.23l.36-.22.18-.15a5,5,0,0,0,.84-.83l.08-.1a5.06,5.06,0,0,0,.36-.56l.06-.11a5,5,0,0,0,.29-.64h0l-3.59,2Z"/>
            <path class="cls-2"
                  d="M639,436.35l3.58-2h0c-.09-.14-.19-.27-.29-.4l-.2-.24a5.08,5.08,0,0,0-.42-.43,5,5,0,0,0-.41-.34l-.3-.2a5,5,0,0,0-.52-.28l-.2-.1a5,5,0,0,0-.79-.24h-.22a4.45,4.45,0,0,0-1.78,0l-.27.06a5,5,0,0,0-.59.18l-.27.1a5,5,0,0,0-.66.36l-.39.28-.22.18a5.05,5.05,0,0,0-.4.39h0a5.1,5.1,0,0,0-.77,1.13Z"/>
            <path class="cls-2" d="M642.13,433.73a5,5,0,0,0-.42-.43A5.08,5.08,0,0,1,642.13,433.73Z"/>
            <path class="cls-3" d="M642.13,433.73a5,5,0,0,0-.42-.43A5.08,5.08,0,0,1,642.13,433.73Z"/>
            <path class="cls-2" d="M640.48,441.52l-.34.14Z"/>
            <path class="cls-4" d="M640.48,441.52l-.34.14Z"/>
            <path class="cls-2" d="M639.59,441.84l-.3.07Z"/>
            <path class="cls-5" d="M639.59,441.84l-.3.07Z"/>
            <path class="cls-2" d="M637.24,432.15l.27-.06Z"/>
            <path class="cls-6" d="M637.24,432.15l.27-.06Z"/>
            <path class="cls-2" d="M642.72,439.44a5.06,5.06,0,0,1-.36.56A5,5,0,0,0,642.72,439.44Z"/>
            <path class="cls-7" d="M642.72,439.44a5.06,5.06,0,0,1-.36.56A5,5,0,0,0,642.72,439.44Z"/>
            <path class="cls-2"
                  d="M642.61,434.37l-3.58,2-5.11-1.57a5.1,5.1,0,0,1,.77-1.12,4.94,4.94,0,0,0-.93,5.26l5.72,1.76,3.59-2a4.82,4.82,0,0,0-.46-4.32Z"/>
            <path class="cls-2" d="M641.44,440.93a5,5,0,0,0,.84-.83A5,5,0,0,1,641.44,440.93Z"/>
            <path class="cls-8" d="M641.44,440.93a5,5,0,0,0,.84-.83A5,5,0,0,1,641.44,440.93Z"/>
            <path class="cls-2" d="M641.24,441.07c-.11.08-.24.15-.36.22A1.71,1.71,0,0,0,641.24,441.07Z"/>
            <path class="cls-9" d="M641.24,441.07c-.11.08-.24.15-.36.22A1.71,1.71,0,0,0,641.24,441.07Z"/>
            <path class="cls-2" d="M643.07,438.69a5,5,0,0,1-.29.64A4.93,4.93,0,0,0,643.07,438.69Z"/>
            <path class="cls-10" d="M643.07,438.69a5,5,0,0,1-.29.64A4.93,4.93,0,0,0,643.07,438.69Z"/>
            <path class="cls-2" d="M639.24,432.09h0Z"/>
            <path class="cls-11" d="M639.24,432.09h0Z"/>
            <path class="cls-2" d="M633.86,439.1c0-.07-.07-.13-.1-.19S633.83,439,633.86,439.1Z"/>
            <path class="cls-12" d="M633.86,439.1c0-.07-.07-.13-.1-.19S633.83,439,633.86,439.1Z"/>
            <path class="cls-2" d="M640.24,432.38l.2.1Z"/>
            <path class="cls-13" d="M640.24,432.38l.2.1Z"/>
            <path class="cls-2" d="M634.69,433.65a5.05,5.05,0,0,1,.4-.39A5,5,0,0,0,634.69,433.65Z"/>
            <path class="cls-14" d="M634.69,433.65a5.05,5.05,0,0,1,.4-.39A5,5,0,0,0,634.69,433.65Z"/>
            <path class="cls-2" d="M636.36,432.43l.27-.1Z"/>
            <path class="cls-15" d="M636.36,432.43l.27-.1Z"/>
            <path class="cls-2" d="M635.32,433.08a3.48,3.48,0,0,1,.39-.28C635.57,432.88,635.45,433,635.32,433.08Z"/>
            <path class="cls-16" d="M635.32,433.08a3.48,3.48,0,0,1,.39-.28C635.57,432.88,635.45,433,635.32,433.08Z"/>
            <path class="cls-2" d="M642.33,434c.1.13.2.26.29.4A2,2,0,0,0,642.33,434Z"/>
            <path class="cls-17" d="M642.33,434c.1.13.2.26.29.4A2,2,0,0,0,642.33,434Z"/>
            <path class="cls-2" d="M636.6,441.66l-.26-.1Z"/>
            <path class="cls-18" d="M636.6,441.66l-.26-.1Z"/>
            <path class="cls-2" d="M637.47,441.91l-.26-.06Z"/>
            <path class="cls-19" d="M637.47,441.91l-.26-.06Z"/>
            <path class="cls-2" d="M635.67,441.19l-.09,0Z"/>
            <path class="cls-20" d="M635.67,441.19l-.09,0Z"/>
            <path class="cls-2" d="M641,432.76l.3.2Z"/>
            <path class="cls-21" d="M641,432.76l.3.2Z"/>
            <path class="cls-2" d="M634.36,439.94l-.19-.27Z"/>
            <path class="cls-22" d="M634.36,439.94l-.19-.27Z"/>
            <path class="cls-2" d="M634.93,440.6l-.21-.22Z"/>
            <path class="cls-23" d="M634.93,440.6l-.21-.22Z"/>
            <path class="cls-1" d="M515.32,405.54a5,5,0,0,1-.55-.3A5,5,0,0,0,515.32,405.54Z"/>
            <path class="cls-1" d="M519.77,396.63l.27.15Z"/>
            <path class="cls-1" d="M517.38,396a5,5,0,0,1,1,.1A5,5,0,0,0,517.38,396Z"/>
            <path class="cls-1" d="M518.76,396.22l.48.15Z"/>
            <path class="cls-1" d="M512.45,401.72a5,5,0,0,1-.07-.72A4.89,4.89,0,0,0,512.45,401.72Z"/>
            <path class="cls-1" d="M520,405.26a5,5,0,0,1-.51.28A5,5,0,0,0,520,405.26Z"/>
            <path class="cls-1" d="M519.15,405.66a4.94,4.94,0,0,1-.72.22A4.85,4.85,0,0,0,519.15,405.66Z"/>
            <path class="cls-1" d="M518.24,405.91a5,5,0,0,1-.91.09A4.87,4.87,0,0,0,518.24,405.91Z"/>
            <path class="cls-1" d="M516.24,405.84a5,5,0,0,1-.57-.18A4.92,4.92,0,0,0,516.24,405.84Z"/>
            <path class="cls-1" d="M517.38,406a5,5,0,0,1-.9-.09A5,5,0,0,0,517.38,406Z"/>
            <path class="cls-1" d="M521.24,397.91Z"/>
            <path class="cls-1"
                  d="M642.61,434.37c-.09-.14-.19-.27-.29-.4l-.2-.24a5,5,0,0,0-.42-.43,5.08,5.08,0,0,0-.41-.34l-.3-.2a5,5,0,0,0-.52-.28l-.2-.1a4.91,4.91,0,0,0-.79-.24h-.22a4.45,4.45,0,0,0-1.78,0l-.27.06a4.88,4.88,0,0,0-.59.18l-.27.1a5,5,0,0,0-.66.36c-.14.09-.26.19-.39.28l-.22.18a5,5,0,0,0-.4.39h0a4.94,4.94,0,0,0-.93,5.26h0c0,.07.07.13.1.19a5,5,0,0,0,.31.57l.19.27a5,5,0,0,0,.36.44l.21.22a5,5,0,0,0,.65.53l.09,0a5,5,0,0,0,.67.37l.26.1a4.92,4.92,0,0,0,.61.19l.26.06a4.55,4.55,0,0,0,1.82,0l.3-.07a4.89,4.89,0,0,0,.55-.17l.34-.14a4.16,4.16,0,0,0,.42-.23l.36-.22.18-.15a5,5,0,0,0,.84-.83l.08-.1a5,5,0,0,0,.36-.56l.06-.11a4.93,4.93,0,0,0,.29-.64h0a4.82,4.82,0,0,0-.46-4.32Z"/>
            <path class="cls-1" d="M520.6,397.21l.13.11Z"/>
            <path class="cls-2" d="M520,396.78a5,5,0,0,1,.57.43A5,5,0,0,0,520,396.78Z"/>
            <path class="cls-24" d="M520,396.78a5,5,0,0,1,.57.43A5,5,0,0,0,520,396.78Z"/>
            <path class="cls-2" d="M517.38,396a5,5,0,0,0-5,5A5,5,0,0,1,517.38,396Z"/>
            <path class="cls-25" d="M517.38,396a5,5,0,0,0-5,5A5,5,0,0,1,517.38,396Z"/>
            <path class="cls-2" d="M519.46,405.54l-.31.13Z"/>
            <path class="cls-26" d="M519.46,405.54l-.31.13Z"/>
            <path class="cls-2" d="M520.73,397.31a5,5,0,0,1,.55.59A5,5,0,0,0,520.73,397.31Z"/>
            <path class="cls-27" d="M520.73,397.31a5,5,0,0,1,.55.59A5,5,0,0,0,520.73,397.31Z"/>
            <path class="cls-2" d="M519.24,396.37a4.9,4.9,0,0,1,.53.26A4.92,4.92,0,0,0,519.24,396.37Z"/>
            <path class="cls-28" d="M519.24,396.37a4.9,4.9,0,0,1,.53.26A4.92,4.92,0,0,0,519.24,396.37Z"/>
            <path class="cls-2" d="M518.44,405.88h0Z"/>
            <path class="cls-29" d="M518.44,405.88h0Z"/>
            <path class="cls-2" d="M515.62,405.67l-.3-.12Z"/>
            <path class="cls-30" d="M515.62,405.67l-.3-.12Z"/>
            <path class="cls-2" d="M518.35,396.1a1.48,1.48,0,0,1,.41.12C518.62,396.18,518.49,396.13,518.35,396.1Z"/>
            <path class="cls-31" d="M518.35,396.1a1.48,1.48,0,0,1,.41.12C518.62,396.18,518.49,396.13,518.35,396.1Z"/>
            <path class="cls-2" d="M516.48,405.91l-.29-.07Z"/>
            <path class="cls-32" d="M516.48,405.91l-.29-.07Z"/>
            <path class="cls-1" d="M68.71,445.74a4.94,4.94,0,0,1-.16-.53A4.94,4.94,0,0,0,68.71,445.74Z"/>
            <path class="cls-1" d="M76.55,440.17l.19.16Z"/>
            <path class="cls-1" d="M68.47,444.9a5,5,0,0,1-.09-.9A4.9,4.9,0,0,0,68.47,444.9Z"/>
            <path class="cls-1" d="M74.72,439.2a5,5,0,0,1,.53.16A4.94,4.94,0,0,0,74.72,439.2Z"/>
            <path class="cls-1" d="M75.71,439.6l.34.18Z"/>
            <path class="cls-1" d="M73.38,439a5,5,0,0,1,1,.1A5,5,0,0,0,73.38,439Z"/>
            <path class="cls-1" d="M76.39,448Z"/>
            <polygon class="cls-1" points="77.12 447.28 77.12 447.28 77.12 447.28 77.12 447.28"/>
            <path class="cls-1" d="M76,448.25a5,5,0,0,1-.54.29A5,5,0,0,0,76,448.25Z"/>
            <path class="cls-1" d="M74.3,448.91a5,5,0,0,1-.92.09A4.88,4.88,0,0,0,74.3,448.91Z"/>
            <path class="cls-1" d="M69.09,446.52c-.08-.14-.16-.28-.23-.42A4.36,4.36,0,0,0,69.09,446.52Z"/>
            <path class="cls-1" d="M75.17,448.66a4.93,4.93,0,0,1-.74.23A4.85,4.85,0,0,0,75.17,448.66Z"/>
            <path class="cls-1" d="M77.77,441.66Z"/>
            <path class="cls-1"
                  d="M521.24,397.91a5,5,0,0,0-.55-.59l-.13-.11a5,5,0,0,0-.57-.43l-.27-.15a3.28,3.28,0,0,0-1-.41,2.12,2.12,0,0,1-.41-.12,5,5,0,0,0-6,4.9,4.89,4.89,0,0,0,.07.72,5.05,5.05,0,0,0,2.86,3.82l.3.12a4.92,4.92,0,0,0,.57.18l.29.07a5,5,0,0,0,.9.09,4.87,4.87,0,0,0,.91-.09h.15a4.85,4.85,0,0,0,.72-.22l.31-.13a5,5,0,0,0,1.86-7.58Z"/>
            <path class="cls-1"
                  d="M642.61,434.37c-.09-.14-.19-.27-.29-.4l-.2-.24a5,5,0,0,0-.42-.43,5.08,5.08,0,0,0-.41-.34l-.3-.2a5,5,0,0,0-.52-.28l-.2-.1a4.91,4.91,0,0,0-.79-.24h-.22a4.45,4.45,0,0,0-1.78,0l-.27.06a4.88,4.88,0,0,0-.59.18l-.27.1a5,5,0,0,0-.66.36c-.14.09-.26.19-.39.28l-.22.18a5,5,0,0,0-.4.39h0a4.94,4.94,0,0,0-.93,5.26h0c0,.07.07.13.1.19a5,5,0,0,0,.31.57l.19.27a5,5,0,0,0,.36.44l.21.22a5,5,0,0,0,.65.53l.09,0a5,5,0,0,0,.67.37l.26.1a4.92,4.92,0,0,0,.61.19l.26.06a4.55,4.55,0,0,0,1.82,0l.3-.07a4.89,4.89,0,0,0,.55-.17l.34-.14a4.16,4.16,0,0,0,.42-.23l.36-.22.18-.15a5,5,0,0,0,.84-.83l.08-.1a5,5,0,0,0,.36-.56l.06-.11a4.93,4.93,0,0,0,.29-.64h0a4.82,4.82,0,0,0-.46-4.32Z"/>
            <path class="cls-1" d="M77.24,440.87l.08.1Z"/>
            <path class="cls-1" d="M78.13,442.52Z"/>
            <path class="cls-2" d="M74.43,448.88h0Z"/>
            <path class="cls-33" d="M74.43,448.88h0Z"/>
            <path class="cls-2" d="M75.44,448.55l-.27.11Z"/>
            <path class="cls-34" d="M75.44,448.55l-.27.11Z"/>
            <path class="cls-2" d="M76.36,448l-.38.26Z"/>
            <path class="cls-35" d="M76.36,448l-.38.26Z"/>
            <path class="cls-2" d="M76.39,448a5,5,0,0,0,.73-.69A5.18,5.18,0,0,1,76.39,448Z"/>
            <path class="cls-36" d="M76.39,448a5,5,0,0,0,.73-.69A5.18,5.18,0,0,1,76.39,448Z"/>
            <path class="cls-2" d="M75.24,439.37a4.89,4.89,0,0,1,.46.23A4.93,4.93,0,0,0,75.24,439.37Z"/>
            <path class="cls-37" d="M75.24,439.37a4.89,4.89,0,0,1,.46.23A4.93,4.93,0,0,0,75.24,439.37Z"/>
            <path class="cls-2" d="M77.33,441a5,5,0,0,1,.44.69A5,5,0,0,0,77.33,441Z"/>
            <path class="cls-38" d="M77.33,441a5,5,0,0,1,.44.69A5,5,0,0,0,77.33,441Z"/>
            <path class="cls-2" d="M77.79,441.7a5,5,0,0,1,.34.82A4.94,4.94,0,0,0,77.79,441.7Z"/>
            <path class="cls-39" d="M77.79,441.7a5,5,0,0,1,.34.82A4.94,4.94,0,0,0,77.79,441.7Z"/>
            <path class="cls-2" d="M76.05,439.79a5,5,0,0,1,.51.38A5,5,0,0,0,76.05,439.79Z"/>
            <path class="cls-40" d="M76.05,439.79a5,5,0,0,1,.51.38A5,5,0,0,0,76.05,439.79Z"/>
            <path class="cls-2" d="M76.74,440.33a5,5,0,0,1,.5.54A5,5,0,0,0,76.74,440.33Z"/>
            <path class="cls-41" d="M76.74,440.33a5,5,0,0,1,.5.54A5,5,0,0,0,76.74,440.33Z"/>
            <path class="cls-2" d="M74.35,439.1a1.21,1.21,0,0,1,.37.11A2.6,2.6,0,0,0,74.35,439.1Z"/>
            <path class="cls-42" d="M74.35,439.1a1.21,1.21,0,0,1,.37.11A2.6,2.6,0,0,0,74.35,439.1Z"/>
            <path class="cls-2" d="M68.86,446.1l-.15-.36A3,3,0,0,0,68.86,446.1Z"/>
            <path class="cls-43" d="M68.86,446.1l-.15-.36A3,3,0,0,0,68.86,446.1Z"/>
            <path class="cls-2" d="M68.55,445.21c0-.1-.06-.2-.07-.31A1.73,1.73,0,0,0,68.55,445.21Z"/>
            <path class="cls-44" d="M68.55,445.21c0-.1-.06-.2-.07-.31A1.73,1.73,0,0,0,68.55,445.21Z"/>
            <path class="cls-1" d="M200.5,499.14a5,5,0,0,1,.78.24A4.92,4.92,0,0,0,200.5,499.14Z"/>
            <path class="cls-1" d="M200.31,508.91a5,5,0,0,1-.93.09A4.94,4.94,0,0,0,200.31,508.91Z"/>
            <path class="cls-1" d="M201.16,508.66a5,5,0,0,1-.54.17A4.9,4.9,0,0,0,201.16,508.66Z"/>
            <path class="cls-1" d="M201.49,499.48a5,5,0,0,1,.5.27A5,5,0,0,0,201.49,499.48Z"/>
            <path class="cls-1" d="M201.92,508.28l-.38.21Z"/>
            <path class="cls-1" d="M198.45,499.09a5,5,0,0,1,.93-.09A4.81,4.81,0,0,0,198.45,499.09Z"/>
            <path class="cls-1" d="M197.62,499.34l.29-.09Z"/>
            <path class="cls-1" d="M199.38,499a5,5,0,0,1,.89.09A4.92,4.92,0,0,0,199.38,499Z"/>
            <polygon class="cls-1" points="196.2 500.18 196.2 500.18 196.2 500.18 196.2 500.18"/>
            <path class="cls-1" d="M202.31,500a3.87,3.87,0,0,1,.31.26Z"/>
            <path class="cls-1" d="M203.17,500.77l.15.19Z"/>
            <path class="cls-1"
                  d="M78.13,442.52a4.94,4.94,0,0,0-.34-.82h0a5,5,0,0,0-.44-.69l-.08-.1a5,5,0,0,0-.5-.54l-.19-.16a5,5,0,0,0-.51-.38c-.11-.07-.23-.12-.34-.18a3.26,3.26,0,0,0-1-.4,1.92,1.92,0,0,1-.37-.11,5,5,0,0,0-6,4.9,4.9,4.9,0,0,0,.09.9.49.49,0,0,0,.07.31,4.94,4.94,0,0,0,.16.53.92.92,0,0,0,.15.36c.06.12.15.28.23.42A5,5,0,0,0,73.35,449a4.88,4.88,0,0,0,.92-.09h.13a4.85,4.85,0,0,0,.74-.23l.27-.11a5,5,0,0,0,.54-.29l.38-.26h0a5,5,0,0,0,.73-.69h0a4.79,4.79,0,0,0,1-4.76Z"/>
            <path class="cls-1"
                  d="M642.61,434.37c-.09-.14-.19-.27-.29-.4l-.2-.24a5,5,0,0,0-.42-.43,5.08,5.08,0,0,0-.41-.34l-.3-.2a5,5,0,0,0-.52-.28l-.2-.1a4.91,4.91,0,0,0-.79-.24h-.22a4.45,4.45,0,0,0-1.78,0l-.27.06a4.88,4.88,0,0,0-.59.18l-.27.1a5,5,0,0,0-.66.36c-.14.09-.26.19-.39.28l-.22.18a5,5,0,0,0-.4.39h0a4.94,4.94,0,0,0-.93,5.26h0c0,.07.07.13.1.19a5,5,0,0,0,.31.57l.19.27a5,5,0,0,0,.36.44l.21.22a5,5,0,0,0,.65.53l.09,0a5,5,0,0,0,.67.37l.26.1a4.92,4.92,0,0,0,.61.19l.26.06a4.55,4.55,0,0,0,1.82,0l.3-.07a4.89,4.89,0,0,0,.55-.17l.34-.14a4.16,4.16,0,0,0,.42-.23l.36-.22.18-.15a5,5,0,0,0,.84-.83l.08-.1a5,5,0,0,0,.36-.56l.06-.11a4.93,4.93,0,0,0,.29-.64h0a4.82,4.82,0,0,0-.46-4.32Z"/>
            <path class="cls-1" d="M196.87,499.7h0Z"/>
            <path class="cls-1"
                  d="M521.24,397.91a5,5,0,0,0-.55-.59l-.13-.11a5,5,0,0,0-.57-.43l-.27-.15a3.28,3.28,0,0,0-1-.41,2.12,2.12,0,0,1-.41-.12,5,5,0,0,0-6,4.9,4.89,4.89,0,0,0,.07.72,5.05,5.05,0,0,0,2.86,3.82l.3.12a4.92,4.92,0,0,0,.57.18l.29.07a5,5,0,0,0,.9.09,4.87,4.87,0,0,0,.91-.09h.15a4.85,4.85,0,0,0,.72-.22l.31-.13a5,5,0,0,0,1.86-7.58Z"/>
            <polygon class="cls-1" points="204.17 505.36 204.17 505.36 204.17 505.36 204.17 505.36"/>
            <path class="cls-1" d="M202.55,507.83l-.22.18Z"/>
            <path class="cls-1"
                  d="M521.24,397.91a5,5,0,0,0-.55-.59l-.13-.11a5,5,0,0,0-.57-.43l-.27-.15a3.28,3.28,0,0,0-1-.41,2.12,2.12,0,0,1-.41-.12,5,5,0,0,0-6,4.9,4.89,4.89,0,0,0,.07.72,5.05,5.05,0,0,0,2.86,3.82l.3.12a4.92,4.92,0,0,0,.57.18l.29.07a5,5,0,0,0,.9.09,4.87,4.87,0,0,0,.91-.09h.15a4.85,4.85,0,0,0,.72-.22l.31-.13a5,5,0,0,0,1.86-7.58Z"/>
            <path class="cls-1"
                  d="M642.61,434.37c-.09-.14-.19-.27-.29-.4l-.2-.24a5,5,0,0,0-.42-.43,5.08,5.08,0,0,0-.41-.34l-.3-.2a5,5,0,0,0-.52-.28l-.2-.1a4.91,4.91,0,0,0-.79-.24h-.22a4.45,4.45,0,0,0-1.78,0l-.27.06a4.88,4.88,0,0,0-.59.18l-.27.1a5,5,0,0,0-.66.36c-.14.09-.26.19-.39.28l-.22.18a5,5,0,0,0-.4.39h0a4.94,4.94,0,0,0-.93,5.26h0c0,.07.07.13.1.19a5,5,0,0,0,.31.57l.19.27a5,5,0,0,0,.36.44l.21.22a5,5,0,0,0,.65.53l.09,0a5,5,0,0,0,.67.37l.26.1a4.92,4.92,0,0,0,.61.19l.26.06a4.55,4.55,0,0,0,1.82,0l.3-.07a4.89,4.89,0,0,0,.55-.17l.34-.14a4.16,4.16,0,0,0,.42-.23l.36-.22.18-.15a5,5,0,0,0,.84-.83l.08-.1a5,5,0,0,0,.36-.56l.06-.11a4.93,4.93,0,0,0,.29-.64h0a4.82,4.82,0,0,0-.46-4.32Z"/>
            <path class="cls-1"
                  d="M78.13,442.52a4.94,4.94,0,0,0-.34-.82h0a5,5,0,0,0-.44-.69l-.08-.1a5,5,0,0,0-.5-.54l-.19-.16a5,5,0,0,0-.51-.38c-.11-.07-.23-.12-.34-.18a3.26,3.26,0,0,0-1-.4,1.92,1.92,0,0,1-.37-.11,5,5,0,0,0-6,4.9,4.9,4.9,0,0,0,.09.9.49.49,0,0,0,.07.31,4.94,4.94,0,0,0,.16.53.92.92,0,0,0,.15.36c.06.12.15.28.23.42A5,5,0,0,0,73.35,449a4.88,4.88,0,0,0,.92-.09h.13a4.85,4.85,0,0,0,.74-.23l.27-.11a5,5,0,0,0,.54-.29l.38-.26h0a5,5,0,0,0,.73-.69h0a4.79,4.79,0,0,0,1-4.76Z"/>
            <path class="cls-1"
                  d="M203.17,500.77a5,5,0,0,0-.54-.54l-.31-.26-.32-.22a5,5,0,0,0-.5-.27l-.21-.1a4.92,4.92,0,0,0-.78-.24h-.23a4.92,4.92,0,0,0-.89-.09,4.81,4.81,0,0,0-.93.09,4.88,4.88,0,0,0-.54.15l-.29.09a4.93,4.93,0,0,0-.68.33h-.07a5,5,0,0,0-.67.48h0a5,5,0,0,0,4.11,8.73l.32-.08a4.9,4.9,0,0,0,.54-.17l.38-.17.38-.21a3.62,3.62,0,0,0,.41-.27l.22-.18a5,5,0,0,0,1.62-2.47h0a4.76,4.76,0,0,0-.85-4.4Z"/>
            <path class="cls-1"
                  d="M78.13,442.52a4.94,4.94,0,0,0-.34-.82h0a5,5,0,0,0-.44-.69l-.08-.1a5,5,0,0,0-.5-.54l-.19-.16a5,5,0,0,0-.51-.38c-.11-.07-.23-.12-.34-.18a3.26,3.26,0,0,0-1-.4,1.92,1.92,0,0,1-.37-.11,5,5,0,0,0-6,4.9,4.9,4.9,0,0,0,.09.9.49.49,0,0,0,.07.31,4.94,4.94,0,0,0,.16.53.92.92,0,0,0,.15.36c.06.12.15.28.23.42A5,5,0,0,0,73.35,449a4.88,4.88,0,0,0,.92-.09h.13a4.85,4.85,0,0,0,.74-.23l.27-.11a5,5,0,0,0,.54-.29l.38-.26h0a5,5,0,0,0,.73-.69h0a4.79,4.79,0,0,0,1-4.76Z"/>
            <path class="cls-1"
                  d="M521.24,397.91a5,5,0,0,0-.55-.59l-.13-.11a5,5,0,0,0-.57-.43l-.27-.15a3.28,3.28,0,0,0-1-.41,2.12,2.12,0,0,1-.41-.12,5,5,0,0,0-6,4.9,4.89,4.89,0,0,0,.07.72,5.05,5.05,0,0,0,2.86,3.82l.3.12a4.92,4.92,0,0,0,.57.18l.29.07a5,5,0,0,0,.9.09,4.87,4.87,0,0,0,.91-.09h.15a4.85,4.85,0,0,0,.72-.22l.31-.13a5,5,0,0,0,1.86-7.58Z"/>
            <path class="cls-1"
                  d="M203.17,500.77a5,5,0,0,0-.54-.54l-.31-.26-.32-.22a5,5,0,0,0-.5-.27l-.21-.1a4.92,4.92,0,0,0-.78-.24h-.23a4.92,4.92,0,0,0-.89-.09,4.81,4.81,0,0,0-.93.09,4.88,4.88,0,0,0-.54.15l-.29.09a4.93,4.93,0,0,0-.68.33h-.07a5,5,0,0,0-.67.48h0a5,5,0,0,0,4.11,8.73l.32-.08a4.9,4.9,0,0,0,.54-.17l.38-.17.38-.21a3.62,3.62,0,0,0,.41-.27l.22-.18a5,5,0,0,0,1.62-2.47h0a4.76,4.76,0,0,0-.85-4.4Z"/>
            <path class="cls-1"
                  d="M1686.38,565a5,5,0,0,0-2.58,9.26h0a5,5,0,0,0,.75.38l.25.08a4.36,4.36,0,0,0,1.57.28,4.81,4.81,0,0,0,.93-.09,4.91,4.91,0,0,0,.54-.15l.3-.09a4.93,4.93,0,0,0,.67-.32h.07a5,5,0,0,0,2.48-4.12V570a5,5,0,0,0-4.95-5Z"/>
            <path class="cls-1"
                  d="M203.17,500.77a5,5,0,0,0-.54-.54l-.31-.26-.32-.22a5,5,0,0,0-.5-.27l-.21-.1a4.92,4.92,0,0,0-.78-.24h-.23a4.92,4.92,0,0,0-.89-.09,4.81,4.81,0,0,0-.93.09,4.88,4.88,0,0,0-.54.15l-.29.09a4.93,4.93,0,0,0-.68.33h-.07a5,5,0,0,0-.67.48h0a5,5,0,0,0,4.11,8.73l.32-.08a4.9,4.9,0,0,0,.54-.17l.38-.17.38-.21a3.62,3.62,0,0,0,.41-.27l.22-.18a5,5,0,0,0,1.62-2.47h0a4.76,4.76,0,0,0-.85-4.4Z"/>
            <path class="cls-1"
                  d="M521.24,397.91a5,5,0,0,0-.55-.59l-.13-.11a5,5,0,0,0-.57-.43l-.27-.15a3.28,3.28,0,0,0-1-.41,2.12,2.12,0,0,1-.41-.12,5,5,0,0,0-6,4.9,4.89,4.89,0,0,0,.07.72,5.05,5.05,0,0,0,2.86,3.82l.3.12a4.92,4.92,0,0,0,.57.18l.29.07a5,5,0,0,0,.9.09,4.87,4.87,0,0,0,.91-.09h.15a4.85,4.85,0,0,0,.72-.22l.31-.13a5,5,0,0,0,1.86-7.58Z"/>
            <path class="cls-1"
                  d="M78.13,442.52a4.94,4.94,0,0,0-.34-.82h0a5,5,0,0,0-.44-.69l-.08-.1a5,5,0,0,0-.5-.54l-.19-.16a5,5,0,0,0-.51-.38c-.11-.07-.23-.12-.34-.18a3.26,3.26,0,0,0-1-.4,1.92,1.92,0,0,1-.37-.11,5,5,0,0,0-6,4.9,4.9,4.9,0,0,0,.09.9.49.49,0,0,0,.07.31,4.94,4.94,0,0,0,.16.53.92.92,0,0,0,.15.36c.06.12.15.28.23.42A5,5,0,0,0,73.35,449a4.88,4.88,0,0,0,.92-.09h.13a4.85,4.85,0,0,0,.74-.23l.27-.11a5,5,0,0,0,.54-.29l.38-.26h0a5,5,0,0,0,.73-.69h0a4.79,4.79,0,0,0,1-4.76Z"/>
            <path class="cls-1"
                  d="M1587,616.6l-.28-.28a5,5,0,0,0-.41-.34l-.33-.23a5,5,0,0,0-.54-.29l-.23-.1a4.9,4.9,0,0,0-.77-.24h-.19a4.5,4.5,0,0,0-1.8,0l-.27.06a4.92,4.92,0,0,0-.6.19l-.27.11a5,5,0,0,0-.61.33l-.16.09a5,5,0,0,0-.63.52l-.24.26c-.11.12-.22.25-.32.38a3.74,3.74,0,0,0-.22.32,4.9,4.9,0,0,0,.46,5.9l.07.09a5,5,0,0,0,.39.38l.25.2.37.28a5,5,0,0,0,.66.36l.27.1a4.9,4.9,0,0,0,.59.18l.27.06a4.57,4.57,0,0,0,1.83,0l.31-.08a4.9,4.9,0,0,0,.56-.17l.36-.16c.15-.07.29-.15.43-.23l.37-.25.31-.26a5,5,0,0,0,.37-.35l.18-.22a4.91,4.91,0,0,0,.22-6.08A5.1,5.1,0,0,0,1587,616.6Z"/>
            <path class="cls-1"
                  d="M1686.38,565a5,5,0,0,0-2.58,9.26h0a5,5,0,0,0,.75.38l.25.08a4.36,4.36,0,0,0,1.57.28,4.81,4.81,0,0,0,.93-.09,4.91,4.91,0,0,0,.54-.15l.3-.09a4.93,4.93,0,0,0,.67-.32h.07a5,5,0,0,0,2.48-4.12V570a5,5,0,0,0-4.95-5Z"/>
            <path class="cls-1"
                  d="M203.17,500.77a5,5,0,0,0-.54-.54l-.31-.26-.32-.22a5,5,0,0,0-.5-.27l-.21-.1a4.92,4.92,0,0,0-.78-.24h-.23a4.92,4.92,0,0,0-.89-.09,4.81,4.81,0,0,0-.93.09,4.88,4.88,0,0,0-.54.15l-.29.09a4.93,4.93,0,0,0-.68.33h-.07a5,5,0,0,0-.67.48h0a5,5,0,0,0,4.11,8.73l.32-.08a4.9,4.9,0,0,0,.54-.17l.38-.17.38-.21a3.62,3.62,0,0,0,.41-.27l.22-.18a5,5,0,0,0,1.62-2.47h0a4.76,4.76,0,0,0-.85-4.4Z"/>
            <path class="cls-1"
                  d="M78.13,442.52a4.94,4.94,0,0,0-.34-.82h0a5,5,0,0,0-.44-.69l-.08-.1a5,5,0,0,0-.5-.54l-.19-.16a5,5,0,0,0-.51-.38c-.11-.07-.23-.12-.34-.18a3.26,3.26,0,0,0-1-.4,1.92,1.92,0,0,1-.37-.11,5,5,0,0,0-6,4.9,4.9,4.9,0,0,0,.09.9.49.49,0,0,0,.07.31,4.94,4.94,0,0,0,.16.53.92.92,0,0,0,.15.36c.06.12.15.28.23.42A5,5,0,0,0,73.35,449a4.88,4.88,0,0,0,.92-.09h.13a4.85,4.85,0,0,0,.74-.23l.27-.11a5,5,0,0,0,.54-.29l.38-.26h0a5,5,0,0,0,.73-.69h0a4.79,4.79,0,0,0,1-4.76Z"/>
            <path class="cls-1"
                  d="M521.24,397.91a5,5,0,0,0-.55-.59l-.13-.11a5,5,0,0,0-.57-.43l-.27-.15a3.28,3.28,0,0,0-1-.41,2.12,2.12,0,0,1-.41-.12,5,5,0,0,0-6,4.9,4.89,4.89,0,0,0,.07.72,5.05,5.05,0,0,0,2.86,3.82l.3.12a4.92,4.92,0,0,0,.57.18l.29.07a5,5,0,0,0,.9.09,4.87,4.87,0,0,0,.91-.09h.15a4.85,4.85,0,0,0,.72-.22l.31-.13a5,5,0,0,0,1.86-7.58Z"/>
            <path class="cls-1"
                  d="M1587,616.6l-.28-.28a5,5,0,0,0-.41-.34l-.33-.23a5,5,0,0,0-.54-.29l-.23-.1a4.9,4.9,0,0,0-.77-.24h-.19a4.5,4.5,0,0,0-1.8,0l-.27.06a4.92,4.92,0,0,0-.6.19l-.27.11a5,5,0,0,0-.61.33l-.16.09a5,5,0,0,0-.63.52l-.24.26c-.11.12-.22.25-.32.38a3.74,3.74,0,0,0-.22.32,4.9,4.9,0,0,0,.46,5.9l.07.09a5,5,0,0,0,.39.38l.25.2.37.28a5,5,0,0,0,.66.36l.27.1a4.9,4.9,0,0,0,.59.18l.27.06a4.57,4.57,0,0,0,1.83,0l.31-.08a4.9,4.9,0,0,0,.56-.17l.36-.16c.15-.07.29-.15.43-.23l.37-.25.31-.26a5,5,0,0,0,.37-.35l.18-.22a4.91,4.91,0,0,0,.22-6.08A5.1,5.1,0,0,0,1587,616.6Z"/>
            <path class="cls-1"
                  d="M1686.38,565a5,5,0,0,0-2.58,9.26h0a5,5,0,0,0,.75.38l.25.08a4.36,4.36,0,0,0,1.57.28,4.81,4.81,0,0,0,.93-.09,4.91,4.91,0,0,0,.54-.15l.3-.09a4.93,4.93,0,0,0,.67-.32h.07a5,5,0,0,0,2.48-4.12V570a5,5,0,0,0-4.95-5Z"/>
            <path class="cls-1"
                  d="M1462.24,600.85a5,5,0,0,0-.61-1.46v-.07a4.93,4.93,0,0,0-.34-.45l-.21-.26a4.17,4.17,0,0,0-.36-.34l-.33-.27-.36-.25c-.14-.09-.29-.16-.43-.24l-.36-.16a5,5,0,0,0-.56-.18l-.31-.08a5,5,0,0,0-.94-.1,4.64,4.64,0,0,0-.84.08l-.3.06a5.1,5.1,0,0,0-3.78,4.08,4.29,4.29,0,0,0-.08.78,5,5,0,0,0,5.9,4.91h.19a5,5,0,0,0,.81-.25l.13-.06a5,5,0,0,0,.67-.37l.12-.08a5,5,0,0,0,.64-.53l.13-.14a5,5,0,0,0,.54-.65,4.88,4.88,0,0,0,.71-3.94Z"/>
            <path class="cls-1"
                  d="M521.24,397.91a5,5,0,0,0-.55-.59l-.13-.11a5,5,0,0,0-.57-.43l-.27-.15a3.28,3.28,0,0,0-1-.41,2.12,2.12,0,0,1-.41-.12,5,5,0,0,0-6,4.9,4.89,4.89,0,0,0,.07.72,5.05,5.05,0,0,0,2.86,3.82l.3.12a4.92,4.92,0,0,0,.57.18l.29.07a5,5,0,0,0,.9.09,4.87,4.87,0,0,0,.91-.09h.15a4.85,4.85,0,0,0,.72-.22l.31-.13a5,5,0,0,0,1.86-7.58Z"/>
            <path class="cls-1"
                  d="M203.17,500.77a5,5,0,0,0-.54-.54l-.31-.26-.32-.22a5,5,0,0,0-.5-.27l-.21-.1a4.92,4.92,0,0,0-.78-.24h-.23a4.92,4.92,0,0,0-.89-.09,4.81,4.81,0,0,0-.93.09,4.88,4.88,0,0,0-.54.15l-.29.09a4.93,4.93,0,0,0-.68.33h-.07a5,5,0,0,0-.67.48h0a5,5,0,0,0,4.11,8.73l.32-.08a4.9,4.9,0,0,0,.54-.17l.38-.17.38-.21a3.62,3.62,0,0,0,.41-.27l.22-.18a5,5,0,0,0,1.62-2.47h0a4.76,4.76,0,0,0-.85-4.4Z"/>
            <path class="cls-1"
                  d="M78.13,442.52a4.94,4.94,0,0,0-.34-.82h0a5,5,0,0,0-.44-.69l-.08-.1a5,5,0,0,0-.5-.54l-.19-.16a5,5,0,0,0-.51-.38c-.11-.07-.23-.12-.34-.18a3.26,3.26,0,0,0-1-.4,1.92,1.92,0,0,1-.37-.11,5,5,0,0,0-6,4.9,4.9,4.9,0,0,0,.09.9.49.49,0,0,0,.07.31,4.94,4.94,0,0,0,.16.53.92.92,0,0,0,.15.36c.06.12.15.28.23.42A5,5,0,0,0,73.35,449a4.88,4.88,0,0,0,.92-.09h.13a4.85,4.85,0,0,0,.74-.23l.27-.11a5,5,0,0,0,.54-.29l.38-.26h0a5,5,0,0,0,.73-.69h0a4.79,4.79,0,0,0,1-4.76Z"/>
            <path class="cls-1"
                  d="M1587,616.6l-.28-.28a5,5,0,0,0-.41-.34l-.33-.23a5,5,0,0,0-.54-.29l-.23-.1a4.9,4.9,0,0,0-.77-.24h-.19a4.5,4.5,0,0,0-1.8,0l-.27.06a4.92,4.92,0,0,0-.6.19l-.27.11a5,5,0,0,0-.61.33l-.16.09a5,5,0,0,0-.63.52l-.24.26c-.11.12-.22.25-.32.38a3.74,3.74,0,0,0-.22.32,4.9,4.9,0,0,0,.46,5.9l.07.09a5,5,0,0,0,.39.38l.25.2.37.28a5,5,0,0,0,.66.36l.27.1a4.9,4.9,0,0,0,.59.18l.27.06a4.57,4.57,0,0,0,1.83,0l.31-.08a4.9,4.9,0,0,0,.56-.17l.36-.16c.15-.07.29-.15.43-.23l.37-.25.31-.26a5,5,0,0,0,.37-.35l.18-.22a4.91,4.91,0,0,0,.22-6.08A5.1,5.1,0,0,0,1587,616.6Z"/>
            <path class="cls-1"
                  d="M1288.38,466a4.92,4.92,0,0,0-.89.09h-.23a4.91,4.91,0,0,0-.77.24l-.23.11a5,5,0,0,0-.5.27l-.33.22-.29.24a5,5,0,0,0-.57.57l-.14.17a4.76,4.76,0,0,0-.85,4.42h0a5,5,0,0,0,1.62,2.47l.21.17c.13.1.27.18.41.27l.38.21.38.17a4.9,4.9,0,0,0,.54.17l.32.08a4.57,4.57,0,0,0,1.83,0l.28-.07a4.92,4.92,0,0,0,.58-.18l.29-.12a5,5,0,0,0,2.87-3.85,4.92,4.92,0,0,0,.07-.69A5,5,0,0,0,1288.38,466Z"/>
            <path class="cls-1"
                  d="M1462.24,600.85a5,5,0,0,0-.61-1.46v-.07a4.93,4.93,0,0,0-.34-.45l-.21-.26a4.17,4.17,0,0,0-.36-.34l-.33-.27-.36-.25c-.14-.09-.29-.16-.43-.24l-.36-.16a5,5,0,0,0-.56-.18l-.31-.08a5,5,0,0,0-.94-.1,4.64,4.64,0,0,0-.84.08l-.3.06a5.1,5.1,0,0,0-3.78,4.08,4.29,4.29,0,0,0-.08.78,5,5,0,0,0,5.9,4.91h.19a5,5,0,0,0,.81-.25l.13-.06a5,5,0,0,0,.67-.37l.12-.08a5,5,0,0,0,.64-.53l.13-.14a5,5,0,0,0,.54-.65,4.88,4.88,0,0,0,.71-3.94Z"/>
            <path class="cls-1"
                  d="M1686.38,565a5,5,0,0,0-2.58,9.26h0a5,5,0,0,0,.75.38l.25.08a4.36,4.36,0,0,0,1.57.28,4.81,4.81,0,0,0,.93-.09,4.91,4.91,0,0,0,.54-.15l.3-.09a4.93,4.93,0,0,0,.67-.32h.07a5,5,0,0,0,2.48-4.12V570a5,5,0,0,0-4.95-5Z"/>
            <path class="cls-1"
                  d="M1462.24,600.85a5,5,0,0,0-.61-1.46v-.07a4.93,4.93,0,0,0-.34-.45l-.21-.26a4.17,4.17,0,0,0-.36-.34l-.33-.27-.36-.25c-.14-.09-.29-.16-.43-.24l-.36-.16a5,5,0,0,0-.56-.18l-.31-.08a5,5,0,0,0-.94-.1,4.64,4.64,0,0,0-.84.08l-.3.06a5.1,5.1,0,0,0-3.78,4.08,4.29,4.29,0,0,0-.08.78,5,5,0,0,0,5.9,4.91h.19a5,5,0,0,0,.81-.25l.13-.06a5,5,0,0,0,.67-.37l.12-.08a5,5,0,0,0,.64-.53l.13-.14a5,5,0,0,0,.54-.65,4.88,4.88,0,0,0,.71-3.94Z"/>
            <path class="cls-1"
                  d="M1288.38,466a4.92,4.92,0,0,0-.89.09h-.23a4.91,4.91,0,0,0-.77.24l-.23.11a5,5,0,0,0-.5.27l-.33.22-.29.24a5,5,0,0,0-.57.57l-.14.17a4.76,4.76,0,0,0-.85,4.42h0a5,5,0,0,0,1.62,2.47l.21.17c.13.1.27.18.41.27l.38.21.38.17a4.9,4.9,0,0,0,.54.17l.32.08a4.57,4.57,0,0,0,1.83,0l.28-.07a4.92,4.92,0,0,0,.58-.18l.29-.12a5,5,0,0,0,2.87-3.85,4.92,4.92,0,0,0,.07-.69A5,5,0,0,0,1288.38,466Z"/>
            <path class="cls-1"
                  d="M1055,467.61c-.1-.11-.21-.21-.32-.31l-.32-.27a3.71,3.71,0,0,0-.41-.28,5,5,0,0,0-.51-.28l-.25-.11a4.9,4.9,0,0,0-.76-.24h-.19a4.91,4.91,0,0,0-.89-.09,4.71,4.71,0,0,0-.93.09,4.93,4.93,0,0,0-.86.25h0a5,5,0,0,0-3.12,3.71,4.77,4.77,0,0,0-.1,1,5,5,0,0,0,6,4.9l.3-.08a5,5,0,0,0,.59-.18l.34-.16a5,5,0,0,0,.47-.26l.33-.23a5,5,0,0,0,.39-.32l.3-.29c.11-.12.21-.24.31-.37s.17-.23.25-.35a4.16,4.16,0,0,0,.23-.42c.07-.14.14-.26.19-.39a5,5,0,0,0,.15-.49,4.77,4.77,0,0,0-.77-4.31A5.16,5.16,0,0,0,1055,467.61Z"/>
            <path class="cls-1"
                  d="M1587,616.6l-.28-.28a5,5,0,0,0-.41-.34l-.33-.23a5,5,0,0,0-.54-.29l-.23-.1a4.9,4.9,0,0,0-.77-.24h-.19a4.5,4.5,0,0,0-1.8,0l-.27.06a4.92,4.92,0,0,0-.6.19l-.27.11a5,5,0,0,0-.61.33l-.16.09a5,5,0,0,0-.63.52l-.24.26c-.11.12-.22.25-.32.38a3.74,3.74,0,0,0-.22.32,4.9,4.9,0,0,0,.46,5.9l.07.09a5,5,0,0,0,.39.38l.25.2.37.28a5,5,0,0,0,.66.36l.27.1a4.9,4.9,0,0,0,.59.18l.27.06a4.57,4.57,0,0,0,1.83,0l.31-.08a4.9,4.9,0,0,0,.56-.17l.36-.16c.15-.07.29-.15.43-.23l.37-.25.31-.26a5,5,0,0,0,.37-.35l.18-.22a4.91,4.91,0,0,0,.22-6.08A5.1,5.1,0,0,0,1587,616.6Z"/>
            <path class="cls-1"
                  d="M1686.38,565a5,5,0,0,0-2.58,9.26h0a5,5,0,0,0,.75.38l.25.08a4.36,4.36,0,0,0,1.57.28,4.81,4.81,0,0,0,.93-.09,4.91,4.91,0,0,0,.54-.15l.3-.09a4.93,4.93,0,0,0,.67-.32h.07a5,5,0,0,0,2.48-4.12V570a5,5,0,0,0-4.95-5Z"/>
            <path class="cls-1"
                  d="M78.13,442.52a4.94,4.94,0,0,0-.34-.82h0a5,5,0,0,0-.44-.69l-.08-.1a5,5,0,0,0-.5-.54l-.19-.16a5,5,0,0,0-.51-.38c-.11-.07-.23-.12-.34-.18a3.26,3.26,0,0,0-1-.4,1.92,1.92,0,0,1-.37-.11,5,5,0,0,0-6,4.9,4.9,4.9,0,0,0,.09.9.49.49,0,0,0,.07.31,4.94,4.94,0,0,0,.16.53.92.92,0,0,0,.15.36c.06.12.15.28.23.42A5,5,0,0,0,73.35,449a4.88,4.88,0,0,0,.92-.09h.13a4.85,4.85,0,0,0,.74-.23l.27-.11a5,5,0,0,0,.54-.29l.38-.26h0a5,5,0,0,0,.73-.69h0a4.79,4.79,0,0,0,1-4.76Z"/>
            <path class="cls-1"
                  d="M521.24,397.91a5,5,0,0,0-.55-.59l-.13-.11a5,5,0,0,0-.57-.43l-.27-.15a3.28,3.28,0,0,0-1-.41,2.12,2.12,0,0,1-.41-.12,5,5,0,0,0-6,4.9,4.89,4.89,0,0,0,.07.72,5.05,5.05,0,0,0,2.86,3.82l.3.12a4.92,4.92,0,0,0,.57.18l.29.07a5,5,0,0,0,.9.09,4.87,4.87,0,0,0,.91-.09h.15a4.85,4.85,0,0,0,.72-.22l.31-.13a5,5,0,0,0,1.86-7.58Z"/>
            <path class="cls-1"
                  d="M203.17,500.77a5,5,0,0,0-.54-.54l-.31-.26-.32-.22a5,5,0,0,0-.5-.27l-.21-.1a4.92,4.92,0,0,0-.78-.24h-.23a4.92,4.92,0,0,0-.89-.09,4.81,4.81,0,0,0-.93.09,4.88,4.88,0,0,0-.54.15l-.29.09a4.93,4.93,0,0,0-.68.33h-.07a5,5,0,0,0-.67.48h0a5,5,0,0,0,4.11,8.73l.32-.08a4.9,4.9,0,0,0,.54-.17l.38-.17.38-.21a3.62,3.62,0,0,0,.41-.27l.22-.18a5,5,0,0,0,1.62-2.47h0a4.76,4.76,0,0,0-.85-4.4Z"/>
            <path class="cls-2" d="M202.34,508c-.13.1-.27.18-.41.27A1.46,1.46,0,0,0,202.34,508Z"/>
            <path class="cls-45" d="M202.34,508c-.13.1-.27.18-.41.27A1.46,1.46,0,0,0,202.34,508Z"/>
            <path class="cls-2" d="M203.17,500.77a5,5,0,0,0-.54-.54A5.09,5.09,0,0,1,203.17,500.77Z"/>
            <path class="cls-46" d="M203.17,500.77a5,5,0,0,0-.54-.54A5.09,5.09,0,0,1,203.17,500.77Z"/>
            <path class="cls-2" d="M196.94,499.66a5,5,0,0,1,.68-.33A4.93,4.93,0,0,0,196.94,499.66Z"/>
            <path class="cls-47" d="M196.94,499.66a5,5,0,0,1,.68-.33A4.93,4.93,0,0,0,196.94,499.66Z"/>
            <path class="cls-2" d="M202,499.76l.32.22Z"/>
            <path class="cls-48" d="M202,499.76l.32.22Z"/>
            <path class="cls-2" d="M202.55,507.83a5,5,0,0,0,1.62-2.47A5,5,0,0,1,202.55,507.83Z"/>
            <path class="cls-49" d="M202.55,507.83a5,5,0,0,0,1.62-2.47A5,5,0,0,1,202.55,507.83Z"/>
            <path class="cls-2" d="M201.54,508.49l-.38.17Z"/>
            <path class="cls-50" d="M201.54,508.49l-.38.17Z"/>
            <path class="cls-2" d="M197.91,499.25a4.79,4.79,0,0,1,.54-.15A4.88,4.88,0,0,0,197.91,499.25Z"/>
            <path class="cls-51" d="M197.91,499.25a4.79,4.79,0,0,1,.54-.15A4.88,4.88,0,0,0,197.91,499.25Z"/>
            <path class="cls-2" d="M196.24,500.18a5.25,5.25,0,0,1,.67-.48A5,5,0,0,0,196.24,500.18Z"/>
            <path class="cls-52" d="M196.24,500.18a5.25,5.25,0,0,1,.67-.48A5,5,0,0,0,196.24,500.18Z"/>
            <path class="cls-2" d="M200.62,508.82l-.32.08Z"/>
            <path class="cls-53" d="M200.62,508.82l-.32.08Z"/>
            <path class="cls-2" d="M201.24,499.38l.21.1Z"/>
            <path class="cls-54" d="M201.24,499.38l.21.1Z"/>
            <path class="cls-2" d="M200.24,499.09h0Z"/>
            <path class="cls-55" d="M200.24,499.09h0Z"/>
            <path class="cls-56"
                  d="M1798.72,655.56l-106-83c-6.5,7.5-13,0-13,0l-87.13,44c1-.19,1.08.85-3.85,6.93-8.5,10.5-15-4-15-4L1464.6,603.38c-13.66,14.33-13.83-6.83-13.83-6.83l-156-121c-6.5,5.5-15-4-15-4l-138-23-83,21s4.5,2.5-5,6-10-10-10-10l-92-121c-9.5,5.5-13-4-13-4L774.5,368.47,746,379.63,645.54,434.08v5c-6,12-16-2-16-2l-104-34c-6,8-15,3-15,3l-129,71-173,28s-2,6-11,4-3-8-3-8l-116-56-9,9L0,600.4v97.68H1798.72Z"/>
            <path class="cls-57" d="M1592.54,616.56a7.09,7.09,0,0,0-1.85.93Z"/>
            <path class="cls-58"
                  d="M1798.17,650.08,1695,572.92a9,9,0,1,0-17.3-.84l-86.58,43.29a9,9,0,0,0-16.3,2.23l-108.38-16.06a9,9,0,0,0-14.56-6.51l-155.07-120.6a9,9,0,0,0-16.49-7.22q-.14.32-.25.64l-131.75-20.26a7,7,0,0,0-13.78.66l-75,18.87a9,9,0,0,0-12-4.11l-.34.18-93-118.4a9,9,0,1,0-16.69-4.71h0l-171,28.44a7,7,0,0,0-12.92,4.56L646.2,432.48a9,9,0,0,0-16.06,1.16l-103.7-31.88v-.68a9,9,0,1,0-17.55,2.79l-121,68.81a7,7,0,0,0-12.42,4.4l-167.6,23.83a9,9,0,0,0-15.39-2.46l-110.15-53a9,9,0,1,0-14.82,5.43L0,596.29v8L71.07,452.73a8.94,8.94,0,0,0,9.84-3.6L190.72,502a9,9,0,1,0,17.71,2.83l168.2-23.92a7,7,0,0,0,12.84-3.83v-.66L511,407.3a9,9,0,0,0,14.27-1.72l104.24,32.08a9,9,0,1,0,18-.57v-.68l107.82-59.66a7,7,0,0,0,12.2-4.31L938.33,344a9,9,0,0,0,13,3.67l92.86,118.19a9,9,0,1,0,16.31,5.22V471l74.74-18.81a7,7,0,0,0,12.79-.61l131.51,20.22a9,9,0,0,0,15,5.91l154.85,120.44a9,9,0,1,0,16.41,7.34l108.82,16.12a9,9,0,0,0,17.86-1.54v-.89l87-43.51a9,9,0,0,0,13.47.67l105.36,79ZM77.17,447.36h0a5,5,0,0,1-.73.69h0l-.38.26a5,5,0,0,1-.54.29l-.27.11a4.83,4.83,0,0,1-.74.23h-.13a4.88,4.88,0,0,1-.92.09,5,5,0,0,1-4.29-2.48c-.08-.14-.16-.28-.23-.42a3.47,3.47,0,0,1-.15-.36,5,5,0,0,1-.16-.53c0-.1-.06-.2-.07-.31a4.9,4.9,0,0,1-.09-.9,5,5,0,0,1,6-4.9,1.21,1.21,0,0,1,.37.11,3.26,3.26,0,0,1,1,.4c.11.06.23.11.34.18a5,5,0,0,1,.51.38l.19.16a5,5,0,0,1,.5.54l.08.1a5,5,0,0,1,.44.69h0a4.94,4.94,0,0,1,.34.82h0a4.79,4.79,0,0,1-1,4.76Zm127,58.08h0a5,5,0,0,1-1.62,2.47l-.22.18c-.13.1-.27.18-.41.27l-.38.21-.38.17a4.94,4.94,0,0,1-.54.17l-.32.08a4.93,4.93,0,0,1-.93.09,5,5,0,0,1-3.18-8.82h0a5,5,0,0,1,.67-.48h.07a5,5,0,0,1,.68-.33l.29-.09a4.92,4.92,0,0,1,.54-.15,4.81,4.81,0,0,1,.93-.09,4.92,4.92,0,0,1,.89.09h.23a4.9,4.9,0,0,1,.78.24l.21.1a5,5,0,0,1,.5.27l.32.22.31.26a5,5,0,0,1,.54.54l.15.19a4.76,4.76,0,0,1,.85,4.4ZM520,405.34a5,5,0,0,1-.51.28l-.31.13a4.85,4.85,0,0,1-.72.22h-.15a4.87,4.87,0,0,1-.91.09,4.94,4.94,0,0,1-.9-.09l-.29-.07a4.94,4.94,0,0,1-.57-.18l-.3-.12a5.05,5.05,0,0,1-2.86-3.82,4.9,4.9,0,0,1-.07-.72,5,5,0,0,1,6-4.9,1.59,1.59,0,0,1,.41.12,3.28,3.28,0,0,1,1,.41l.27.15a5,5,0,0,1,.57.43l.13.11a5,5,0,0,1,.55.59h0a4.94,4.94,0,0,1-1.35,7.3Zm123.1,33.43h0a4.94,4.94,0,0,1-.29.64l-.06.11a5,5,0,0,1-.36.56l-.08.1a5,5,0,0,1-.84.83l-.18.15c-.11.08-.24.15-.36.22l-.42.23-.34.14a4.87,4.87,0,0,1-.55.17l-.3.07a4.55,4.55,0,0,1-1.82,0l-.26-.06a4.92,4.92,0,0,1-.61-.19l-.26-.1a5,5,0,0,1-.67-.37l-.09,0a5,5,0,0,1-.65-.53l-.21-.22a5,5,0,0,1-.36-.44l-.19-.27a5,5,0,0,1-.31-.57c0-.07-.07-.13-.1-.19h0a4.94,4.94,0,0,1,.93-5.26h0a5,5,0,0,1,.4-.39l.22-.18a3.48,3.48,0,0,1,.39-.28,5,5,0,0,1,.66-.36l.27-.1a4.9,4.9,0,0,1,.59-.18l.27-.06a4.45,4.45,0,0,1,1.78,0h.22a4.91,4.91,0,0,1,.79.24l.2.1a5,5,0,0,1,.52.28l.3.2a5.08,5.08,0,0,1,.41.34,5,5,0,0,1,.42.43l.2.24c.1.13.2.26.29.4h0a4.82,4.82,0,0,1,.46,4.32Zm308.32-97.89a5,5,0,0,1-2.6,3.6h0a4.94,4.94,0,0,1-.81.34l-.34.11-.33.07a4.63,4.63,0,0,1-.83.08,4.87,4.87,0,0,1-.9-.09h-.16a4.86,4.86,0,0,1-.73-.23l-.3-.12a4.85,4.85,0,0,1-.94-.58l-.06,0a5,5,0,0,1-.72-.7,4.56,4.56,0,0,1-1.13-3.87h0a4.92,4.92,0,0,1,.2-.87h0a4.93,4.93,0,0,1,.33-.77v-.08a5,5,0,0,1,.42-.64l.12-.14a5,5,0,0,1,.47-.49l.22-.18a5,5,0,0,1,.47-.35l.36-.2a3,3,0,0,1,.44-.22,4.93,4.93,0,0,1,.54-.17,2.3,2.3,0,0,0,.35-.1,5,5,0,0,1,6,4.9A4.56,4.56,0,0,1,951.39,340.88Zm104.87,131.56a5,5,0,0,1-.15.49c-.05.14-.13.26-.19.39a2.91,2.91,0,0,1-.23.42l-.25.35c-.09.12-.2.25-.31.37l-.3.29a5,5,0,0,1-.39.32l-.33.23a4.92,4.92,0,0,1-.47.26l-.34.16a4.94,4.94,0,0,1-.59.18l-.3.08a5,5,0,0,1-6-4.9,4.77,4.77,0,0,1,.1-1,5,5,0,0,1,3.12-3.71h0a4.94,4.94,0,0,1,.86-.25,4.7,4.7,0,0,1,.93-.09,4.92,4.92,0,0,1,.89.09h.19a4.91,4.91,0,0,1,.76.24l.25.11a5,5,0,0,1,.51.28c.14.09.28.18.41.28l.32.27c.11.1.22.2.32.31a5.22,5.22,0,0,1,.36.44,4.77,4.77,0,0,1,.77,4.31Zm237.14-.67a5,5,0,0,1-2.87,3.85l-.29.12a4.93,4.93,0,0,1-.58.18l-.28.07a4.57,4.57,0,0,1-1.83,0l-.32-.08a4.9,4.9,0,0,1-.54-.17l-.38-.17-.38-.21-.41-.27-.21-.17a5,5,0,0,1-1.62-2.47h0a4.76,4.76,0,0,1,.85-4.42l.14-.17a5,5,0,0,1,.57-.57l.29-.24.33-.22a5,5,0,0,1,.5-.27l.23-.11a4.91,4.91,0,0,1,.77-.24h.23a4.92,4.92,0,0,1,.89-.09,5,5,0,0,1,5,5,4.92,4.92,0,0,1-.09.65Zm168.21,133.1a5,5,0,0,1-.54.66l-.13.14a5,5,0,0,1-.64.53l-.12.08a5,5,0,0,1-.67.37l-.13.06a5,5,0,0,1-.81.25h-.19a5,5,0,0,1-5.9-4.91,4.28,4.28,0,0,1,.08-.78,5.09,5.09,0,0,1,3.78-4.08l.3-.06a4.64,4.64,0,0,1,.84-.08,5,5,0,0,1,.94.09l.31.08a4.91,4.91,0,0,1,.56.18l.36.16a3.63,3.63,0,0,1,.43.24l.36.25.33.27.36.34a1.83,1.83,0,0,1,.21.26,5,5,0,0,1,.34.45v.07a5,5,0,0,1,.61,1.46h0a4.88,4.88,0,0,1-.71,3.94Zm125.72,18.38-.18.22a5,5,0,0,1-.37.35l-.31.26-.37.25c-.14.08-.28.16-.43.23l-.36.16a4.9,4.9,0,0,1-.56.17l-.31.08a5,5,0,0,1-.94.09,4.91,4.91,0,0,1-.89-.09l-.27-.06a4.9,4.9,0,0,1-.59-.18l-.27-.1a5,5,0,0,1-.66-.36,3.27,3.27,0,0,1-.37-.28l-.25-.2a5,5,0,0,1-.39-.38l-.07-.09a5.11,5.11,0,0,1-.47-5.91,3.62,3.62,0,0,1,.22-.32q.15-.2.32-.38l.24-.26a5,5,0,0,1,.63-.52l.16-.09a4.94,4.94,0,0,1,.61-.33l.27-.11a4.9,4.9,0,0,1,.6-.19l.27-.06a4.5,4.5,0,0,1,1.8,0h.19a4.9,4.9,0,0,1,.77.24l.23.1a5,5,0,0,1,.54.29l.33.23a5.07,5.07,0,0,1,.41.34l.28.28a5.07,5.07,0,0,1,.4.49,4.91,4.91,0,0,1-.22,6.08Zm104.15-53a5,5,0,0,1-2.48,4.12h-.07a4.93,4.93,0,0,1-.67.32l-.3.09a4.88,4.88,0,0,1-.54.15,4.48,4.48,0,0,1-2.49-.18l-.25-.08a5,5,0,0,1-.75-.38h0a5,5,0,1,1,7.58-4.26.7.7,0,0,0-.06.23Z"/>
            <rect class="cls-2" y="325.25" width="1798.47" height="335.55"/>
            <g class="cls-59">
                <g class="cls-60">
                    <rect class="cls-61" x="170.88" y="525" width="1455.5" height="1"/>
                </g>
                <rect class="cls-62" x="170.88" y="448" width="1455.5" height="1"/>
                <rect class="cls-63" x="170.88" y="371" width="1455.5" height="1"/>
                <rect class="cls-64" x="170.88" y="294" width="1455.5" height="1"/>
                <rect class="cls-65" x="170.88" y="217" width="1455.5" height="1"/>
                <rect class="cls-66" x="170.88" y="140" width="1455.5" height="1"/>
                <rect class="cls-67" x="170.88" y="602" width="1455.5" height="1"/>
                <rect class="cls-61" x="170.88" y="525" width="1455.5" height="1"/>
            </g>
            <circle class="cls-68" cx="760.47" cy="34.5" r="34.5"/>
            <circle class="cls-68" cx="760.47" cy="34.5" r="18.5"/>
            <circle class="cls-69" cx="760.47" cy="34.5" r="5.5"/>
            <g class="cls-70">
                <text class="cls-71" transform="translate(818.61 96.55)">+</text>
                <text class="cls-72" transform="translate(830.81 96.55)">30%</text>
            </g>
            <g class="cls-73">
                <text class="cls-74" transform="translate(818.61 116.04)">R</text>
                <text class="cls-75" transform="translate(828.85 116.04)">ent Premium</text>
            </g>
            <g class="cls-70">
                <text class="cls-71" transform="translate(818.61 150.02)">+</text>
                <text class="cls-72" transform="translate(830.81 150.02)">100%</text>
            </g>
            <g class="cls-73">
                <text class="cls-74" transform="translate(818.61 169.5)">R</text>
                <text class="cls-75" transform="translate(828.85 169.5)">ent Premium</text>
            </g>
            <g class="cls-70">
                <text class="cls-71" transform="translate(950.14 96.55)">+</text>
                <text class="cls-72" transform="translate(962.34 96.55)">33%</text>
            </g>
            <g class="cls-70">
                <text class="cls-76" transform="translate(950.14 116.04)">Faster</text>
                <text class="cls-77" transform="translate(1003.52 116.04)">L</text>
                <text class="cls-75" transform="translate(1012.2 116.04)">ease-Up</text>
            </g>
            <line class="cls-78" x1="818.61" y1="62.27" x2="943.38" y2="62.27"/>
            <path class="cls-79"
                  d="M847.93,24c.31.87.6,1.74.94,2.6q2.93,7.55,5.87,15.09a1.4,1.4,0,0,0,1.6,1.08,5.8,5.8,0,0,1,1,.12c.1,0,.21.19.24.31s-.16.19-.27.22a1.44,1.44,0,0,1-.45,0l-7.32-.11a7.45,7.45,0,0,1-.94.08c-.31,0-.33-.24-.49-.37.15-.11.28-.3.44-.32.44-.06.89,0,1.34-.09s1-.14,1.64-.23l-1.76-5.16h-6.2c-.52,1.53-1.06,3.09-1.58,4.67-.18.56,0,.71.52.74s1,.06,1.56.12a2.26,2.26,0,0,1,.52.2c-.18.46-.52.48-.87.47-1.44,0-2.89-.08-4.33-.11-.27,0-.55.11-.82.09a2.72,2.72,0,0,1-.65-.2V43a4.19,4.19,0,0,1,.72-.25h.84a1.73,1.73,0,0,0,1.47-1.3l6-15.93c.19-.5.36-1,.54-1.51Zm-1.2,4.83-2.82,7.57h5.67Z"/>
            <path class="cls-79"
                  d="M914.24,24c1,.45,2.1.88,3.13,1.36.43.2.61,0,.82-.31a7.81,7.81,0,0,1,.49-.67c.07-.08.29-.15.33-.11a.49.49,0,0,1,.16.38,28.2,28.2,0,0,0-.42,5.4c0,.17-.18.34-.27.52-.17-.16-.43-.29-.49-.49-.23-.72-.35-1.47-.58-2.18a4.51,4.51,0,0,0-3.93-3.22,5.2,5.2,0,0,0-4.25,1,7,7,0,0,0-2.09,3.16,14.36,14.36,0,0,0-.77,6,10.27,10.27,0,0,0,2,5.92A5.46,5.46,0,0,0,912,42.88a5.71,5.71,0,0,0,4.28-.88,6,6,0,0,0,2.17-3.42c.14-.46.2-.94.36-1.39.06-.18.29-.3.44-.45.11.19.34.4.32.57a26.34,26.34,0,0,0-.09,5.43,1.25,1.25,0,0,1,0,.39,2.67,2.67,0,0,1-.18.43c-.16-.1-.38-.16-.48-.31-.28-.41-.51-.85-.79-1.31a8,8,0,0,1-6.21,1.73,9.46,9.46,0,0,1-5.54-2.41,9.29,9.29,0,0,1-3.14-5.67,10.47,10.47,0,0,1,2.06-8.51,8.28,8.28,0,0,1,5-3l.3-.11Z"/>
            <path class="cls-79"
                  d="M923.91,24.22h6.8a.61.61,0,0,1,.28,0,2.39,2.39,0,0,1,.34.29c-.12.09-.22.25-.35.27a9.24,9.24,0,0,1-1.22.12c-.36,0-.56.15-.57.53,0,1.48-.08,3-.11,4.44v2.68h8.7V26.69a8.87,8.87,0,0,0-.12-1.34c-.09-.53-.58-.44-.93-.52a2.94,2.94,0,0,0-.84,0c-.27,0-.3-.18-.44-.28.13-.1.26-.27.4-.28.84,0,1.69-.08,2.53-.08q2.06,0,4.11.08c.17,0,.33.2.49.31a2.3,2.3,0,0,1-.56.25c-.42.07-.85.06-1.27.14a.46.46,0,0,0-.29.31,11.28,11.28,0,0,0-.12,1.51q0,6.89,0,13.79a16.46,16.46,0,0,0,.11,1.68c.06.56.57.44.91.54a2,2,0,0,0,.78,0c.25,0,.29.18.44.27-.15.09-.31.27-.46.27H936a2,2,0,0,1-.57-.19v-.23c.55-.08,1.1-.19,1.66-.25.31,0,.53-.1.53-.48s.09-.63.09-1V33.42H929v7.13c0,.52.07,1,.11,1.56s.33.46.61.51.78.06,1.16.14a1.67,1.67,0,0,1,.48.28c-.15.09-.31.26-.46.27h-6.67c-.14,0-.29-.16-.43-.24.13-.11.24-.27.39-.3a5.16,5.16,0,0,1,.93-.12c.78,0,.91-.07.92-1V25.94c0-1.06-.06-1.11-1-1.08a2.91,2.91,0,0,1-.94-.12c-.16,0-.28-.26-.42-.39Z"/>
            <path class="cls-79"
                  d="M884.44,27.21V42c0,.47.13.68.62.68a15,15,0,0,1,1.67.12c.15,0,.28.16.42.25-.14.1-.29.29-.43.3h-5.64a2,2,0,0,1-.49-.13V43a3,3,0,0,1,.65-.23,13.43,13.43,0,0,0,1.67-.14.79.79,0,0,0,.51-.5,9.26,9.26,0,0,0,.1-1.63V28.42a11,11,0,0,0-.31-2.36,1.46,1.46,0,0,0-1.52-1.14,9.38,9.38,0,0,1-1.27-.13c-.12,0-.2-.21-.3-.33.13-.08.25-.22.38-.22.82,0,1.65,0,2.47,0a14.81,14.81,0,0,0,2.23-.06.92.92,0,0,1,.92.46c2.07,3,4.17,5.9,6.26,8.84,1,1.48,2.11,3,3.23,4.5V25.57c0-.47-.09-.69-.62-.66a10,10,0,0,1-1.56-.11,2.27,2.27,0,0,1-.52-.19V24.4a3.58,3.58,0,0,1,.86-.22q2.45,0,4.9.06c.15,0,.29.19.44.29-.16.09-.31.24-.48.25-.66,0-1.32,0-2.06.07V43.5l-.18.13a2.48,2.48,0,0,1-.63-.46q-4.79-6.72-9.55-13.46Z"/>
            <path class="cls-79"
                  d="M859.08,24.41a2.87,2.87,0,0,1,.66-.18h6.44a2.33,2.33,0,0,1,.63.19v.25a2.37,2.37,0,0,1-.68.23c-1.87,0-1.59-.12-1.6,1.66V37.8a6.79,6.79,0,0,0,.69,3,3.6,3.6,0,0,0,3.07,1.91,8.59,8.59,0,0,0,2.67-.16,3.77,3.77,0,0,0,3-3.28,39.38,39.38,0,0,0,.36-5.36c.06-2.64,0-5.27,0-7.91,0-.94-.17-1.11-1.12-1.11a3,3,0,0,1-.79,0c-.18,0-.31-.25-.46-.39.16-.09.31-.26.47-.26h4.86c.15,0,.29.19.43.29-.14.09-.28.24-.42.25h-1.24c-.41,0-.73.17-.72.75v6.78c0,1.43.09,2.87,0,4.29a15.46,15.46,0,0,1-.73,3.74,4.85,4.85,0,0,1-4.17,3.18,10.83,10.83,0,0,1-5.51-.44,4.76,4.76,0,0,1-3.23-3.84,17.92,17.92,0,0,1-.23-3V25.84c0-.75-.21-.94-1-1A1.24,1.24,0,0,1,859.08,24.41Z"/>
            <path class="cls-79"
                  d="M825.56,42.63h3.37a23.3,23.3,0,0,0,2.63-.21c2.45-.26,3-1.1,3.26-3.35v-.33c0-.08.27-.44.44-.46s.36.21.36.5q0,2.15,0,4.29c0,.36-.11.51-.49.5l-9.89-.14q-2.2,0-4.4-.11a3,3,0,0,1-.67-.18V42.9a15.23,15.23,0,0,1,1.6-.24c.56,0,.75-.31.75-.81V25.69c0-.63-.17-.78-.8-.78a5.74,5.74,0,0,1-1.07,0c-.17,0-.31-.26-.46-.4.18-.09.36-.26.55-.27h1.52l4.8-.07a1.27,1.27,0,0,1,.5.08c.11,0,.19.18.29.28-.1.09-.18.25-.29.27a7.34,7.34,0,0,1-1.11.12c-.72,0-.85.14-.85.85q0,6.44,0,12.88C825.56,39.91,825.56,41.19,825.56,42.63Z"/>
            <path class="cls-79"
                  d="M848.78,53.55c-.52.13-.85.09-1.12-.35s-.81-1-1.18-1.56a.8.8,0,0,0-.83-.4h-1.1v2.34h-.66V47.8a26.34,26.34,0,0,1,3.13,0,1.55,1.55,0,0,1,1.36,1.59A1.77,1.77,0,0,1,847.14,51l-.21.13Zm-4.2-5.13v2.14h1.89a1.06,1.06,0,0,0,1.12-1.23c0-.58-.42-.89-1.16-.9Z"/>
            <path class="cls-79"
                  d="M879.6,50.22h2.64c.58,0,.58,0,.54.67h-3.23v2H883v.69h-3.94a.43.43,0,0,1-.31-.29V47.74H883c.14.5,0,.66-.53.65h-2.91Z"/>
            <path class="cls-79" d="M914.17,53.57V47.76h4.14v.62h-3.45V50.2h3.21v.69h-3.19v2h3.55v.65Z"/>
            <path class="cls-79"
                  d="M851.79,53.57v-5.8h4.12c.14.47,0,.66-.5.65H852.5v1.81h2.68c.49,0,.66.16.51.67h-3.18v2h3.54v.65Z"/>
            <path class="cls-79"
                  d="M890.43,48.49l-.42.39a2.49,2.49,0,0,0-2.34-.47c-.38.13-.72.28-.75.78s.32.73.71.87c.57.2,1.17.32,1.75.51a1.46,1.46,0,0,1,1.16,1.71h0a1.87,1.87,0,0,1-1.66,1.34,3.15,3.15,0,0,1-2.5-.72c-.18-.17-.38-.32-.13-.6s.42-.08.6.08a2.26,2.26,0,0,0,2.16.56,1,1,0,0,0,.84-.86.86.86,0,0,0-.69-.84l-1.79-.55a1.6,1.6,0,0,1-1.23-1.4,1.7,1.7,0,0,1,1.19-1.45A2.75,2.75,0,0,1,890.43,48.49Z"/>
            <path class="cls-79"
                  d="M864.35,53.55c-.52.17-.8,0-.91-.43a1.27,1.27,0,0,0-1.67-1.1,4,4,0,0,1-.84,0c-.91,0-.9,0-1.25.88-.15.37-.23.89-1,.63.17-.44.33-.88.52-1.31q.94-2.13,1.91-4.25a.48.48,0,0,1,.35-.23.5.5,0,0,1,.4.19C862.73,49.79,863.53,51.66,864.35,53.55Zm-1.7-2.23-1.14-2.66-1.13,2.66Z"/>
            <path class="cls-79"
                  d="M905,53.54a.59.59,0,0,1-.91-.46c-.19-1-.78-1.2-1.66-1a.79.79,0,0,1-.28,0,1.5,1.5,0,0,0-2,1.23c-.09.45-.41.39-.81.29l1.14-2.66c.37-.86.73-1.74,1.14-2.58.11-.23.37-.39.56-.58a2.61,2.61,0,0,1,.49.57c.73,1.62,1.44,3.24,2.15,4.87C904.94,53.27,905,53.39,905,53.54Zm-4-2.24h2.27l-1.11-2.63Z"/>
            <path class="cls-79"
                  d="M893.16,47.75h4.76c.13.6.11.64-.44.65h-1.55v4.71a.61.61,0,0,1-.28.48c-.36.11-.48-.11-.47-.47V48.4h-1.44C893.14,48.4,893.14,48.4,893.16,47.75Z"/>
            <path class="cls-79"
                  d="M911.24,47.76c.14.47,0,.68-.5.65s-1,0-1.54,0V53c0,.24.11.55-.33.57s-.41-.28-.41-.57V48.4H907c-.46,0-.67-.14-.53-.65Z"/>
            <path class="cls-79" d="M867.92,52.93h3.47v.64h-4.15V47.76h.64Z"/>
            <line class="cls-80" x1="760.47" y1="355.5" x2="760.47" y2="29"/>
            <text class="cls-74" transform="translate(435.01 300.19)">R</text>
            <text class="cls-75" transform="translate(445.25 300.19)">ent Premium</text>
            <g class="cls-70">
                <text class="cls-71" transform="translate(435.01 227.24)">+</text>
                <text class="cls-72" transform="translate(447.21 227.24)">30%</text>
            </g>
            <path class="cls-79"
                  d="M540.48,187.27a4.9,4.9,0,0,1-3.52-.92,1.83,1.83,0,0,0-2.46,0,6.4,6.4,0,0,1-4.42,1,5.2,5.2,0,0,1-4.44-3c-.87-1.86-.22-3.5,1-4.9a2.62,2.62,0,0,0,.64-3c-.82-2.23,1.2-4.8,3.89-5.2a9.07,9.07,0,0,1,2,0,2.37,2.37,0,0,1,1.94,3.7c-.14.25-.28.52-.61.5s-.41-.35-.45-.63a2.21,2.21,0,0,0-.83-1.45,2.09,2.09,0,0,0-2.53-.32,1.83,1.83,0,0,0-.88,2.36c1.12,2.94,3.45,4.9,5.83,6.78.33.26.65.14.83-.25a2.11,2.11,0,0,0,0-2.11c-.27-.47-1.58-.51-.85-1.25s1.83-.33,2.76,0a1.06,1.06,0,0,1,.66,1.52c-.18.54-.35,1.09-.55,1.62-1,2.47-.92,2.56,1.4,3.78a4.47,4.47,0,0,1,.61.3c.59.44,2,.14,1.78,1.12C542.18,187.61,540.93,187.17,540.48,187.27ZM528,182.09a3.33,3.33,0,0,0,1.82,3.18,3.51,3.51,0,0,0,3.71,0c.53-.29,1-.61.35-1.27l-4.14-4c-.57-.56-1-.38-1.34.23a3.55,3.55,0,0,0-.4,1.86Z"/>
            <path class="cls-79"
                  d="M437.5,170.68c3.5,0,6.65-.23,9.75.06a7.84,7.84,0,0,1,6.89,7.58c.17,4.39-2.22,7.76-6.18,8.73a25.47,25.47,0,0,1-10-.2c1.6-1,1.42-2.48,1.42-3.94v-8.56C439.34,172.17,439.34,172.17,437.5,170.68Zm4.28,7.92h0v5.47a1.73,1.73,0,0,0,1,1.79c3.07,1.31,7.75-1,8.51-4.29,1.34-5.7-2.42-10-8.25-9.56-1,.08-1.42.39-1.37,1.46a48.82,48.82,0,0,1,.12,5.13Z"/>
            <path class="cls-79"
                  d="M559.75,175.54c-.94-1.65-1.71-3.22-3.58-3.62a6.46,6.46,0,0,0-6.34,1.6c-2,2.07-2,4.67-1.38,7.23a7.21,7.21,0,0,0,6.46,5.51c1.91.12,3.51-.3,4.49-2.13.17-.31.32-.87.84-.65s.3.69.28,1.08c-.06,1.82-.72,2.53-2.58,2.73a33.61,33.61,0,0,1-3.92.31c-4.63,0-8.11-3.19-8.3-7.42-.25-5.59,2.62-9.23,7.64-9.72a27,27,0,0,1,6,.51c.53.06,1.11.27,1.08.9A8.89,8.89,0,0,1,559.75,175.54Z"/>
            <path class="cls-79"
                  d="M471.59,179.09c-.88,4.41-.85,5.81.1,7.49a5.51,5.51,0,0,1-3.19,0c1.36-2,1-4.23,1.39-6.32.25-1.57.3-3.18.46-4.77,0-.38,0-.89.48-1s.67.39.84.72c1.39,2.68,2.75,5.37,4.19,8.18.83-.63,1-1.57,1.33-2.34.94-1.89,1.82-3.81,2.76-5.7.18-.37.36-1,.93-.81s.34.67.38,1.05c.25,2.5.47,5,.76,7.49.15,1.29.16,2.7,1.92,3.21-2.65,1.2-3.65.61-3.68-2a21.87,21.87,0,0,0-.59-5.09,52.34,52.34,0,0,0-3.09,6.29c-.6,1.33-1.1,1.2-1.79.06A52.67,52.67,0,0,1,471.59,179.09Z"/>
            <path class="cls-79"
                  d="M492.24,178.44c.49,2.65-.36,5.49,1.31,8.14-.88.46-2,.11-3,.15-.34,0-.56-.26-.36-.57,1.33-2,.44-4.23.64-6.34.13-1.36,0-2.74,0-4.11,0-.45,0-1,.45-1.22s.8.31,1.1.62c2.55,2.69,5.08,5.39,8,8.48-.35-3.28.24-6.19-1.15-9.06.29-.33.9-.09,1.43-.11,1.07,0,2.22-.35,1.28,1.59-.52,1.07-.13,2.58-.17,3.89a52.2,52.2,0,0,1-.16,5.82c-.15,1.1-.5,1.26-1.37.5a78.66,78.66,0,0,1-6.25-6.57c-.45-.49-.91-1-1.36-1.46Z"/>
            <path class="cls-79"
                  d="M560.81,180.71a6.2,6.2,0,0,1,6.64-6.46c3.32.07,6.17,3.34,6.12,7a6.23,6.23,0,0,1-6.21,6A6.85,6.85,0,0,1,560.81,180.71Zm2.08.06a10.93,10.93,0,0,0,.14,1.37,4.71,4.71,0,0,0,4.5,4,4.55,4.55,0,0,0,4.17-4.46c.29-3.24-1.69-6-4.41-6C564.37,175.53,562.87,177.16,562.89,180.77Z"/>
            <path class="cls-79"
                  d="M454.81,180.56a6.19,6.19,0,0,1,6.62-6.48c3.32.06,6.21,3.34,6.16,7a6.32,6.32,0,0,1-6.38,6.06A6.86,6.86,0,0,1,454.81,180.56Zm6.24-5.11c-2.6,0-4.3,1.84-4.32,4.65,0,3.27,2.11,5.92,4.73,5.86,2.44-.05,4.27-2.24,4.23-5.06-.05-3.22-1.94-5.45-4.64-5.46Z"/>
            <path class="cls-79"
                  d="M519.34,183.62c.34,2.26-.16,3-2.08,3.18a15.85,15.85,0,0,1-2.89.2,6.2,6.2,0,0,1-6-6.37q0-.2,0-.4a6.48,6.48,0,0,1,6.81-6.13l.47,0c.79.07,1.58.21,2.38.29a1.28,1.28,0,0,1,1.31,1.6c-.07.6.21,1.49-.44,1.7s-.66-.74-1-1.15c-1.5-2.09-5.68-1.55-7,.92a5.81,5.81,0,0,0,4.5,8.35C516.66,186,517,185.79,519.34,183.62Z"/>
            <path class="cls-79"
                  d="M489.24,186.57a9.86,9.86,0,0,1-3.92.15c.41-3.94,1-7.77-.21-11.58-.16-.51.09-.62.47-.63H488c.38,0,.77.22.43.62-.92,1.05-.5,2.28-.55,3.44-.07,1.59,0,3.18,0,4.78C487.82,184.5,487.55,185.75,489.24,186.57Z"/>
            <path class="cls-79"
                  d="M503.82,174.74c.14-.08.24-.17.34-.17,2.59-.09,2.53-.09,2.47,2.23-.07,2.56,0,5.12,0,7.68a2.48,2.48,0,0,0,1,2c-.27.49-.65.38-1,.38-.8,0-1.75.24-2.35-.11-1-.6.34-1.21.3-2-.13-2.73-.08-5.46,0-8.19C504.56,175.8,503.92,175.39,503.82,174.74Z"/>
            <g class="cls-73">
                <text class="cls-74" transform="translate(435.01 246.72)">R</text>
                <text class="cls-75" transform="translate(445.25 246.72)">ent Premium</text>
            </g>
            <g class="cls-70">
                <text class="cls-71" transform="translate(435.01 280.7)">+</text>
                <text class="cls-72" transform="translate(447.21 280.7)">100%</text>
            </g>
            <g class="cls-70">
                <text class="cls-71" transform="translate(566.55 227.24)">+</text>
                <text class="cls-72" transform="translate(578.75 227.24)">33%</text>
            </g>
            <g class="cls-70">
                <text class="cls-76" transform="translate(566.55 246.72)">Faster</text>
                <text class="cls-77" transform="translate(619.93 246.72)">L</text>
                <text class="cls-75" transform="translate(628.61 246.72)">ease-Up</text>
            </g>
            <line class="cls-78" x1="435.01" y1="196.96" x2="573.63" y2="196.96"/>
            <line class="cls-81" x1="382.87" y1="484.5" x2="382.87" y2="185.5"/>
            <circle class="cls-68" cx="382.87" cy="185.5" r="34.5"/>
            <circle class="cls-68" cx="382.87" cy="185.5" r="18.5"/>
            <circle class="cls-69" cx="382.87" cy="185.5" r="5.5"/>
            <g class="cls-70">
                <text class="cls-71" transform="translate(1190.21 300.7)">+</text>
                <text class="cls-72" transform="translate(1202.41 300.7)">100%</text>
            </g>
            <g class="cls-73">
                <text class="cls-74" transform="translate(1190.21 320.19)">R</text>
                <text class="cls-75" transform="translate(1200.45 320.19)">ent Premium</text>
            </g>
            <g class="cls-70">
                <text class="cls-71" transform="translate(1190.21 247.24)">+</text>
                <text class="cls-72" transform="translate(1202.41 247.24)">30%</text>
            </g>
            <g class="cls-73">
                <text class="cls-74" transform="translate(1190.21 266.72)">R</text>
                <text class="cls-75" transform="translate(1200.45 266.72)">ent Premium</text>
            </g>
            <g class="cls-70">
                <text class="cls-71" transform="translate(1321.74 247.24)">+</text>
                <text class="cls-72" transform="translate(1333.94 247.24)">33%</text>
            </g>
            <g class="cls-70">
                <text class="cls-76" transform="translate(1321.74 266.72)">Faster</text>
                <text class="cls-77" transform="translate(1375.12 266.72)">L</text>
                <text class="cls-75" transform="translate(1383.8 266.72)">ease-Up</text>
            </g>
            <line class="cls-78" x1="1190.21" y1="208.96" x2="1310.38" y2="208.96"/>
            <circle class="cls-68" cx="1141.87" cy="181.43" r="29.43"/>
            <circle class="cls-68" cx="1141.87" cy="181.43" r="15.78"/>
            <circle class="cls-69" cx="1141.87" cy="181.43" r="4.69"/>
            <line class="cls-82" x1="1141.87" y1="454.5" x2="1141.87" y2="184.41"/>
            <path class="cls-79"
                  d="M1230.19,191.16V176.85c0-1.6-1-1.72-2.23-1.73s-2.22.14-2.21,1.74v14.31c0,1.61,1.05,1.7,2.24,1.71S1230.24,192.77,1230.19,191.16Z"/>
            <path class="cls-79"
                  d="M1237.11,190.93v-21.7c0-1.68-.4-2-2.25-2s-2.17.29-2.17,1.89V191c0,1.65.36,1.9,2.31,1.89C1236.77,192.87,1237.1,192.6,1237.11,190.93Z"/>
            <path class="cls-79"
                  d="M1238.24,197.69c-.46.13-.87.52-1.42.21-.88-.51-1.08.11-1.12.77-.05,1,0,2,0,3h0v2.85c0,.44,0,1,.55,1.09s.72-.52.8-1-.09-1.13.83-1.09c2.85.12,4.22-1.93,3.05-4.51a2.08,2.08,0,0,0-2.62-1.35Z"/>
            <path class="cls-79"
                  d="M1218.94,195.6c-2,0-2.2.15-2.21,2.23v4.37c0,.53-.11,1.24.66,1.31s.94-.56.93-1.13c0-1.22.59-1.59,1.72-1.77a2.55,2.55,0,0,0,2.1-3.36C1221.62,195.67,1220.24,195.62,1218.94,195.6Z"/>
            <path class="cls-79"
                  d="M1231.24,197.54a2.86,2.86,0,0,0-3.14,3c-.06,2,.86,3.07,2.61,3.15a2.88,2.88,0,0,0,3.31-3,2.74,2.74,0,0,0-2.78-3.15Z"/>
            <path class="cls-79"
                  d="M1226.44,197.66c-.42.13-.91.55-1.21.44-1.4-.53-1.23.46-1.29,1.23v1.34h0a15.28,15.28,0,0,0,.11,2.24.58.58,0,0,0,.57.59h0a.62.62,0,0,0,.63-.53,3.88,3.88,0,0,0,.1-.89c0-1.4-.17-2.87,1.69-3.37a.49.49,0,0,0,.22-.75A.63.63,0,0,0,1226.44,197.66Z"/>
            <path class="cls-79"
                  d="M1249.06,167.88c-1.89,0-2.54.63-2.52,2.36s.66,2.17,2.54,2.17,2.54-.61,2.52-2.35S1250.9,167.87,1249.06,167.88Z"/>
            <path class="cls-79"
                  d="M1225.45,170.07a2.15,2.15,0,0,0,2.34,2.48,2.32,2.32,0,0,0,2.69-2.31c0-1.69-.67-2.36-2.52-2.36S1225.44,168.47,1225.45,170.07Z"/>
            <path class="cls-79"
                  d="M1218.7,191c.66-2.68,1.42-5.34,2.12-8q1.71-6.48,3.41-13c.2-.77.51-1.61-.33-2.2a3,3,0,0,0-4.31,1.6q-1.86,7.92-3.69,15.85c-.14.61,0,1.32-.65,1.79-.64-.43-.59-1.15-.74-1.75-1.32-5.21-2.6-10.43-3.92-15.64-.51-2-.8-2.15-3.46-2.11-2,0-2.33.25-2.79,2.19q-1.9,7.91-3.79,15.83a2.34,2.34,0,0,1-.61,1.45c-.48-.34-.48-.82-.58-1.25l-3.7-16.16c-.45-2-1.87-2.67-4.32-2-1.81.51-.94,1.89-.7,2.87,1.58,6.28,3.24,12.55,4.89,18.81.93,3.52.94,3.52,4.5,3.52,2.64,0,3-.27,3.61-2.82,1-4.1,1.95-8.21,2.94-12.31a2.59,2.59,0,0,1,.7-1.6,2.51,2.51,0,0,1,.59,1.44c.94,3.7,1.86,7.41,2.8,11.11,1.07,4.2.34,4.32,5.82,4.16A2.11,2.11,0,0,0,1218.7,191Z"/>
            <path class="cls-79"
                  d="M1252.24,197.64c-2.14-.14-2.7.41-2.71,2.64v.45h0v2c0,.35.09.74.56.75s.61-.32.69-.68a3.62,3.62,0,0,0,.1-.89c0-1.35,0-2.65,1.64-3.12a.51.51,0,0,0,.3-.74A.62.62,0,0,0,1252.24,197.64Z"/>
            <path class="cls-79"
                  d="M1289.24,178.71c1.54-.06,2.54,1.15,2.73,3.34.06.65.05,1.3.06,2V191c0,1.65.36,1.93,2.13,1.93s2.27-.33,2.28-2v-9.8a8.69,8.69,0,0,0-.64-3.08,4.7,4.7,0,0,0-4.2-3.17,6.72,6.72,0,0,0-5.62,2c-.7.68-1.16.72-1.78-.11a5.17,5.17,0,0,0-4.23-1.93,6.88,6.88,0,0,0-4.64,1.88c-.44.36-1,1-1.21-.24-.22-1.57-1.41-1.31-2.43-1.27s-1.35.84-1.35,1.79v7.08h0V191c0,.59-.09,1.31.56,1.61a3.91,3.91,0,0,0,3.08,0c.87-.33.78-1.21.78-2v-8a4.25,4.25,0,0,1,3.58-4c1.68-.06,2.66,1.26,2.78,3.77v8.44c0,1.65.42,2,2.27,2s2.13-.32,2.15-1.93v-8.59A4.14,4.14,0,0,1,1289.24,178.71Z"/>
            <path class="cls-79"
                  d="M1278.24,197.54c-1.93,0-3,1.15-3,3.33a2.56,2.56,0,0,0,2.9,2.86,2.9,2.9,0,0,0,3-3.22,2.78,2.78,0,0,0-2.58-3Z"/>
            <path class="cls-79"
                  d="M1267.59,185.63c0-1.86.07-3.72,0-5.58a5,5,0,0,0-4.61-5.11,14.73,14.73,0,0,0-6.28.35,4.66,4.66,0,0,0-2.56,1.5A1.83,1.83,0,0,0,1254,179c.52.77,1.24.42,1.9.17s1.21-.5,1.83-.69a6.4,6.4,0,0,1,3.56-.26,2.74,2.74,0,0,1,2,3.12c-.19,1.53-1.42,1-2.25,1a14.31,14.31,0,0,0-4.73.77c-2.72,1-3.81,3-3.35,5.95a5,5,0,0,0,4.8,4,6.79,6.79,0,0,0,5-1.25c.56-.44,1-.8,1.46.23s1.53.76,2.4.67,1-.83,1-1.57v-5.55Zm-7.93,4.4a2.16,2.16,0,0,1-2.39-1.82,2.32,2.32,0,0,1,1.78-2.76l.11,0a12.67,12.67,0,0,1,3.28-.16c.75,0,.86.53.88,1.13a3.52,3.52,0,0,1-3.44,3.6h-.22Z"/>
            <path class="cls-79"
                  d="M1272.72,202.46c-1.86.1-2.77-.76-2.81-2.64,0-2.16.88-3.22,2.8-3.18.44,0,1.06.17,1.14-.39s-.61-.7-1.06-.8c-2.55-.56-4.51,1.29-4.49,4.22s1.88,4.54,4.5,4c.47-.1,1.15-.15,1.06-.81S1273.16,202.44,1272.72,202.46Z"/>
            <path class="cls-79"
                  d="M1308.24,183.5c-1.42-1-3.15-1.3-4.62-2.17-.73-.43-1.33-1-1.09-1.93a1.88,1.88,0,0,1,1.71-1.4,5.57,5.57,0,0,1,3.38.5c1.6.81,2,.09,1.84-1.55a1.9,1.9,0,0,0-1.53-1.66,10.47,10.47,0,0,0-5.79-.16,5.06,5.06,0,0,0-3.95,4.25c-.28,2.4.5,3.92,2.8,5.15,1.24.66,2.56,1.17,3.81,1.79a1.8,1.8,0,0,1,1.13,2.07,1.89,1.89,0,0,1-1.71,1.47,7.18,7.18,0,0,1-4.11-.6c-.54-.21-1.1-.72-1.67-.2s-.36,1.21-.29,1.86a2,2,0,0,0,1.4,1.61,9.68,9.68,0,0,0,4,.65,8.18,8.18,0,0,0,4.07-.88,4.84,4.84,0,0,0,2.77-4.17A4.7,4.7,0,0,0,1308.24,183.5Z"/>
            <path class="cls-79"
                  d="M1263.46,197.74c-.56-.23-.84.2-1,.63-.28.75-.51,1.52-.76,2.28-.08.24-.14.52-.44.54s-.39-.27-.48-.49c-.29-.74-.56-1.5-.86-2.24-.15-.37-.35-.74-.86-.75-.62.18-.5.67-.37,1.09.39,1.24.82,2.47,1.24,3.7a3.18,3.18,0,0,1,.33,1.89c-.13.49-.59,1.14.29,1.34.68.16.95-.44,1.13-1q1-3,2-6C1263.83,198.39,1264,197.94,1263.46,197.74Z"/>
            <path class="cls-79"
                  d="M1247.06,198.06a2.63,2.63,0,0,0-3-.18,2.38,2.38,0,0,0-1.32,2.85c.09,2.32,1.44,3.41,3.61,3,.39-.08.92-.13.9-.61s-.59-.39-.95-.37c-.88.07-2,.13-2-1s1.2-.62,1.87-.76,1.51.13,1.7-.82A2,2,0,0,0,1247.06,198.06Z"/>
            <path class="cls-79"
                  d="M1251.24,191V176.87c0-1.71-1.12-1.74-2.34-1.77s-2.16.22-2.12,1.8c.06,2.35,0,4.71,0,7.07v6.92c0,1.6.44,2,2.14,2S1251.24,192.52,1251.24,191Z"/>
            <path class="cls-79"
                  d="M1244.36,190.8V169.1c0-1.53-.58-2-2.16-2s-2.24.46-2.25,2.07V180h0v10.7c0,1.86.29,2.13,2.05,2.15S1244.35,192.52,1244.36,190.8Z"/>
            <path class="cls-79"
                  d="M1257.13,198.64a2.9,2.9,0,0,0,.33-.37c-.15-.81-1-.55-1.28-1s-.42-1.35-1.06-.89-1.43,1.46-1,2.11c.71,1.2.49,2.42.66,3.63a1.57,1.57,0,0,0,1.56,1.58l.27,0a.69.69,0,0,0,.68-.5c.08-.31-.22-.39-.4-.55a2.5,2.5,0,0,1,.24-4Z"/>
            <path class="cls-79"
                  d="M1239.66,200.76c-.08.9-.2,1.75-1.2,1.7-1.15-.06-1.42-.94-1.35-1.95s.38-1.7,1.35-1.67C1239.76,198.87,1239.55,200,1239.66,200.76Z"/>
            <path class="cls-79"
                  d="M1232.61,200.57c-.12,1-.3,2-1.47,2s-1.54-.92-1.55-1.95.25-1.87,1.42-1.92S1232.45,199.67,1232.61,200.57Z"/>
            <path class="cls-79"
                  d="M1276.62,200.7c.07-1.07.29-2,1.47-2s1.55,1,1.52,2-.32,1.89-1.48,1.89S1276.72,201.57,1276.62,200.7Z"/>
        </g>
    </g>
</svg>