<svg xmlns="http://www.w3.org/2000/svg" xmlns:xlink="http://www.w3.org/1999/xlink" width="615.52" height="472.8" viewBox="0 0 615.52 472.8"><defs><style>.cls-1{opacity:0.15;}.cls-2{fill:url(#Degradado_sin_nombre_31);}</style><linearGradient id="Degradado_sin_nombre_31" x1="456.78" y1="36.12" x2="-55.22" y2="724.12" gradientUnits="userSpaceOnUse"><stop offset="0" stop-color="#022c81" stop-opacity="0"/><stop offset="1" stop-color="#1245fb"/></linearGradient></defs><g><g><g class="cls-1"><path class="cls-2" d="M615.48,472.8a158,158,0,0,1-19.43-3c-26.35-5.82-50.82-18.12-73-33.26-22.63-15.44-43-33.85-62.49-53.06-20-19.73-39.22-40.2-59.84-59.27-20.41-18.87-42.31-36.42-66.85-49.65-24.19-13-50.45-21.59-76.89-28.73-26.75-7.21-53.86-13-80.45-20.84-26.08-7.66-51.84-17.32-74.94-31.86A212.73,212.73,0,0,1,46.77,143a221.79,221.79,0,0,1-35-65.89A211.36,211.36,0,0,1,3.23,40.81C1.3,27.27,2,13.5,0,0H615.52Z"/></g></g></g></svg>