<svg xmlns="http://www.w3.org/2000/svg" xmlns:xlink="http://www.w3.org/1999/xlink" width="76.69" height="99.19" viewBox="0 0 76.69 99.19"><defs><style>.cls-1{fill:url(#Degradado_sin_nombre_13);}.cls-2{fill:url(#Degradado_sin_nombre_8);}.cls-3{fill:url(#Degradado_sin_nombre_13-2);}.cls-4,.cls-5,.cls-6{opacity:0.7;}.cls-4{fill:url(#Degradado_sin_nombre_327);}.cls-5{fill:url(#Degradado_sin_nombre_327-2);}.cls-6{fill:url(#Degradado_sin_nombre_327-3);}.cls-12,.cls-7,.cls-8,.cls-9{opacity:0.5;}.cls-7{fill:url(#Degradado_sin_nombre_327-4);}.cls-8{fill:url(#Degradado_sin_nombre_327-5);}.cls-9{fill:url(#Degradado_sin_nombre_327-6);}.cls-10{fill:url(#Degradado_sin_nombre_80);}.cls-11{fill:url(#Degradado_sin_nombre_80-2);}.cls-13{fill:url(#Degradado_sin_nombre_381);}</style><radialGradient id="Degradado_sin_nombre_13" cx="-26.68" cy="22.91" r="97.96" gradientUnits="userSpaceOnUse"><stop offset="0" stop-color="#1440bd"/><stop offset="0.5" stop-color="#133fbb"/><stop offset="0.68" stop-color="#113db4"/><stop offset="0.81" stop-color="#0e39a9"/><stop offset="0.91" stop-color="#093398"/><stop offset="1" stop-color="#022c82"/></radialGradient><radialGradient id="Degradado_sin_nombre_8" cx="35.47" cy="21.45" r="76.88" gradientTransform="matrix(-0.38, 0.93, -0.81, -0.33, 66.26, -4.34)" gradientUnits="userSpaceOnUse"><stop offset="0" stop-color="#022c82"/><stop offset="0.86" stop-color="#022c82"/><stop offset="1" stop-color="#022c82"/></radialGradient><radialGradient id="Degradado_sin_nombre_13-2" cx="10.71" cy="7.29" r="99.11" gradientTransform="translate(7.86 -4) rotate(52.75) scale(1 0.63)" xlink:href="#Degradado_sin_nombre_13"/><linearGradient id="Degradado_sin_nombre_327" x1="8.1" y1="13.66" x2="8.1" y2="87.45" gradientUnits="userSpaceOnUse"><stop offset="0" stop-color="#040419"/><stop offset="1" stop-color="#040419" stop-opacity="0"/></linearGradient><linearGradient id="Degradado_sin_nombre_327-2" x1="13.94" y1="13.66" x2="13.94" y2="87.45" xlink:href="#Degradado_sin_nombre_327"/><linearGradient id="Degradado_sin_nombre_327-3" x1="19.79" y1="13.66" x2="19.79" y2="87.45" xlink:href="#Degradado_sin_nombre_327"/><linearGradient id="Degradado_sin_nombre_327-4" x1="-2928.17" y1="14.27" x2="-2928.17" y2="83.79" gradientTransform="matrix(-1, 0, 0, 1, -2875.67, 0)" xlink:href="#Degradado_sin_nombre_327"/><linearGradient id="Degradado_sin_nombre_327-5" x1="-2922.33" y1="14.27" x2="-2922.33" y2="83.79" gradientTransform="matrix(-1, 0, 0, 1, -2875.67, 0)" xlink:href="#Degradado_sin_nombre_327"/><linearGradient id="Degradado_sin_nombre_327-6" x1="-2916.49" y1="14.27" x2="-2916.49" y2="83.79" gradientTransform="matrix(-1, 0, 0, 1, -2875.67, 0)" xlink:href="#Degradado_sin_nombre_327"/><linearGradient id="Degradado_sin_nombre_80" x1="68.26" y1="60.04" x2="36.31" y2="90.04" gradientUnits="userSpaceOnUse"><stop offset="0" stop-color="#fe6f20"/><stop offset="1" stop-color="#fed563"/></linearGradient><linearGradient id="Degradado_sin_nombre_80-2" x1="29.06" y1="72.73" x2="76.69" y2="72.73" xlink:href="#Degradado_sin_nombre_80"/><linearGradient id="Degradado_sin_nombre_381" x1="46.86" y1="74.65" x2="37.97" y2="83" gradientTransform="translate(65.49 -8.28) rotate(43.4)" gradientUnits="userSpaceOnUse"><stop offset="0" stop-color="#fe6f20"/><stop offset="1" stop-color="#fe6f20" stop-opacity="0"/></linearGradient></defs><title>searching-icon1</title><g id="Слой_2" data-name="Слой 2"><g id="Capa_1" data-name="Capa 1"><polygon class="cls-1" points="29.06 0 0 15.68 30.44 30.9 61.34 15.68 29.06 0"/><polygon class="cls-2" points="0 15.68 0 74.03 30.44 89.25 30.44 30.9 0 15.68"/><polygon class="cls-3" points="61.34 15.68 61.34 74.03 30.44 89.25 30.44 30.9 61.34 15.68"/><polygon class="cls-4" points="6.86 25.03 9.35 26.64 9.35 67.33 9.35 77.45 6.86 75.75 6.86 25.03"/><polygon class="cls-5" points="12.7 28.8 15.19 30.41 15.19 71.11 15.19 81.23 12.7 79.53 12.7 28.8"/><polygon class="cls-6" points="18.54 32.58 21.03 34.19 21.03 74.89 21.03 85 18.54 83.31 18.54 32.58"/><polygon class="cls-7" points="53.75 25.03 51.26 26.64 51.26 67.33 51.26 77.45 53.75 75.75 53.75 25.03"/><polygon class="cls-8" points="47.91 28.8 45.42 30.41 45.42 71.11 45.42 81.23 47.91 79.53 47.91 28.8"/><polygon class="cls-9" points="42.06 32.58 39.57 34.19 39.57 74.89 39.57 85 42.06 83.31 42.06 32.58"/><path class="cls-10" d="M62.53,51.26a14.16,14.16,0,0,0-13.8,17.35L30.58,86.17a5,5,0,0,0-1.52,3.28l.1,7.35a2.42,2.42,0,0,0,2.41,2.38H38a2.23,2.23,0,0,0,2.16-2.77l0-.08a3.07,3.07,0,0,1,3-3.82H44a4.13,4.13,0,0,0,4.13-4.34,4.31,4.31,0,0,1,3.77-4.49l1.54-.19a4.85,4.85,0,0,0,4.25-4.74,14.17,14.17,0,1,0,4.82-27.49Zm3.75,14.17a4.17,4.17,0,1,1,4.17-4.17A4.17,4.17,0,0,1,66.28,65.43Z"/><path class="cls-11" d="M62.53,48.76a14.16,14.16,0,0,0-13.8,17.35L30.58,83.67a5,5,0,0,0-1.52,3.28l.1,7.35a2.42,2.42,0,0,0,2.41,2.38H38a2.23,2.23,0,0,0,2.16-2.77l0-.08a3.07,3.07,0,0,1,3-3.82H44a4.13,4.13,0,0,0,4.13-4.34,4.31,4.31,0,0,1,3.77-4.49L53.46,81a4.85,4.85,0,0,0,4.25-4.74,14.17,14.17,0,1,0,4.82-27.49Zm3.75,14.17a4.17,4.17,0,1,1,4.17-4.17A4.17,4.17,0,0,1,66.28,62.93Z"/><g class="cls-12"><rect class="cls-13" x="32.54" y="77.1" width="21.22" height="2.08" rx="1.04" ry="1.04" transform="translate(-41.89 51.01) rotate(-43.4)"/></g></g></g></svg>