<svg xmlns="http://www.w3.org/2000/svg" xmlns:xlink="http://www.w3.org/1999/xlink" width="74.07" height="66.64" viewBox="0 0 74.07 66.64"><defs><style>.cls-1{fill:#f4f7f9;}.cls-2{fill:url(#Degradado_sin_nombre_2);}.cls-3{fill:url(#Degradado_sin_nombre_80);}.cls-4{fill:url(#Degradado_sin_nombre_113);}.cls-5{fill:url(#Degradado_sin_nombre_113-2);}.cls-6{fill:url(#Degradado_sin_nombre_43);}.cls-7{fill:url(#Degradado_sin_nombre_13);}.cls-8{fill:url(#Degradado_sin_nombre_393);}.cls-9{fill:url(#Degradado_sin_nombre_393-2);}.cls-10{fill:url(#Degradado_sin_nombre_392);}.cls-11{fill:url(#Degradado_sin_nombre_392-2);}.cls-12{fill:url(#Degradado_sin_nombre_392-3);}.cls-13{fill:url(#Degradado_sin_nombre_392-4);}.cls-14{fill:url(#Degradado_sin_nombre_31);}.cls-15{fill:url(#Degradado_sin_nombre_80-2);}.cls-16{fill:url(#Degradado_sin_nombre_54);}.cls-17{fill:url(#Degradado_sin_nombre_371);}.cls-18{fill:url(#Degradado_sin_nombre_80-3);}</style><linearGradient id="Degradado_sin_nombre_2" x1="-244.52" y1="-308.31" x2="-238" y2="-308.31" gradientTransform="translate(-263.63 268.54) rotate(90)" gradientUnits="userSpaceOnUse"><stop offset="0" stop-color="#c9daf4"/><stop offset="1" stop-color="#a7bde4"/></linearGradient><linearGradient id="Degradado_sin_nombre_80" x1="46.11" y1="15.63" x2="52.62" y2="15.63" gradientUnits="userSpaceOnUse"><stop offset="0" stop-color="#fe6f20"/><stop offset="1" stop-color="#fed563"/></linearGradient><linearGradient id="Degradado_sin_nombre_113" x1="30.82" y1="-17.74" x2="30.82" y2="25.73" gradientUnits="userSpaceOnUse"><stop offset="0" stop-color="#fff"/><stop offset="1" stop-color="#a7bde4"/></linearGradient><linearGradient id="Degradado_sin_nombre_113-2" x1="35.15" y1="8.88" x2="35.15" y2="76.81" xlink:href="#Degradado_sin_nombre_113"/><linearGradient id="Degradado_sin_nombre_43" x1="-44.36" y1="7.25" x2="4.67" y2="7.25" gradientUnits="userSpaceOnUse"><stop offset="0" stop-color="#1440bd"/><stop offset="0.5" stop-color="#133fbb"/><stop offset="0.68" stop-color="#113db4"/><stop offset="0.81" stop-color="#0e39a9"/><stop offset="0.91" stop-color="#093398"/><stop offset="1" stop-color="#022c82"/></linearGradient><radialGradient id="Degradado_sin_nombre_13" cx="69.97" cy="10.64" r="84.24" xlink:href="#Degradado_sin_nombre_43"/><linearGradient id="Degradado_sin_nombre_393" x1="22.01" y1="9.65" x2="48.55" y2="9.65" gradientUnits="userSpaceOnUse"><stop offset="0" stop-color="#114395"/><stop offset="1" stop-color="#001f71"/></linearGradient><linearGradient id="Degradado_sin_nombre_393-2" x1="51.64" y1="38.03" x2="-9.12" y2="38.03" xlink:href="#Degradado_sin_nombre_393"/><linearGradient id="Degradado_sin_nombre_392" x1="19.48" y1="18.4" x2="19.48" y2="29.53" gradientUnits="userSpaceOnUse"><stop offset="0" stop-color="#a7bde4"/><stop offset="0.96" stop-color="#a7bde4"/></linearGradient><linearGradient id="Degradado_sin_nombre_392-2" x1="51.64" y1="51.54" x2="-9.12" y2="51.54" xlink:href="#Degradado_sin_nombre_392"/><linearGradient id="Degradado_sin_nombre_392-3" x1="51.64" y1="38.03" x2="-9.12" y2="38.03" xlink:href="#Degradado_sin_nombre_392"/><linearGradient id="Degradado_sin_nombre_392-4" x1="51.64" y1="24.51" x2="-9.12" y2="24.51" xlink:href="#Degradado_sin_nombre_392"/><radialGradient id="Degradado_sin_nombre_31" cx="60.64" cy="45.98" r="22" gradientUnits="userSpaceOnUse"><stop offset="0" stop-color="#1440bd"/><stop offset="0.4" stop-color="#1440bc" stop-opacity="0.99"/><stop offset="0.54" stop-color="#133fba" stop-opacity="0.95"/><stop offset="0.64" stop-color="#123eb7" stop-opacity="0.89"/><stop offset="0.72" stop-color="#103cb2" stop-opacity="0.8"/><stop offset="0.79" stop-color="#0e3aab" stop-opacity="0.69"/><stop offset="0.85" stop-color="#0c37a2" stop-opacity="0.54"/><stop offset="0.91" stop-color="#093498" stop-opacity="0.37"/><stop offset="0.96" stop-color="#05308d" stop-opacity="0.18"/><stop offset="1" stop-color="#022d83" stop-opacity="0"/></radialGradient><linearGradient id="Degradado_sin_nombre_80-2" x1="66.39" y1="43.85" x2="66.39" y2="20.81" xlink:href="#Degradado_sin_nombre_80"/><radialGradient id="Degradado_sin_nombre_54" cx="56.58" cy="37.28" r="23.13" xlink:href="#Degradado_sin_nombre_393"/><linearGradient id="Degradado_sin_nombre_371" x1="64.76" y1="38.82" x2="63.85" y2="40.5" gradientUnits="userSpaceOnUse"><stop offset="0.02" stop-color="#fe6f20"/><stop offset="1" stop-color="#fe6f20" stop-opacity="0"/></linearGradient><linearGradient id="Degradado_sin_nombre_80-3" x1="22.01" y1="7.65" x2="48.55" y2="7.65" xlink:href="#Degradado_sin_nombre_80"/></defs><title>searching-icon3</title><g id="Слой_2" data-name="Слой 2"><g id="Capa_1" data-name="Capa 1"><circle class="cls-1" cx="37.04" cy="32.28" r="26.66"/><path class="cls-2" d="M44.49,30.54a3.26,3.26,0,0,0,.75-6.42,3.25,3.25,0,0,1-3.63,4.7A3.26,3.26,0,0,0,44.49,30.54Z"/><circle class="cls-3" cx="49.36" cy="15.63" r="3.26"/><path class="cls-4" d="M61.64,4.64l-51-2c-3.28,0,1.86,6.59,0,9-1.33,1.72,4,3-10.64,3V55.12a6.11,6.11,0,0,0,6.11,6.11H54.64Z"/><path class="cls-5" d="M55.64,2.64l-51,12,.09,40.49a6.11,6.11,0,0,0,6.11,6.1H54.64V47.64l11,4,0-37C65.64,8.3,62,2.64,55.64,2.64Z"/><path class="cls-6" d="M56,0H5.21A5.21,5.21,0,0,0,0,5.21v9.28H61.23V5.21A5.21,5.21,0,0,0,56,0Z"/><path class="cls-7" d="M60.76,0H10A5.21,5.21,0,0,0,4.74,5.21v9.28H66V5.21A5.21,5.21,0,0,0,60.76,0Z"/><rect class="cls-8" x="22.01" y="8.03" width="26.54" height="3.26" rx="1.63" ry="1.63"/><rect class="cls-9" x="15.49" y="34.04" width="7.98" height="7.98"/><rect class="cls-10" x="15.49" y="20.52" width="7.98" height="7.98"/><rect class="cls-11" x="15.49" y="47.55" width="7.98" height="7.98"/><rect class="cls-12" x="31.45" y="34.04" width="7.98" height="7.98"/><rect class="cls-13" x="31.45" y="20.52" width="7.98" height="7.98"/><rect class="cls-11" x="31.45" y="47.55" width="7.98" height="7.98"/><rect class="cls-12" x="47.25" y="34.04" width="7.98" height="7.98"/><rect class="cls-13" x="47.25" y="20.52" width="7.98" height="7.98"/><rect class="cls-11" x="47.25" y="47.55" width="7.98" height="7.98"/><path class="cls-14" d="M72.63,66.64H54.34L53,47.38a2.71,2.71,0,0,1,1.48-2.72l4.76-2.25a7.43,7.43,0,0,1,3.19-.72h2.14a7.42,7.42,0,0,1,3.13.7l4.92,2.28a2.71,2.71,0,0,1,1.49,2.73Z"/><path class="cls-15" d="M71.33,25.89H66.89a2.77,2.77,0,0,0-2.77,2.77v1.67a1.72,1.72,0,0,0-1.72,1.72v2.72a2.12,2.12,0,0,1-2.12,2.12v5.85l2.94,5,2.91-5V39.6h1a3.22,3.22,0,0,0,3.22-3.22V34.77h1.32a.81.81,0,0,0,.8-.93Z"/><path class="cls-16" d="M73,23.77a2.12,2.12,0,0,0-2.12-2.12h-8.5a2.12,2.12,0,0,0-2.12,2.12h0a2.12,2.12,0,0,0-2.12,2.18V34.7a2.17,2.17,0,0,0,2.08,2.19,2.12,2.12,0,0,0,2.16-2.12V32.06a1.72,1.72,0,0,1,1.72-1.72V28.66a2.77,2.77,0,0,1,2.77-2.77h4.25v0A2.12,2.12,0,0,0,73,23.77Z"/><polygon class="cls-17" points="66.13 39.47 60.78 39.47 66.13 43.04 66.13 39.47"/><rect class="cls-18" x="22.01" y="6.03" width="26.54" height="3.26" rx="1.63" ry="1.63"/></g></g></svg>