<svg xmlns="http://www.w3.org/2000/svg" xmlns:xlink="http://www.w3.org/1999/xlink" width="74.7" height="73.5" viewBox="0 0 74.7 73.5"><defs><style>.cls-1{opacity:0.1;fill:url(#Degradado_sin_nombre_327);}.cls-2{fill:url(#Degradado_sin_nombre_13);}.cls-3{opacity:0.4;fill:url(#Degradado_sin_nombre_327-2);}.cls-4{opacity:0.2;fill:url(#Degradado_sin_nombre_327-3);}.cls-5{opacity:0.3;fill:url(#Degradado_sin_nombre_327-4);}.cls-6{fill:url(#Degradado_sin_nombre_80);}.cls-10,.cls-7,.cls-8,.cls-9{opacity:0.5;}.cls-7{fill:url(#Degradado_sin_nombre_371);}.cls-8{fill:url(#Degradado_sin_nombre_371-2);}.cls-9{fill:url(#Degradado_sin_nombre_371-3);}.cls-10{fill:url(#Degradado_sin_nombre_371-4);}.cls-11{fill:url(#Degradado_sin_nombre_371-5);}</style><linearGradient id="Degradado_sin_nombre_327" x1="-8.76" y1="13.01" x2="57.08" y2="13.01" gradientTransform="translate(73.5 26.02) rotate(-180)" gradientUnits="userSpaceOnUse"><stop offset="0" stop-color="#040419"/><stop offset="1" stop-color="#040419" stop-opacity="0"/></linearGradient><radialGradient id="Degradado_sin_nombre_13" cx="50.75" cy="10.07" r="47.94" gradientTransform="translate(73.5 18.14) rotate(180)" gradientUnits="userSpaceOnUse"><stop offset="0" stop-color="#1440bd"/><stop offset="0.5" stop-color="#133fbb"/><stop offset="0.68" stop-color="#113db4"/><stop offset="0.81" stop-color="#0e39a9"/><stop offset="0.91" stop-color="#093398"/><stop offset="1" stop-color="#022c82"/></radialGradient><linearGradient id="Degradado_sin_nombre_327-2" x1="4.76" y1="8.82" x2="17.08" y2="8.82" gradientTransform="matrix(1, 0, 0, 1, 0, 0)" xlink:href="#Degradado_sin_nombre_327"/><linearGradient id="Degradado_sin_nombre_327-3" x1="0" y1="35.95" x2="73.5" y2="35.95" gradientTransform="translate(73.5 71.89) rotate(-180)" xlink:href="#Degradado_sin_nombre_327"/><linearGradient id="Degradado_sin_nombre_327-4" x1="5.04" y1="35.7" x2="16.8" y2="35.7" gradientTransform="matrix(1, 0, 0, 1, 0, 0)" xlink:href="#Degradado_sin_nombre_327"/><linearGradient id="Degradado_sin_nombre_80" x1="54.15" y1="69.24" x2="54.15" y2="18.63" gradientUnits="userSpaceOnUse"><stop offset="0" stop-color="#fe6f20"/><stop offset="1" stop-color="#fed563"/></linearGradient><linearGradient id="Degradado_sin_nombre_371" x1="64.94" y1="28.08" x2="71.58" y2="37.18" gradientTransform="translate(-3.43 7.82) rotate(-6.21)" gradientUnits="userSpaceOnUse"><stop offset="0.02" stop-color="#fe6f20"/><stop offset="1" stop-color="#fe6f20" stop-opacity="0"/></linearGradient><linearGradient id="Degradado_sin_nombre_371-2" x1="57.85" y1="23.66" x2="64.5" y2="32.75" gradientTransform="translate(-2.99 7.02) rotate(-6.21)" xlink:href="#Degradado_sin_nombre_371"/><linearGradient id="Degradado_sin_nombre_371-3" x1="49.89" y1="20.11" x2="56.53" y2="29.21" gradientTransform="translate(-2.65 6.14) rotate(-6.21)" xlink:href="#Degradado_sin_nombre_371"/><linearGradient id="Degradado_sin_nombre_371-4" x1="41.94" y1="-14.11" x2="53.08" y2="1.15" gradientTransform="translate(-2.34 28.39) rotate(-6.21)" xlink:href="#Degradado_sin_nombre_371"/><linearGradient id="Degradado_sin_nombre_371-5" x1="47.01" y1="38.5" x2="39.2" y2="43.5" gradientTransform="matrix(1, 0, 0, 1, 0, 0)" xlink:href="#Degradado_sin_nombre_371"/></defs><title>searching-icon2</title><g id="Слой_2" data-name="Слой 2"><g id="Capa_1" data-name="Capa 1"><rect class="cls-1" y="3.94" width="73.5" height="18.14" rx="9" ry="9" transform="translate(73.5 26.02) rotate(180)"/><rect class="cls-2" width="73.5" height="18.14" rx="9" ry="9" transform="translate(73.5 18.14) rotate(-180)"/><circle class="cls-3" cx="10.92" cy="8.82" r="6.16"/><rect class="cls-4" y="26.88" width="73.5" height="18.14" rx="9" ry="9" transform="translate(73.5 71.89) rotate(180)"/><circle class="cls-5" cx="10.92" cy="35.7" r="5.88"/><path class="cls-6" d="M70.75,27.91a3.94,3.94,0,0,0-3.29,1.77V27.85A4.05,4.05,0,0,0,64,23.77a3.94,3.94,0,0,0-4,2.12V24.35a4.06,4.06,0,0,0-3.56-4.1,4,4,0,0,0-4.33,3.93V12.52a4.06,4.06,0,0,0-3.56-4.1,4,4,0,0,0-4.33,3.93V39.09L40.79,34a3.84,3.84,0,0,0-6.71,3.73L42.2,51.53a25.94,25.94,0,0,1,3.53,11.73l.55,10.23h23.1L74.7,31.86A4,4,0,0,0,70.75,27.91Z"/><rect class="cls-7" x="66.79" y="28.43" width="7.15" height="14.17" rx="3" ry="3" transform="translate(4.25 -7.4) rotate(6.21)"/><rect class="cls-8" x="59.71" y="24.01" width="7.15" height="14.17" rx="3" ry="3" transform="translate(3.73 -6.66) rotate(6.21)"/><rect class="cls-9" x="51.74" y="20.47" width="7.15" height="14.17" rx="3" ry="3" transform="matrix(0.99, 0.11, -0.11, 0.99, 3.3, -5.82)"/><rect class="cls-10" x="44.65" y="7.97" width="7.15" height="26.56" rx="3.58" ry="3.58"/><path class="cls-11" d="M42.12,35.95l2.54,3V53.13L34,38.07a4.57,4.57,0,0,1,2.69-6S39.58,31.16,42.12,35.95Z"/></g></g></svg>