<svg xmlns="http://www.w3.org/2000/svg" xmlns:xlink="http://www.w3.org/1999/xlink" width="94.53" height="67.34" viewBox="0 0 94.53 67.34"><defs><style>.cls-1{fill:url(#Degradado_sin_nombre_122);}.cls-2{fill:url(#Degradado_sin_nombre_121);}.cls-3{fill:url(#Degradado_sin_nombre_101);}.cls-4{fill:url(#Degradado_sin_nombre_119);}.cls-5{fill:url(#Degradado_sin_nombre_101-2);}.cls-6{fill:url(#Degradado_sin_nombre_327);}.cls-11,.cls-13,.cls-16,.cls-7{opacity:0.5;}.cls-8{fill:url(#Degradado_sin_nombre_327-2);}.cls-9{fill:url(#Degradado_sin_nombre_80);}.cls-10{fill:url(#Degradado_sin_nombre_80-2);}.cls-11{fill:url(#Degradado_sin_nombre_371);}.cls-12{fill:url(#Degradado_sin_nombre_80-3);}.cls-13{fill:url(#Degradado_sin_nombre_371-2);}.cls-14{fill:url(#Degradado_sin_nombre_371-3);}.cls-15{fill:url(#Degradado_sin_nombre_80-4);}.cls-16{fill:url(#Degradado_sin_nombre_371-4);}.cls-17{fill:url(#Degradado_sin_nombre_371-5);}.cls-18{fill:url(#Degradado_sin_nombre_371-6);}</style><radialGradient id="Degradado_sin_nombre_122" cx="98.24" cy="8.11" r="29.61" gradientUnits="userSpaceOnUse"><stop offset="0" stop-color="#1440bd"/><stop offset="0.32" stop-color="#0f3bae"/><stop offset="0.93" stop-color="#032f89"/><stop offset="1" stop-color="#022e84"/></radialGradient><radialGradient id="Degradado_sin_nombre_121" cx="29.58" cy="43.19" r="28.78" gradientUnits="userSpaceOnUse"><stop offset="0" stop-color="#1440bd"/><stop offset="0.28" stop-color="#133fb9"/><stop offset="0.54" stop-color="#0f3baf"/><stop offset="0.77" stop-color="#0a369d"/><stop offset="1" stop-color="#022e84"/></radialGradient><radialGradient id="Degradado_sin_nombre_101" cx="56.74" cy="37.91" r="32.17" gradientUnits="userSpaceOnUse"><stop offset="0" stop-color="#1440bd"/><stop offset="0.5" stop-color="#133fbb"/><stop offset="0.68" stop-color="#113db4"/><stop offset="0.81" stop-color="#0e3aa9"/><stop offset="0.92" stop-color="#083498"/><stop offset="1" stop-color="#022e84"/></radialGradient><radialGradient id="Degradado_sin_nombre_119" cx="12.98" cy="8.86" r="25.98" gradientUnits="userSpaceOnUse"><stop offset="0" stop-color="#1440bd"/><stop offset="0.25" stop-color="#123eb8"/><stop offset="0.54" stop-color="#0e3aaa"/><stop offset="0.85" stop-color="#063292"/><stop offset="1" stop-color="#022e84"/></radialGradient><radialGradient id="Degradado_sin_nombre_101-2" cx="12.61" cy="6.22" r="74.43" xlink:href="#Degradado_sin_nombre_101"/><linearGradient id="Degradado_sin_nombre_327" x1="13.48" y1="13.83" x2="24.42" y2="23.26" gradientUnits="userSpaceOnUse"><stop offset="0" stop-color="#040419"/><stop offset="1" stop-color="#040419" stop-opacity="0"/></linearGradient><linearGradient id="Degradado_sin_nombre_327-2" x1="47.14" y1="23.57" x2="47.14" y2="51.29" xlink:href="#Degradado_sin_nombre_327"/><linearGradient id="Degradado_sin_nombre_80" x1="62.54" y1="63.73" x2="89.8" y2="63.73" gradientUnits="userSpaceOnUse"><stop offset="0" stop-color="#fe6f20"/><stop offset="1" stop-color="#fed563"/></linearGradient><linearGradient id="Degradado_sin_nombre_80-2" x1="62.54" y1="56.51" x2="89.8" y2="56.51" xlink:href="#Degradado_sin_nombre_80"/><linearGradient id="Degradado_sin_nombre_371" x1="76.17" y1="59.32" x2="76.17" y2="54.44" gradientUnits="userSpaceOnUse"><stop offset="0.02" stop-color="#fe6f20"/><stop offset="1" stop-color="#fe6f20" stop-opacity="0"/></linearGradient><linearGradient id="Degradado_sin_nombre_80-3" x1="62.54" y1="49.3" x2="89.8" y2="49.3" xlink:href="#Degradado_sin_nombre_80"/><linearGradient id="Degradado_sin_nombre_371-2" x1="76.17" y1="52.1" x2="76.17" y2="47.23" xlink:href="#Degradado_sin_nombre_371"/><linearGradient id="Degradado_sin_nombre_371-3" x1="86.99" y1="52.21" x2="67.75" y2="52.01" xlink:href="#Degradado_sin_nombre_371"/><linearGradient id="Degradado_sin_nombre_80-4" x1="62.54" y1="42.08" x2="89.8" y2="42.08" xlink:href="#Degradado_sin_nombre_80"/><linearGradient id="Degradado_sin_nombre_371-4" x1="76.17" y1="44.89" x2="76.17" y2="40.01" xlink:href="#Degradado_sin_nombre_371"/><linearGradient id="Degradado_sin_nombre_371-5" x1="86.99" y1="44.99" x2="67.75" y2="44.79" xlink:href="#Degradado_sin_nombre_371"/><linearGradient id="Degradado_sin_nombre_371-6" x1="86.99" y1="60.22" x2="67.75" y2="60.02" xlink:href="#Degradado_sin_nombre_371"/></defs><title>searching-icon4</title><g id="Слой_2" data-name="Слой 2"><g id="Capa_1" data-name="Capa 1"><path class="cls-1" d="M78.57,27.05a1.6,1.6,0,0,1-.3-3.18,10.2,10.2,0,0,0,4.66-2.34c-4-1-6.14-3.45-5.95-6.73.13-2.27,2.23-4,4.87-4h0c2.74,0,5.61,2,5.87,6.44a9.24,9.24,0,0,1,0,1.15,8.57,8.57,0,0,0,4-2.13,1.6,1.6,0,0,1,2.38,2.14,12.24,12.24,0,0,1-7.41,3.43C84.9,25,81.17,26.59,78.87,27Zm3.29-13c-.86,0-1.64.45-1.67,1-.11,1.82,1.34,3,4.29,3.6a5.56,5.56,0,0,0,0-1.15C84.41,15.31,83.41,14,81.87,14Z"/><path class="cls-2" d="M21.44,52.81,18,64.44a2.25,2.25,0,0,0,2.16,2.9H30.36a2.25,2.25,0,0,0,2.14-1.57l3.84-12Z"/><path class="cls-3" d="M56,52.81,52.48,64.44a2.25,2.25,0,0,0,2.16,2.9H64.87A2.25,2.25,0,0,0,67,65.77L72.74,47Z"/><path class="cls-4" d="M19.85,12.06S14.65,5.47,14.65,0c0,0,14.33.57,20.18,6.41C34.83,6.41,27.69,12.23,19.85,12.06Z"/><path class="cls-5" d="M43.41,5.66c-16,0-29.55,7.62-34.5,18.23L2.87,26.15A4.24,4.24,0,0,0,.08,31l1.78,9.13a4.24,4.24,0,0,0,3.22,3.32l5.56,1.21a30.53,30.53,0,0,0,9.9,9.18,44.83,44.83,0,0,0,22.88,6c20.16,0,36.5-12.12,36.5-27.07S63.57,5.66,43.41,5.66Z"/><circle class="cls-6" cx="22.38" cy="21.5" r="3.58"/><g class="cls-7"><path class="cls-8" d="M45.12,45.06a.68.68,0,0,0-.1-.43.54.54,0,0,0-.35-.15,16.86,16.86,0,0,1-2.37-.39q-.35-.1-.95-.31t-1.23-.51a5.57,5.57,0,0,1-1.07-.64,1,1,0,0,1-.44-.72,5.12,5.12,0,0,1,.25-1.38A7.37,7.37,0,0,1,39.5,39q.38-.67.78-.67a3.49,3.49,0,0,1,1.12.16,9.27,9.27,0,0,1,1,.41,13.26,13.26,0,0,0,1.24.54,10.85,10.85,0,0,0,1.16.34q.17,0,.22-.06a.52.52,0,0,0,.06-.27q0-1.64,0-4.49a1,1,0,0,0-.06-.44.44.44,0,0,0-.31-.21L43.55,34a10.21,10.21,0,0,1-1.88-.89,8.51,8.51,0,0,1-1.73-1.38,6.42,6.42,0,0,1-1.27-1.9,6,6,0,0,1-.48-2.47,6.41,6.41,0,0,1,.57-2.77,6.7,6.7,0,0,1,1.53-2.1A8.28,8.28,0,0,1,42.45,21a10.25,10.25,0,0,1,2.45-.78.6.6,0,0,0,.31-.11.44.44,0,0,0,.09-.33V19q0-.64,0-1.25a2.65,2.65,0,0,1,.24-1,.73.73,0,0,1,.72-.4l.91,0a2.63,2.63,0,0,1,1.72.24q.4.34.25,1.94,0,.46,0,1.21a.47.47,0,0,0,.14.43.93.93,0,0,0,.42.14,15.32,15.32,0,0,1,1.52.33,9.72,9.72,0,0,1,1.08.43,12.87,12.87,0,0,1,1.35.72,6.65,6.65,0,0,1,1.16.88,1.31,1.31,0,0,1,.48.91,1.76,1.76,0,0,1-.22.63q-.22.45-.47.87l-.35.58a1.2,1.2,0,0,1-1.88.48,8.52,8.52,0,0,0-3.08-1.26c-.09,0-.15,0-.17,0a.53.53,0,0,0,0,.25,2.29,2.29,0,0,0,0,.25q0,1.56,0,3,0,.64,0,1.23a3.08,3.08,0,0,0,.12,1.07.86.86,0,0,0,.72.47,11.71,11.71,0,0,1,3.11,1,6.88,6.88,0,0,1,1.41,1,5.54,5.54,0,0,1,1.14,1.54,4.52,4.52,0,0,1,.46,2.08v.39a5.7,5.7,0,0,1-.46,2.27,8.37,8.37,0,0,1-1.12,1.91,7.65,7.65,0,0,1-1.3,1.33,9.14,9.14,0,0,1-3.5,1.65.91.91,0,0,0-.39.17.53.53,0,0,0-.15.43q0,.67,0,1a4.93,4.93,0,0,1,0,1,1.58,1.58,0,0,1-.28.75.81.81,0,0,1-.69.29,6.14,6.14,0,0,0-.86.07,4.3,4.3,0,0,1-1.46,0q-.63-.13-.72-1T45.12,45.06Zm.11-19.76q0-.36-.43-.27a2.39,2.39,0,0,0-.94.51,3.51,3.51,0,0,0-.86,1,1.78,1.78,0,0,0-.22,1.25,3,3,0,0,0,1.84,1.93q.35.16.47,0a.82.82,0,0,0,.1-.52Q45.22,27.05,45.23,25.3Zm3.91,13.91a.74.74,0,0,0,.12.44.31.31,0,0,0,.34.11A4,4,0,0,0,51.12,39a1.71,1.71,0,0,0,.63-1.38v-.39a1.26,1.26,0,0,0-.34-.9,2.74,2.74,0,0,0-.86-.6,5.7,5.7,0,0,0-1.11-.37.27.27,0,0,0-.2,0c-.05,0-.08.1-.08.25Q49.14,37.28,49.14,39.21Z"/></g><rect class="cls-9" x="62.54" y="60.12" width="27.26" height="7.22"/><rect class="cls-10" x="62.54" y="52.9" width="27.26" height="7.22"/><rect class="cls-11" x="62.54" y="52.9" width="27.26" height="7.22"/><rect class="cls-12" x="62.54" y="45.69" width="27.26" height="7.22"/><rect class="cls-13" x="62.54" y="45.69" width="27.26" height="7.22"/><rect class="cls-14" x="64.14" y="51.3" width="25.65" height="1.6"/><rect class="cls-15" x="62.54" y="38.47" width="27.26" height="7.22"/><rect class="cls-16" x="62.54" y="38.47" width="27.26" height="7.22"/><rect class="cls-17" x="64.14" y="44.09" width="25.65" height="1.6"/><rect class="cls-18" x="64.14" y="59.32" width="25.65" height="1.6"/></g></g></svg>