<svg xmlns="http://www.w3.org/2000/svg" width="43.8" height="32.85" viewBox="0 0 43.8 32.85"><defs><style>.cls-1{fill:#ff7a14;}.cls-2{fill:#ffcc27;}.cls-3{fill:#ff4f0b;}.cls-4{fill:#ffa61e;}.cls-5{fill:#00a7fc;}.cls-6{fill:#00ccfd;}.cls-7{fill:#00e7fd;}.cls-8{fill:#0079fb;}</style></defs><g><g><g id="g5210"><path id="path5212" class="cls-1" d="M32.85,25.25v7.6h7.3v-7.6Z"/><path id="path5214" class="cls-2" d="M39.81,18.24l-3.34,0,0,3.61h7.3l-3.65-3.65h-.34Z"/><polygon id="polygon5216" class="cls-3" points="40.15 25.55 32.85 32.85 40.15 32.85 40.15 25.55"/><polygon id="polygon5218" class="cls-1" points="40.15 25.55 32.85 25.55 32.85 32.85 40.15 25.55"/><path id="path5220" class="cls-4" d="M32.85,11v7.3h0v7.33h7.29V18.25h0L32.85,11h0Z"/><polygon id="polygon5222" class="cls-2" points="40.15 18.25 32.85 18.25 32.85 25.55 40.15 18.25"/><polygon id="polygon5224" class="cls-4" points="40.15 18.25 32.85 25.55 40.15 25.55 40.15 18.25"/><path id="path5226" class="cls-5" d="M18.25,25.55v7.3h7.3v-7.3Z"/><path id="path5228" class="cls-1" d="M3.68,24.28l0,1.27h0v7.3l.09-.09h7.13l.06-7.18v0h0l-.07-1.27H3.68Z"/><path id="path5230" class="cls-4" d="M10.95,11Zm0,0-7.3,7.3h0l0,0,0,0L0,21.9H3.73v3.54l.13-.09-.2.2H11v-7.3l0,0v0h0V11h0Z"/><polygon id="polygon5232" class="cls-2" points="3.65 18.25 3.65 25.55 10.95 18.25 3.65 18.25"/><path id="path5234" class="cls-6" d="M25.55,3.65,22.81.87,13.09,10.94h5.16v7.3h7.28l0-7.29h7.3l-7.3-7.3Z"/><path id="path5236" class="cls-6" d="M25.5,11l-7.24,7.24h7.3v-7L25.5,11Z"/><polygon id="polygon5238" class="cls-5" points="18.25 18.25 25.55 18.25 25.55 10.95 18.25 18.25"/><polygon id="polygon5240" class="cls-5" points="18.25 25.55 18.25 32.85 25.55 25.55 18.25 25.55"/><path id="path5242" class="cls-7" d="M21.9,0,18.25,3.65,11,11h7.3l7.3-7.3Z"/><polygon id="polygon5244" class="cls-3" points="3.65 32.85 10.95 32.85 10.95 25.55 3.65 32.85"/><polygon id="polygon5246" class="cls-8" points="18.25 32.85 25.55 32.85 25.55 25.55 18.25 32.85"/></g></g></g></svg>