<svg xmlns="http://www.w3.org/2000/svg" width="15.95" height="72.22" viewBox="0 0 15.95 72.22"><defs><style>.cls-1{opacity:1;}.cls-2{fill:#565b63;}</style></defs><g><g><g class="cls-1"><path id="LinkedIn_alt_" data-name="LinkedIn (alt)" class="cls-2" d="M14.77,0H1.18A1.16,1.16,0,0,0,0,1.14V14.8a1.16,1.16,0,0,0,1.18,1.14H14.77a1.16,1.16,0,0,0,1.18-1.14V1.14A1.16,1.16,0,0,0,14.77,0ZM4.83,13.35H2.43V6.15H4.83ZM3.63,5.17h0a1.25,1.25,0,1,1,0-2.49,1.25,1.25,0,1,1,0,2.49Zm9.89,8.18H11.11V9.5c0-1-.35-1.63-1.22-1.63a1.32,1.32,0,0,0-1.24.88,1.61,1.61,0,0,0-.08.58v4H6.17s0-6.52,0-7.2H8.58v1A2.39,2.39,0,0,1,10.75,6c1.59,0,2.77,1,2.77,3.24v4.13Zm-5-6.16,0,0v0Z"/></g><g class="cls-1"><path class="cls-2" d="M13.8,18.21H2.15A2.15,2.15,0,0,0,0,20.36V32a2.15,2.15,0,0,0,2.15,2.15H7.89v-5.7H6.42a.35.35,0,0,1-.35-.35V26.28a.35.35,0,0,1,.35-.35H7.89V24.15A2.9,2.9,0,0,1,11,21H12.5a.35.35,0,0,1,.35.35v1.55a.35.35,0,0,1-.35.35h-.93c-1,0-1.19.47-1.19,1.17v1.54h2.2a.35.35,0,0,1,.35.39l-.22,1.84a.35.35,0,0,1-.35.31h-2v5.7H13.8A2.15,2.15,0,0,0,15.95,32V20.36A2.15,2.15,0,0,0,13.8,18.21Z"/></g><g class="cls-1"><path class="cls-2" d="M11.2,36.9H4.75A4.72,4.72,0,0,0,0,41.57v6.33a4.72,4.72,0,0,0,4.75,4.67H11.2a4.72,4.72,0,0,0,4.75-4.67V41.57A4.72,4.72,0,0,0,11.2,36.9Zm3.15,11A3.12,3.12,0,0,1,11.2,51H4.75A3.12,3.12,0,0,1,1.6,47.91V41.57a3.12,3.12,0,0,1,3.15-3.09H11.2a3.12,3.12,0,0,1,3.15,3.09v6.33Z"/><path class="cls-2" d="M8,40.69a4.05,4.05,0,1,0,4.12,4.05A4.09,4.09,0,0,0,8,40.69Zm0,6.53a2.48,2.48,0,1,1,2.52-2.48A2.5,2.5,0,0,1,8,47.22Z"/><ellipse class="cls-2" cx="12.11" cy="40.72" rx="0.99" ry="0.97"/></g><path class="cls-2" d="M0,56.27V72.22H15.95V56.27Zm13.25,3.78-.86.82a.25.25,0,0,0-.1.24v6a.25.25,0,0,0,.1.24l.84.82v.18H9V68.2l.87-.84c.09-.08.09-.11.09-.24V62.25L7.57,68.36H7.25l-2.8-6.11v4.1a.56.56,0,0,0,.16.47l1.13,1.36v.18H2.54v-.18l1.13-1.36a.55.55,0,0,0,.15-.47V61.61a.41.41,0,0,0-.14-.35l-1-1.21v-.18H5.78l2.4,5.27,2.11-5.27h3Z"/></g></g></svg>