<?xml version="1.0" standalone="no"?>
<!DOCTYPE svg PUBLIC "-//W3C//DTD SVG 1.1//EN" "http://www.w3.org/Graphics/SVG/1.1/DTD/svg11.dtd" >
<svg>
<metadata>
Created by FontForge 20090622 at Fri Sep 28 10:17:17 2018
 By deploy user
Typeface &#194;&#169; (your company). 2018. All Rights Reserved
</metadata>
<defs>
<font id="BELLOWSREGULAR" horiz-adv-x="1500" >
  <font-face 
    font-family="BELLOWS REGULAR"
    font-weight="400"
    font-stretch="normal"
    units-per-em="2048"
    panose-1="2 0 5 0 0 0 0 0 0 0"
    ascent="1638"
    descent="-410"
    x-height="1444"
    cap-height="1443"
    bbox="90 -373 2183.31 1725.36"
    underline-thickness="150"
    underline-position="-142"
    unicode-range="U+001D-U+007D"
  />
<missing-glyph horiz-adv-x="0" 
 />
    <glyph glyph-name=".notdef" horiz-adv-x="0" 
 />
    <glyph glyph-name=".notdef" horiz-adv-x="0" 
 />
    <glyph glyph-name="nonmarkingreturn" horiz-adv-x="508" 
 />
    <glyph glyph-name="space" unicode=" " horiz-adv-x="508" 
 />
    <glyph glyph-name="space" unicode="&#xa0;" horiz-adv-x="508" 
 />
    <glyph glyph-name="exclam" unicode="!" horiz-adv-x="582" 
d="M116 1477v0v0q0 25 17.5 33.5t42.5 8.5h31q42 1 97 0.5t100.5 -7.5t56.5 -25q7 -17 4 -83.5t-8 -137.5q-5 -73 -5 -104q0 -23 -2 -39t-3 -40q0 -39 -5 -81q-3 -24 -4 -39v-17q1 -12 0 -24l-37 -473q0 -6 -0.5 -9.5t-1.5 -5.5q-1 -4 -1.5 -9t-0.5 -13q-1 -26 -4.5 -41
t-18.5 -24q-21 -12 -56.5 -15.5t-69 1t-47.5 15.5q-9 10 -12.5 30.5t-3.5 37.5l-23 274q0 5 -1 8.5t-1 6.5q-1 3 -1.5 8t-0.5 14l-23 274q-1 10 0 20q0 10 -1 20q-13 118 -15.5 218t-2.5 218zM144 120v0v0q0 41 23.5 71.5t59 47t73.5 15.5q81 -4 122 -46.5t40.5 -96
t-44.5 -92.5q-59 -48 -122 -43t-107.5 46t-44.5 98z" />
    <glyph glyph-name="quotedbl" unicode="&#x22;" horiz-adv-x="1010" 
d="M280 1051v0v0q54 40 111 103.5t80 136.5t-24 140q-20 26 -50 44q-29 18 -65 25q-33 7 -69 2q-40 -3 -76 -23t-59.5 -53t-23.5 -76q0 -48 29 -87v0q6 -9 14 -18q27 -29 64 -48q12 -5 20 -19t-2 -30q-22 -36 -42 -55.5t-35 -29.5q-2 -1 -4 -3q-13 -11 -8 -25t20 -25
q1 -1 2 -1q10 -8 23 -11.5t34 10.5q29 19 61 43zM709 1051v0v0q55 40 112 103.5t80 136.5t-24 140q-20 26 -50 44t-65 25q-34 7 -69 2q-41 -3 -77 -23t-59 -53t-23 -76q0 -48 29 -87v0q6 -9 14 -18q26 -29 64 -48q12 -5 20 -19q7 -14 -2 -30q-22 -36 -42.5 -55.5
t-34.5 -29.5q-2 -1 -4 -3q-14 -11 -9 -25t21 -25l1 -1q10 -8 23.5 -11.5t34.5 10.5q28 19 60 43z" />
    <glyph glyph-name="numbersign" unicode="#" horiz-adv-x="1640" 
d="M931 833v0v0q-12 0 -26 1q-27 0 -52 -1q-7 0 -11 -0.5t-7 -1.5t-7 -1.5t-11 -1.5h-34q-32 2 -75 -6q-15 -3 -28 -11.5t-20 -18.5q-12 -17 -19 -38q-3 -7 -6 -15q-29 -70 -36 -100.5t5 -37t38 -5.5q20 1 45 -2q21 -2 33 -3t21 -1h22h35q29 0 54 -3q51 -7 88 7.5t61 95.5
q8 25 13 45q24 71 14 86.5t-78 11.5h-19zM1042 1131v0v0q35 0 54.5 13t30 35t19.5 51q2 6 4 13l39 108q5 14 8 28t9 29q10 25 30 43.5t54 18.5q21 0 40 1q74 2 107 -6.5t32 -49t-30 -134.5l-16 -53q-27 -73 -15 -89t90 -12h13q25 -44 18.5 -102.5t-20.5 -102.5
q-9 -32 -17.5 -45t-18.5 -14.5t-22 0.5q-10 2 -23 2q-39 0 -76 -8h-3q-23 -3 -31.5 -9.5t-16.5 -24.5q-27 -59 -40 -131q-9 -48 -5.5 -68t17 -23.5t31.5 -1.5h18q17 0 33 1h50q22 0 34 -8t12 -29q0 -99 -33 -179q-4 -10 -7 -15.5t-7 -10.5q-4 -4 -8 -11q-34 0 -68 2
q-72 6 -128.5 -3.5t-78.5 -64.5q-9 -27 -14 -48l-10.5 -34.5t-16.5 -45.5l-38 -127q-50 -10 -120 -9.5t-115 14.5q-31 15 -18 72t37 118q13 34 21 59q2 6 3 11q3 9 5.5 19t2.5 24l-321 -10q-31 -7 -45 -30t-23 -53q-5 -16 -11 -31l-36 -97l-11 -31q-11 -39 -25 -59.5
t-45 -16.5q-20 2 -38 2q-12 -1 -25 0q-122 4 -136.5 45.5t32.5 145.5q7 17 15 34q19 41 30 82q-28 0 -55 6.5t-40 22.5q-11 16 -17 44t-3 55q3 21 3 43q0 33 6 59.5t31 36.5q27 9 63.5 8.5t70.5 -2.5q15 -2 28 -2q2 6 3.5 10t3.5 8t5 11q42 101 66 209q-21 13 -45 14.5
t-47 -1.5q-35 -5 -62.5 3t-38.5 53q-11 46 -10.5 106t38.5 91q21 14 54.5 16.5t71.5 1.5q48 -1 90.5 4.5t64.5 31.5q6 8 19 42l26 70l18 50l10 36q6 25 13.5 51.5t19 45t27.5 18.5h27q38 1 83.5 -0.5t80 -12t34.5 -38.5t-9 -63t-18 -64q-1 -2 -1 -5q-7 -21 -17 -47
q-8 -19 -14 -35t-6 -24q0 -22 40.5 -30t91.5 -8.5t89 1.5h28z" />
    <glyph glyph-name="dollar" unicode="$" horiz-adv-x="1495" 
d="M601 -32v0v0q0 19 -7 26t-25 9q-101 9 -170 24q-25 6 -68 19t-88 31t-76.5 39t-31.5 44q0 32 18 84t45 93t56 41q46 0 80.5 -10t71.5 -25q37 -16 89 -33q43 -13 83 -21q12 -2 16 3.5t4 16.5q1 100 3 274q1 18 -4 27t-22 13q-44 11 -87 23q-67 20 -134.5 54.5t-124 84
t-91 116t-34.5 150.5q0 95 41 169t110 128t154.5 87.5t175.5 47.5q16 2 22.5 7t6.5 20v26v25q-1 39 2 76t17.5 61.5t51.5 24.5q36 0 65 1q94 6 123 -14.5t18 -118.5q-2 -28 -3 -74q-1 -20 10 -26.5t30 -8.5q57 -8 109 -20q30 -8 77.5 -26.5t96.5 -44t83.5 -54t34.5 -55.5
q0 -11 -16 -38.5t-34 -53l-25 -35.5q-51 -73 -135 -29q-116 62 -221 77q-10 2 -12 -3t0 -15q0 -7 1 -15q0 -95 1 -185q1 -39 1 -75q-1 -44 8.5 -65.5t51.5 -28.5q132 -22 223 -62q52 -24 101 -63t82 -94t33 -127v-24q0 -73 -33 -138.5t-80.5 -116.5t-93.5 -81
q-102 -69 -251 -101q-17 -3 -28 -10.5t-11 -26.5q1 -41 3 -64q3 -34 -1.5 -62.5t-20 -46t-49.5 -17.5q-29 0 -62 -4q-59 -7 -104.5 1t-51.5 63q-3 49 -4 126zM889 325v0v0q0 -17 8.5 -27t24.5 -7q64 15 109 47t45 84v24q0 33 -24.5 55t-62 36.5t-79.5 22.5q-9 3 -14.5 1
t-5.5 -15q-1 -103 -1 -221zM609 1174v0v0q-1 22 -31 16.5t-67.5 -31t-62 -62t-15.5 -76.5q26 -79 132 -118q25 -10 33.5 -1t7.5 32q2 133 3 240z" />
    <glyph glyph-name="percent" unicode="%" horiz-adv-x="1804" 
d="M218 68v0v0q0 24 19.5 52.5t35.5 45.5q0 1 1 1l15 19q8 12 19 25q4 4 6 6.5t4 5.5q3 4 9 11l7 7q2 2 4.5 5t5.5 7l36 43q36 40 82 99q45 56 79 93l122 148q6 7 11 12q4 4 9 10l51 63q47 60 106 128q60 68 107 128l267 320q5 6 7 9q1 3 3 5.5t6 6.5l72 85q7 11 18.5 18.5
t27.5 7.5h25q40 2 95 0.5t98.5 -12.5t43.5 -38q0 -5 -16 -28.5l-33 -46.5l-23 -31l-202 -244q-7 -7 -11 -13q-3 -5 -10 -12q-12 -13 -20 -20q-9 -9 -17.5 -19.5t-22.5 -33.5q-4 -6 -7.5 -10.5t-6.5 -9.5q-3 -3 -5 -6l-465 -559q-9 -10 -16 -19q-10 -14 -24 -29l-81 -93
l-6 -8q-6 -8 -13 -19l-59 -74q-41 -53 -62.5 -75.5t-42 -26.5t-57.5 -1q-31 2 -82 2q-24 0 -49 4.5t-43 18.5t-18 42zM438 874v0v0q35 0 63.5 27t46 64.5t19.5 74.5q1 9 1 16q1 10 1 20t-3 27q-4 24 -16.5 48t-35.5 41t-57 17q-57 0 -92 -38t-45.5 -91t5.5 -103
q12 -37 41.5 -70t71.5 -33zM429 668v0v0q-73 0 -131 34t-102 87q-65 78 -81 181t15 198q1 6 3 10t4 7l5 12q10 24 19 39t21 32l9 14q26 38 63 65q13 10 27 19q62 36 153.5 40t164.5 -36q30 -18 50 -35.5t43 -41.5q20 -21 34 -46q1 -3 3 -5q16 -26 26 -56q12 -31 19 -68
q2 -10 3 -17t1 -20l1.5 -12t1.5 -7t1.5 -7t0.5 -11q1 -33 -8 -71.5t-21 -68.5q-25 -61 -62 -109q-56 -77 -113.5 -102t-149.5 -25zM1404 223v0v0q35 0 57.5 32t31.5 78t3.5 92.5t-27.5 78t-61 31.5q-51 0 -81.5 -29.5t-42 -73t-6 -87.5t24.5 -75q20 -29 43.5 -38t57.5 -9z
M1086 379v0v0q0 78 21 134.5t64 111.5q26 33 69 58t85 36q147 32 268 -50q84 -68 106 -186t-9 -233.5t-104 -175.5q-84 -59 -188 -61q-37 -2 -85 10t-83 32q-78 49 -111 136t-33 188z" />
    <glyph glyph-name="ampersand" unicode="&#x26;" horiz-adv-x="1414" 
d="M677 2v0v0q154 7 276 79q65 39 96.5 64t80.5 81l57 85q25 45 37.5 81.5t21.5 89.5q11 70 -1.5 155t-48.5 147q-12 19 -15.5 28t1 15t17.5 15q17 12 50 44q5 4 11 10q14 12 29 29t17.5 39t-20.5 48t-62.5 56t-67.5 30q-14 0 -32 -15.5t-38 -37.5q-26 -29 -55 -52
q-45 -32 -110 -71q-104 -61 -164 -114q-19 -19 -36 -42q-34 -44 -55 -100q-22 -50 -18 -75.5t51 -44.5q9 -4 16 -6.5t14 -4.5q59 -15 89 -9.5t43 22t18 32.5q4 10 8 17q13 23 38 42.5t56 23.5q30 -58 27.5 -126.5t-31.5 -126.5q-5 -10 -10 -17t-11 -13l-9 -13
q-52 -66 -130 -100q-27 -11 -56 -17q-55 -11 -97 -8t-95 18q-107 31 -153.5 104.5t-41.5 161.5t54 162q39 55 78.5 75.5t72.5 27.5q24 6 42 14.5t27 29.5q1 4 1 28t-1 53t-2 47q0 12 -2 23.5t-10 21.5q-7 9 -18 14q-36 15 -89 14q-56 -1 -97 16q-52 30 -55.5 83.5t38 99.5
t124 55.5t202.5 -48.5l18 -9q22 -12 33 -15t21 6.5t27 33.5q8 12 20 27l4 6q33 40 42.5 67t-20.5 52.5t-118 59.5q-91 36 -191.5 40.5t-190.5 -27.5q-20 -8 -34.5 -15t-33.5 -18q-86 -52 -140 -140t-54 -189q0 -50 17.5 -94.5t54.5 -76.5l9 -7q13 -12 27 -22q6 -5 13 -10
q9 -6 18 -13q23 -22 11 -45.5t-37 -49.5q-6 -8 -13 -15q-59 -72 -86.5 -164.5t-27.5 -185.5q0 -92 44.5 -176.5t113.5 -137.5q156 -114 354 -122h57z" />
    <glyph glyph-name="quotesingle" unicode="'" horiz-adv-x="581" 
d="M280 1032v0v0q55 41 111.5 107t79.5 141.5t-24 144.5q-20 27 -49 45q-30 19 -66 26q-33 7 -69 3q-40 -4 -76 -24.5t-59.5 -55t-23.5 -78.5q0 -49 29 -90v0q6 -9 14 -18q27 -30 64 -50q12 -5 20 -20q8 -14 -2 -30q-22 -38 -42 -58t-35 -30q-2 -2 -4 -3q-13 -12 -8 -26.5
t21 -26.5h1q10 -9 23 -12t34 11q29 19 61 44z" />
    <glyph glyph-name="parenleft" unicode="(" horiz-adv-x="876" 
d="M481 -319v0v0q36 -42 62.5 -41.5t63.5 33.5l135 107q28 22 26.5 41.5t-29.5 49.5q-125 144 -198 321q-41 97 -67 212.5t-22 253.5q6 115 35 234.5t64 201.5q84 197 233 347q17 18 11 39.5t-22 42t-31 34.5q-36 35 -68 60q-15 12 -24 20q-3 2 -6 5q-24 25 -45 32.5
t-48 -19.5q-194 -194 -306 -448q-60 -136 -97.5 -277.5t-39.5 -286.5q1 -142 35 -283.5t89 -274.5q92 -224 249 -404z" />
    <glyph glyph-name="parenright" unicode=")" horiz-adv-x="896" 
d="M420 -319v0v0q-35 -42 -61.5 -42t-63.5 33l-135 108q-29 22 -27 41t29 50q125 143 198 321q41 96 67 212t22 253q-6 116 -34.5 235.5t-64.5 200.5q-83 198 -233 347q-17 18 -11 40t22.5 42.5t30.5 34.5q36 34 68 59q15 12 24 20q3 3 6 5q24 25 45 33t48 -19
q194 -195 306 -449q60 -135 97.5 -276.5t39.5 -286.5q0 -142 -34 -283.5t-90 -274.5q-92 -224 -249 -404z" />
    <glyph glyph-name="asterisk" unicode="*" horiz-adv-x="777" 
d="M486 1344v0v0q-1 25 -1 55q-1 31 -2 55q0 16 -7 27t-23 10l-66 -2q-68 -1 -79.5 -29t-0.5 -94q1 -8 2 -17q1 -11 -4 -16.5t-13 1.5q-69 57 -100 48t-74 -72q-6 -8 -13 -16q-8 -13 4 -30.5t32 -33.5q21 -17 39 -34q17 -16 38 -33q9 -9 -2 -24t-30 -34q-22 -21 -37 -42
t-5 -37q21 -26 43 -49q24 -23 44 -50q19 -28 60 7q21 19 41 41q19 21 40 40q14 16 28 -1l91 -74q41 -35 60 -7l37 52l37 52q10 13 3 27t-23 31q-11 12 -22 22q-17 16 -24.5 29.5t9.5 27.5l29 24l63 51q10 10 10.5 24.5t-6.5 24.5l-38 49q-34 51 -60 47t-80 -50z" />
    <glyph glyph-name="plus" unicode="+" horiz-adv-x="1107" 
d="M430 1198v0v0q7 5 10 8t7 5.5t14 5.5q43 11 113.5 13t106.5 -24q13 -13 16.5 -42t3.5 -48q0 -26 -1 -61q-2 -45 -1 -88t11 -67q23 -10 62 -11t82 0q58 3 96 -1q24 -3 34.5 -7.5t13 -19.5t2.5 -48q0 -17 2 -39q4 -33 3 -67t-18 -56q-19 -21 -54 -25t-79 -2q-59 4 -120 -5
q-31 -7 -36.5 -52t-1.5 -108q3 -71 -4 -142q-3 -36 -14 -43.5t-51 -6.5q-14 0 -38 -2q-27 -2 -58.5 -3t-57.5 3l-22.5 4.5t-10.5 5t-6 10.5q-8 21 -9 79t0 119q2 62 0 92q-4 33 -48 36t-101 -4q-73 -10 -123 -1q-25 7 -32 18t-8 37q-1 4 -1 9q-1 12 -3 25q-9 48 -3.5 96
t57.5 63q36 7 83 10q23 1 42 3q43 5 74 3q40 -2 58.5 7t13.5 50q-5 39 -5 100v118q1 31 1 53z" />
    <glyph glyph-name="comma" unicode="," horiz-adv-x="587" 
d="M283 -143v0v0q56 41 114 106.5t81.5 139.5t-24.5 143q-20 26 -51 45q-30 18 -67 26q-34 6 -70 2q-41 -4 -78 -24.5t-60.5 -54t-23.5 -77.5q0 -49 29 -89v0l14 -18q28 -30 66 -49q12 -6 20 -20t-2 -30q-22 -37 -43 -57t-35 -30q-2 -1 -4 -3q-14 -11 -9 -25.5t21 -25.5
l1 -1q10 -9 23.5 -12t35.5 11q29 19 62 43z" />
    <glyph glyph-name="hyphen" unicode="-" horiz-adv-x="960" 
d="M106 503v0v0q0 39 8 74q4 20 11 25t23 6q5 1 11 2q30 4 117 6.5t171.5 2.5t107.5 -3q9 -1 31 -2t52 -1q52 -1 101 -3.5t64 -7.5q33 -18 37 -71t-1 -102q-2 -18 -2 -32q-1 -10 -3.5 -21.5t-7.5 -17.5q-6 -7 -22 -10t-34.5 -4.5t-29.5 -1.5h-12q-19 1 -37 -1
q-32 -4 -150.5 -4t-237.5 2t-153 6q-5 1 -9 2q-7 0 -11.5 2t-9.5 8q-12 17 -14 56.5t-1 71.5q1 10 1 18z" />
    <glyph glyph-name="hyphen" unicode="&#xad;" horiz-adv-x="960" 
d="M106 503v0v0q0 39 8 74q4 20 11 25t23 6q5 1 11 2q30 4 117 6.5t171.5 2.5t107.5 -3q9 -1 31 -2t52 -1q52 -1 101 -3.5t64 -7.5q33 -18 37 -71t-1 -102q-2 -18 -2 -32q-1 -10 -3.5 -21.5t-7.5 -17.5q-6 -7 -22 -10t-34.5 -4.5t-29.5 -1.5h-12q-19 1 -37 -1
q-32 -4 -150.5 -4t-237.5 2t-153 6q-5 1 -9 2q-7 0 -11.5 2t-9.5 8q-12 17 -14 56.5t-1 71.5q1 10 1 18z" />
    <glyph glyph-name="period" unicode="." horiz-adv-x="587" 
d="M107 176v0v0q0 51 28.5 88.5t70.5 57.5t87 19q97 -6 145.5 -57.5t48 -117.5t-51.5 -113q-72 -59 -147 -53t-128 56t-53 120z" />
    <glyph glyph-name="slash" unicode="/" horiz-adv-x="1094" 
d="M112 -9v0v0q-9 29 0 60.5t17 49.5q4 11 7 21q4 13 11 27q3 9 5 14q1 5 4 12q2 5 4 8t3.5 5.5t2.5 7.5l19 47q20 46 44 110q22 63 41 104l65 164l5 13q3 5 5 11l27 70q23 66 56 142q32 76 56 142l141 355q3 6 4 10q0 2 1 5t3 8l39 94q3 12 11.5 20.5t24.5 8.5q13 0 39 2
q41 2 93 2.5t94 -9.5t53 -39q2 -7 -5.5 -35t-16.5 -57t-12 -38l-106 -269q-4 -9 -6 -15q-1 -5 -5 -14q-7 -14 -12 -22q-6 -10 -10.5 -21t-9.5 -37q-1 -7 -2.5 -12t-3.5 -11q-1 -3 -3 -7l-245 -619q-4 -10 -7 -19q-6 -16 -14 -34l-45 -103q-1 -4 -2 -7q-2 -11 -6 -23l-29 -82
q-17 -69 -41 -83.5t-96 -10.5q-28 1 -65 1q-7 0 -15 -1q-34 -2 -68 6t-50 48z" />
    <glyph glyph-name="zero" unicode="0" horiz-adv-x="1477" 
d="M747 1160v0v0q-54 0 -103 -18t-85 -46q-5 -3 -8 -6q-14 -10 -23.5 -18.5t-21.5 -23.5q-47 -62 -66.5 -112.5t-33.5 -131.5q-2 -8 -5 -36t-5 -57t-1 -39q3 -17 2 -29q0 -8 1 -19q1 -18 6 -42.5t10 -41.5q39 -121 121 -189t182.5 -79.5t195.5 36.5q99 53 148 151.5t54 213
t-28 217.5q-22 69 -64 128q-96 142 -276 142zM108 720v0v0q0 136 56 275q25 61 77.5 142t105.5 124l69 55q59 43 140 74.5t164 31.5q120 0 195.5 -24t162.5 -77q40 -25 65 -51q15 -13 27 -22q14 -12 25 -25q7 -9 15 -18q37 -38 72 -98.5t53 -107.5q69 -188 43.5 -384
t-142.5 -354q-55 -74 -127 -130q-158 -116 -349 -128.5t-356 100.5l-25 20q-9 8 -21 17q-16 13 -31 30q-6 5 -11 11q-25 25 -57.5 71t-47.5 76q-33 65 -52.5 116t-34.5 127q-16 76 -16 149z" />
    <glyph glyph-name="one" unicode="1" horiz-adv-x="672" 
d="M105 1248v0v0q0 13 4 18.5t13 10.5q44 27 84 67t74 80l6 6q9 10 13 17q4 6 7.5 9.5t11.5 6t23 4.5q27 3 59 1h32q6 0 18 1q21 3 47.5 3t47 -8t20.5 -33v-1412q-16 -11 -27.5 -13t-29.5 -1q-11 0 -26 1q-48 -1 -82 -5q-44 -5 -68 1t-33 43.5t-10 125.5q0 8 -0.5 13t-1.5 9
q-1 3 -1.5 7.5t-0.5 11.5q-1 14 -1 30q1 8 1 16q0 28 2 47q2 20 2 44l-9 729v8q1 35 -1.5 49.5t-13.5 16.5t-36 -2q-33 -8 -105 -8q-3 5 -5 7l-3 3t-2 2.5t-2 4.5t-3 10q-5 30 -4 65v14z" />
    <glyph glyph-name="two" unicode="2" horiz-adv-x="1373" 
d="M114 1141v0v0q0 12 14.5 34t31.5 42.5t26 30.5l93 81q43 31 113.5 68.5t118.5 48.5q87 18 174 23.5t175 -10.5q110 -20 200 -81.5t140 -161.5q29 -60 37 -115t8 -125q0 -106 -44 -196.5t-116 -162.5q-43 -42 -95 -74l-112 -64l-51 -27q-73 -38 -156.5 -86t-110.5 -82
q16 -8 40 -11t47 -3q10 0 15.5 1t10.5 1q7 2 20 3q33 1 114 1t170 -1.5t119 -5.5q37 -4 76 -1q38 4 69 0t45 -30q5 -11 7 -39t2 -60.5v-55.5v-15q0 -31 -13.5 -44t-35 -15t-45.5 0q-23 1 -43 -1q-8 -1 -11 -2q-4 0 -8.5 -1t-13.5 -1q-213 -3 -449 2q-156 3 -300 3
q-65 0 -111 -4q-87 -10 -121.5 8t-34.5 124q0 54 18.5 99t48.5 83t65 72l91 70q71 47 133 84l68 41q28 16 48 25l33 17.5t42 26.5q4 3 7 5q3 3 9 7l17 11q8 4 17 10l44 29q81 45 142 111l8 10q33 38 58 77.5t25 92.5q0 34 -4 61.5t-21.5 51t-56.5 45.5q-31 16 -68 27
q-77 21 -165 7t-152 -52q-57 -35 -96 -69q-22 -18 -50 -38q-34 -26 -53 -43q-28 -27 -44.5 -28.5t-51.5 26.5l-59 69l-7 9l-26.5 36.5t-14.5 30.5z" />
    <glyph glyph-name="three" unicode="3" horiz-adv-x="1351" 
d="M130 1249v0v0q0 16 21.5 38t48 41.5t42.5 28.5q70 44 146 75q79 31 173 48q53 9 122.5 13.5t124.5 -3.5q110 -16 185 -49.5t152 -109.5q24 -26 41 -57q3 -4 5 -7q63 -114 41.5 -252t-104.5 -198q-27 -17 -22.5 -29t27.5 -30q35 -23 77 -82q39 -61 47 -105.5t8 -114.5
q0 -94 -52 -190t-131 -150l-11 -8q-4 -4 -10 -8l-62 -34q-183 -86 -408 -62t-388 149q-14 10 -36 31.5t-41 45t-19 38.5q0 28 24.5 55t44.5 41q26 20 43 35q25 22 41.5 29t40 -5.5t69.5 -47.5l197 -102q50 -17 84 -20.5t83 -2.5h7q66 0 136 34t96 92q31 88 -6.5 166
t-116.5 96q-84 12 -145 6q-67 -7 -102.5 11.5t-36.5 112.5q0 14 -1 33q-3 37 -1 73t19 47q26 10 81 8q48 -2 107 5t119 39q45 25 58.5 57t13.5 77q0 46 -33 73t-79 39t-86 12q-108 0 -208 -33.5t-193 -84.5q-7 -3 -11 -5.5l-9 -5.5l-4 -2q-52 -30 -80 -16.5t-48 42.5l-20 23
q-9 9 -23.5 27.5t-26 39t-11.5 33.5z" />
    <glyph glyph-name="four" unicode="4" horiz-adv-x="1485" 
d="M924 506v0v0q15 0 31.5 3.5t22.5 15.5q4 12 5.5 47.5t1 77t-0.5 69.5v21q0 23 2 38q2 13 3 31l-1 215q0 9 -3 15.5t-12 4.5l-110 -92l-9 -9l-7 -7q-4 -5 -7 -7t-5 -4q-3 -2 -8 -6q-4 -3 -7 -6t-7 -6l-3 -3t-4 -5q-5 -5 -12 -11l-87 -78q-12 -12 -39 -37l-89.5 -87.5
t-89 -94t-38.5 -62.5q0 -4 16.5 -7.5t38.5 -6t40.5 -3.5t23.5 -1zM106 382v0v0q0 86 4.5 126.5t18 63t39.5 49.5q19 19 47 51l345 358l65 61q32 33 72 67l168 163q6 5 11 10q2 3 5 6l104 99q7 7 18 14.5t22 9.5l124 4q42 0 61.5 -2.5t26.5 -13.5t11 -37l12 -501q0 -32 2 -61
q2 -28 2 -63q0 -27 -1 -63q-2 -52 -1.5 -104.5t7.5 -84.5h15q71 3 86.5 -14.5t9.5 -98.5q-1 -34 -1 -84q0 -46 -17 -66.5t-40.5 -26t-45.5 -6.5q-15 0 -26 -2q-9 -49 -5 -93q1 -33 -2 -61.5t-21 -51.5q-12 -14 -24 -18t-30 -5q-9 -1 -21 -3q-46 -8 -91.5 -3.5t-62.5 37.5
q-14 43 -9 104q4 55 -6 88q-12 25 -52.5 28.5t-84.5 1.5q-20 -1 -36 -1q-52 0 -99 2q-48 2 -104 2q-30 0 -51 3q-21 2 -45 2q-13 0 -28 -1q-40 -1 -73 1l-143 9q-31 -1 -69.5 3.5t-58.5 20.5q-17 16 -22.5 34.5t-5.5 46.5z" />
    <glyph glyph-name="five" unicode="5" horiz-adv-x="1464" 
d="M109 1249v0v0q0 37 4.5 79.5t12.5 72.5q7 35 34 49q46 16 156.5 18.5t194.5 0.5h44q46 0 85 -3q38 -2 80 -2h331q45 0 82 -2q35 -2 79 -2q4 -6 7 -10q7 -8 11.5 -17.5t4.5 -27.5v-31q1 -40 0 -85.5t-8 -68.5q-4 -14 -10 -20t-21 -9q-22 -4 -110.5 -4t-207.5 2
q-162 2 -307.5 1t-195.5 -10q-5 -28 -5.5 -79.5t0.5 -99.5q1 -28 1 -46q0 -25 2 -39q2 -15 2 -39q30 5 59 28q10 6 20 13q37 23 79 40q116 44 278.5 39t268.5 -54q10 -5 18 -8l31.5 -16.5t33.5 -21.5q2 -2 4 -3q35 -25 61 -55q11 -15 21 -26q15 -18 28 -37t27 -50
q89 -189 5 -381q-3 -5 -4 -9q-3 -7 -8 -16q-2 -5 -5 -9q-3 -5 -6 -11q-10 -19 -27.5 -44t-31.5 -40q-7 -7 -15 -16q-30 -32 -57 -54q-192 -144 -426 -144q-40 0 -97.5 7.5t-97.5 17.5q-73 19 -155.5 58.5t-143.5 83.5l-9 7q-4 2 -7 4l-73 65q-3 4 -6 7q-5 5 -9 11.5t-4 17.5
q0 26 13 45.5t31 36.5q13 14 24 29l39 49q30 33 46 33.5t40 -21.5q8 -7 19 -15l17 -13q3 -2 7 -5q7 -5 12 -9q5 -3 12 -8l75 -49q92 -59 200.5 -75t207 7t163 81.5t64.5 147.5q0 78 -42.5 129t-106.5 75.5t-127 24.5q-81 0 -129.5 -11.5t-115.5 -46.5q-52 -27 -82 -54
q-33 -28 -62 -36.5t-76 19.5q-25 16 -53 30l-103 63q-6 4 -13 7q-29 16 -46.5 31.5t-22.5 44.5q-9 60 -10 175.5t0 213.5q1 42 1 69z" />
    <glyph glyph-name="six" unicode="6" horiz-adv-x="1507" 
d="M784 265v0v0q69 0 134 17q34 9 58.5 19t51.5 24q81 43 108.5 122.5t-13.5 164.5l-57 62q-36 29 -85 39q-108 28 -225 3t-194 -92l-41 -42q-64 -70 -33 -167q21 -57 69 -89.5t109.5 -46.5t117.5 -14zM108 724v0v0q0 54 7 95l2 28q17 188 133 331q4 5 6 8q4 4 9 10
q16 20 48 51.5t53 48.5l56 41q142 91 312 108.5t332 -23.5q19 -4 59 -18t84 -33.5t76 -42.5t32 -45q0 -27 -11 -70.5t-35.5 -78.5t-63.5 -35q-17 0 -63 19q-50 20 -126 41t-167.5 23t-189.5 -33q-2 -1 -3 -2q-81 -26 -142 -74q-28 -23 -57.5 -53t-46.5 -63l-2 -2l-17 -35.5
t-13 -40.5q-1 -1 -1 -2q-3 -11 -7.5 -31t-6.5 -40t2.5 -29.5t21.5 1.5q7 5 10 8.5t5 6.5t6.5 8.5t16.5 15l35 26.5l37 26q47 35 88.5 57.5t117.5 40.5q56 15 96.5 18.5t102.5 3.5q125 0 258.5 -63t196.5 -180q2 -3 3 -7q9 -17 16.5 -33.5t14.5 -39.5q25 -89 12.5 -191.5
t-56.5 -176.5q-16 -26 -43 -64.5t-50 -58.5q-54 -47 -102.5 -76.5t-118.5 -56.5q-155 -57 -348 -39.5t-323 110.5q-6 4 -11 8t-12 9l-45 38q-22 21 -47.5 54.5t-40.5 59.5q-3 5 -6 9q-12 20 -23 45q-42 101 -56.5 179t-14.5 209z" />
    <glyph glyph-name="seven" unicode="7" horiz-adv-x="1349" 
d="M111 1390v0v0q0 31 14 39t45 7h161q101 -7 194 -5h64q10 0 17 1t13 2q7 1 20 2h33h18h496q37 0 50 -24q10 -20 12.5 -58.5t2.5 -66.5v-3q0 -27 3 -46q4 -25 -0.5 -51t-33.5 -74l-153 -256l-303 -499l-55 -88q-8 -11 -14 -21q-5 -10 -13 -21l-113 -171l-9 -14
q-10 -20 -23.5 -31t-49.5 -11q-143 0 -197.5 8t-44 45.5t67.5 122.5q4 6 8 13l208 338l18 30l21 36l305 517q4 6 6 10q3 4 4 6t1 3.5v4.5v5q0 9 -4 11.5t-9 3.5q-1 0 -2 1h-9.5h-11.5h-7q-8 0 -13.5 1t-9.5 1q-5 1 -11 2t-16 1l-322 4h-221q-16 0 -33 -1q-31 -4 -56.5 1
t-40.5 35q-7 21 -8 69t0 90q1 19 1 31z" />
    <glyph glyph-name="eight" unicode="8" horiz-adv-x="1478" 
d="M667 633v0v0q-36 0 -80.5 -14t-71.5 -27q-90 -47 -110 -108t17 -118t117 -90q36 -15 74 -23l135 -8q10 2 17 2.5t15 -0.5q5 0 11 1q93 2 170.5 41t105.5 103.5t-28 144.5q-7 9 -13.5 15t-15.5 12q-2 2 -4 3q-10 8 -17.5 12.5t-19.5 10.5q-66 31 -134.5 38t-140.5 5h-27z
M754 940v0v0q48 0 97.5 10t82.5 27q28 14 59.5 47.5t31.5 71.5q0 35 -28 63t-70 47.5t-87.5 30t-80.5 10.5q-69 0 -149.5 -18.5t-130.5 -64.5q-2 -3 -4 -5q-13 -12 -23 -26t-10 -37q0 -31 6 -49t29 -39q33 -31 80 -45.5t99 -18.5t98 -4zM180 1155v0v0q0 67 41.5 121
t100.5 94.5t115 64.5q90 41 163 52.5t173 11.5q78 0 174 -30t160 -76l62 -48q2 -3 5 -5q28 -26 51.5 -54t38.5 -67q28 -78 14 -156.5t-65 -139.5l-73 -79q0 -15 15 -27.5t38 -26.5q49 -27 98 -85q99 -139 69.5 -295t-166.5 -262q-193 -139 -443.5 -147t-446.5 123l-75 63
q-56 61 -89.5 124t-33.5 152q0 105 54 175q22 31 35 45t30 28q9 7 20 17q4 3 6 6q2 2 4.5 4l6.5 5l65 41q3 2 5.5 4t3.5 3l9 7q0 16 -1.5 24t-6 13t-13.5 12q-11 9 -33 30q-66 63 -88.5 116.5t-22.5 161.5z" />
    <glyph glyph-name="nine" unicode="9" horiz-adv-x="1389" 
d="M671 1216v0v0q-93 0 -185 -53t-117 -141q-16 -79 31.5 -128.5t130 -70.5t174 -13t163.5 44q41 21 68 56q34 47 29.5 97.5t-39.5 96.5q-12 16 -30.5 31.5t-35.5 26.5q-35 22 -85 38t-104 16zM992 629v0v0q-1 0 -13 -5q-27 -14 -95.5 -37t-170 -32t-228.5 18
q-179 40 -284 170q-16 19 -31.5 43.5t-24.5 47.5q-26 62 -32 120t13 132q20 80 69 148t114 118q27 20 41 28.5t34 18.5l20 10q45 22 112 38.5t132 16.5q99 0 162.5 -11.5t146.5 -46.5l51 -28q88 -50 147 -129.5t90 -174.5q16 -54 26.5 -134.5t10.5 -135.5q0 -23 -2 -34
q-3 -11 -3 -30q0 -87 -28.5 -189.5t-67.5 -177.5l-51 -82l-128 -138q-6 -5 -10 -8q-4 -4 -11 -9l-57 -39q-161 -94 -314 -94t-318 70q-40 17 -72 37q-7 5 -15 9q-25 15 -38 25t-21 18l-18 14q0 42 18.5 80t47.5 65q39 37 64 35.5t54 -20.5q2 -1 3 -2q73 -40 162.5 -61
t173.5 -9q160 28 261 153q5 7 9 11q5 6 11 14q30 41 48 84t22 73t-10 30z" />
    <glyph glyph-name="colon" unicode=":" horiz-adv-x="567" 
d="M271 1195h32q124 0 172 -132q4 -7 4 -21v-26q0 -129 -184 -161h-8q-118 0 -180 132q-4 23 -4 38v25q0 80 118 136q29 9 50 9zM287 342q138 0 188 -132q4 -7 4 -21v-38q0 -103 -159 -148h-41q-126 0 -176 148v42q0 88 127 140q36 9 57 9z" />
    <glyph glyph-name="semicolon" unicode=";" horiz-adv-x="573" 
d="M267 1199h32q120 0 168 -129q4 -7 4 -21v-25q0 -128 -180 -158h-8q-116 0 -176 129q-4 22 -4 37v25q0 78 116 133q27 9 48 9zM282 -150v0v0q55 42 112 108.5t80 142.5t-24 145q-20 27 -50 46t-65 26q-34 7 -69 3q-41 -4 -77 -25t-59 -55.5t-23 -78.5q0 -50 29 -91v0
q6 -9 14 -18q26 -30 64 -50q12 -6 20 -20q7 -14 -2 -31q-22 -38 -42.5 -58t-34.5 -30q-2 -2 -4 -3q-13 -12 -8.5 -26.5t20.5 -26.5l1 -1q10 -9 23.5 -12t34.5 11q28 19 60 44z" />
    <glyph glyph-name="semicolon" unicode="&#x37e;" horiz-adv-x="573" 
d="M267 1199h32q120 0 168 -129q4 -7 4 -21v-25q0 -128 -180 -158h-8q-116 0 -176 129q-4 22 -4 37v25q0 78 116 133q27 9 48 9zM282 -150v0v0q55 42 112 108.5t80 142.5t-24 145q-20 27 -50 46t-65 26q-34 7 -69 3q-41 -4 -77 -25t-59 -55.5t-23 -78.5q0 -50 29 -91v0
q6 -9 14 -18q26 -30 64 -50q12 -6 20 -20q7 -14 -2 -31q-22 -38 -42.5 -58t-34.5 -30q-2 -2 -4 -3q-13 -12 -8.5 -26.5t20.5 -26.5l1 -1q10 -9 23.5 -12t34.5 11q28 19 60 44z" />
    <glyph glyph-name="equal" unicode="=" horiz-adv-x="978" 
d="M105 487v0v0q0 37 8 70q4 19 11.5 23.5t24.5 6.5q5 1 11 2q32 3 122.5 5.5t179 2.5t112.5 -3q21 -2 85 -3q55 -1 107 -3t67 -7q35 -17 39 -67t-1 -96q-2 -17 -2 -30q-1 -10 -4 -20.5t-8 -16.5q-6 -6 -22.5 -9t-35.5 -4.5t-31 -1.5h-14q-19 1 -38 -1q-33 -3 -157 -3.5
t-248.5 1.5t-159.5 6q-6 1 -10 2q-7 0 -11.5 1.5t-9.5 7.5q-13 16 -15 53t-1 68q1 9 1 16zM105 952v0v0q0 37 8 70q4 19 11.5 23.5t24.5 6.5q5 0 11 1q32 4 122.5 6t179 2t112.5 -2q9 -1 32.5 -2t54.5 -1q55 -1 106 -3.5t66 -6.5q35 -17 39 -67t-1 -96q-2 -17 -2 -30
q-1 -10 -4 -20.5t-8 -16.5q-6 -6 -22.5 -9.5t-35.5 -4.5t-31 -1h-14q-19 1 -38 -1q-33 -3 -157 -3.5t-248.5 1.5t-159.5 6q-6 1 -10 1q-7 1 -11.5 2.5t-9.5 7.5q-13 16 -15 53t-1 68q1 9 1 16z" />
    <glyph glyph-name="question" unicode="?" horiz-adv-x="1301" 
d="M759 597v0v0q-50 -25 -51 -79q2 -33 2 -66q1 -37 3 -58q3 -36 -24 -51.5t-60 -15.5h-56q-62 -1 -89.5 2t-34 17t-6.5 47q-1 23 -5 59v111q0 68 16 109.5t76 74.5l4 2q39 20 98 58q5 3 7 5q3 3 9 6q9 6 16 10q8 4 17 10l42 26q80 42 138 102q5 5 9 10q31 34 55 70.5
t24 85.5q0 30 -3.5 55.5t-20.5 47t-54 41.5q-31 15 -67 26q-75 19 -160 6t-148 -48q-55 -32 -93 -63l-48 -35q-33 -24 -52 -40q-27 -24 -43 -25.5t-50 24.5l-58 63q-2 3 -6 8q-12 14 -26 33t-14 29t14 30.5t30.5 39.5t25.5 28l90 74q42 28 110.5 63t114.5 45
q85 16 169.5 21.5t170.5 -9.5q106 -19 193.5 -75t136.5 -148q28 -56 35.5 -106.5t7.5 -114.5q0 -97 -42.5 -180.5t-112.5 -148.5q-42 -39 -93 -69l-108 -58l-27 -15q-22 -13 -62 -34zM410 107v0v0q0 43 25.5 75t64 49t79.5 16q88 -5 132 -49t43 -99.5t-47 -96.5
q-65 -50 -133 -45t-116 48t-48 102z" />
    <glyph glyph-name="at" unicode="@" horiz-adv-x="1969" 
d="M1424 876v0v0q9 28 3.5 63.5t-28.5 50.5q-26 13 -63.5 30t-74.5 30q-6 2 -14.5 4t-16 0.5t-11.5 -8.5q-1 -2 -1 -4q-3 -7 -6.5 -12t-8.5 -4q-16 6 -31 11q-84 32 -146 46.5t-127 1.5q-83 -16 -167 -81.5t-140 -187.5q-104 -227 -66 -392q20 -83 72 -146q53 -63 133 -98
q130 -58 327 -26q15 3 24 6q13 4 23 3.5t28 -11.5q33 -19 65 -32q128 -43 277 30q100 49 187 144q86 94 136 227q48 127 41.5 288.5t-88.5 334.5q-53 105 -126 174t-159 121q-199 126 -415 132q-164 -1 -304 -52.5t-254 -135.5q-247 -185 -340 -481q-75 -251 -37 -486
q41 -244 190 -421q69 -81 158.5 -130.5t200.5 -77.5q93 -26 199.5 -34.5t222.5 17.5q2 1 6.5 4t9 7.5t6.5 10.5q3 9 1.5 17.5t-3.5 14.5q-1 2 -1 3l-44 164q-7 21 -27 25.5t-40 -0.5q-155 -26 -276 5q-70 19 -121 54.5t-95 87.5q-52 60 -91.5 138t-54.5 164
q-13 86 0.5 176.5t43.5 183.5q67 215 245 347q166 123 408 126q143 1 274 -78q115 -70 189 -213q110 -231 48 -389q-37 -87 -96 -150q-53 -58 -108 -85q-37 -18 -64 -11.5t-16 51.5l78 247q2 9 5 18l16 49zM1014 410v0v0q-27 -4 -51 -7q-81 -6 -130 15q-22 10 -36 26
q-13 16 -19 42q-22 88 42 239q12 27 30 47q42 47 107 58q61 10 128 -12q19 -6 29 -17t3 -34l-85 -270q-14 -47 -18 -87z" />
    <glyph glyph-name="A" unicode="A" horiz-adv-x="1601" 
d="M584 557v0v0q0 -34 19.5 -48t50 -17t65.5 -2q36 1 69 -2h3q22 -3 57.5 -6t73 -2.5t63.5 9t26 29.5q0 10 -17 53l-39 94l-39 90l-16 37q-9 20 -21 54q-22 60 -49.5 122.5t-51.5 82.5q-19 -17 -65 -118t-87.5 -216t-41.5 -160zM605 1348v0v0q27 59 59.5 74t81.5 17
q26 1 60 6q64 3 87.5 -23t36.5 -70q8 -24 20 -52l27 -55q30 -59 56 -121q47 -115 96 -221l61 -138l106 -245l50 -115q13 -29 40 -83q39 -77 77 -160.5t38 -117.5q0 -23 -18 -32t-46.5 -11t-60.5 -1h-41q-53 -1 -79.5 17.5t-42.5 54.5q-25 51 -38 84q-15 40 -29.5 58.5
t-47.5 22t-103 -1.5q-23 -1 -91 1t-150.5 5.5l-150.5 6.5l-82 3q-55 0 -76.5 -38.5t-32.5 -89.5q-7 -32 -17.5 -59.5t-28.5 -45.5t-51 -18q-23 0 -50 2q-47 3 -81 0q-33 -5 -57.5 1.5t-24.5 36.5q0 41 51.5 174.5l111.5 277.5q71 169 101 257q19 53 44 106q15 33 27 65
q23 59 44 119l20 55q16 42 35 84q20 42 36 84l6 18q11 34 27 68z" />
    <glyph glyph-name="B" unicode="B" horiz-adv-x="1543" 
d="M933 284v0v0q78 0 124.5 25t64.5 63t10 78t-40.5 72t-87.5 45q-68 13 -151 16q-48 2 -91 6q-63 6 -134 2q-68 -4 -129 1q-94 12 -113.5 -25t-14.5 -148q1 -32 1 -71q0 -31 43.5 -45.5t98 -17.5t93.5 2q85 6 213 0q64 -3 113 -3zM767 1196v0v0h-42q-54 1 -125.5 0.5
t-130 -6.5t-71.5 -21q-5 -10 -8 -41t-4.5 -67t-1.5 -61v-15q-1 -14 -1 -25q-4 -51 5.5 -74.5t59.5 -30.5q63 -8 162 -7t183 4q20 1 37 1q60 1 113.5 15.5t88.5 48t35 91.5v16q0 47 -28 79.5t-73 53t-97.5 30t-101.5 9.5zM111 1343v0v0q0 52 36.5 72.5t91 22.5t112.5 -2
q36 -1 68 -2l467 4q99 0 176 -32.5t131.5 -86t87.5 -119.5q27 -52 42 -118t0 -140q-14 -50 -46.5 -100t-55.5 -79q-14 -18 -15 -21q57 -15 111 -66t90 -122t36 -142v-20q0 -89 -56.5 -179t-142 -150.5t-173.5 -60.5h-853q-48 0 -73 31.5t-34 77t-9 90.5z" />
    <glyph glyph-name="C" unicode="C" horiz-adv-x="1623" 
d="M93 730v0v0q0 112 38.5 209.5t95 176.5t114.5 136q107 101 275 150.5t347.5 43.5t319.5 -72q29 -13 81 -46t96.5 -73t44.5 -72q0 -38 -27 -75.5t-59 -62.5t-49 -25h-24q-11 0 -39 16l-60 36q-49 31 -78 44q-78 33 -134.5 42.5t-146.5 9.5q-203 0 -334 -111.5t-153 -301.5
q-11 -123 42.5 -232.5t151 -180t214.5 -70.5q93 0 165 18t127 43.5t97 49.5q35 19 62.5 31.5t50.5 12.5q32 0 75 -26.5t75 -63.5t32 -69q0 -29 -31 -57.5t-75.5 -54.5t-88.5 -45.5l-72 -31.5q-89 -37 -179.5 -57t-209.5 -20q-142 0 -275.5 51t-238.5 141t-167.5 210
t-62.5 258v68z" />
    <glyph glyph-name="D" unicode="D" horiz-adv-x="1574" 
d="M403 502v0v0q0 -104 9.5 -147.5t38 -53t82.5 -6.5h28q39 0 72 -1q69 -2 129 2t126 24q78 26 149.5 85t118 142.5t46.5 181.5q0 91 -38.5 185t-87.5 142q-58 58 -131.5 92t-189.5 34h-257q-44 0 -65.5 -14.5t-21.5 -60.5v-64v-95q0 -79 -4 -158q-4 -77 -4 -157v-131z
M1463 749v0v0q0 -159 -50.5 -282.5t-134 -214.5t-185.5 -150q-163 -92 -409 -98q-41 0 -108 -1q-108 -4 -220.5 -3t-160.5 14q-46 19 -65.5 75t-22.5 130.5t-1 148.5q1 35 1 66l4 760q0 23 -1 49q-3 54 1 103.5t28 73.5q26 19 116.5 29t192 13t149.5 3q140 0 249 -14
t201.5 -54.5t181.5 -119.5q65 -58 118 -136t84.5 -176.5t31.5 -215.5z" />
    <glyph glyph-name="E" unicode="E" horiz-adv-x="1477" 
d="M266 1v0v0q-78 0 -112 33.5t-41 102.5q-12 114 -9 238v39q0 91 -3 186q-8 198 3 383q6 62 6.5 140t-5.5 136q-8 72 16 124.5t86 57.5q77 3 170 -1q59 -2 114 -3q64 0 135 -2q74 -2 146 -2h233q35 0 81 3q58 4 118 4t104 -13.5t56 -49.5q6 -25 5.5 -64.5t-7 -75.5
t-16.5 -51q-22 -23 -81 -27t-102 -4q-284 -1 -567 8l-132 4q-58 -2 -67.5 -55t-2.5 -122q2 -33 2 -62q0 -57 24.5 -67.5t81.5 -3.5q49 6 128 4l257 -13q69 -1 113 3q54 5 78 -3t29 -51.5t5 -147.5q0 -34 -24 -51.5t-59.5 -22t-73.5 -0.5q-76 7 -171 4q-32 -1 -59 -1h-117
q-115 3 -164.5 -5.5t-60 -49t-7.5 -134.5q1 -27 1 -58q0 -37 27 -51t68 -14.5t85 2.5q33 3 61 3q79 0 151 2q75 2 153 2q22 0 76 4q62 4 136.5 7t135.5 -1t80 -21q11 -12 16.5 -41t8 -62t2.5 -53q0 -50 -23.5 -74.5t-64.5 -31t-93 -0.5q-117 9 -251 7h-31q-29 0 -49 -1
t-38 -3q-23 -3 -55 -4h-506z" />
    <glyph glyph-name="F" unicode="F" horiz-adv-x="1498" 
d="M478 1437v0v0q-182 8 -293 -1q-55 -6 -72 -37.5t-15 -80.5v-18q2 -605 3 -1209v-5q0 -19 3 -38.5t18 -33.5q22 -16 55 -14q2 0 5 1q78 2 157 5q35 3 45.5 28.5t9.5 56.5q-1 89 -1 179q1 28 1 56q0 71 -1 142q1 40 24.5 57t61.5 18q110 1 221 1q74 0 148 1q53 0 106 1
q53 2 107 2q58 1 63 57q2 67 -3 131q-1 29 -14 48.5t-45 22.5q-157 11 -329 7h-17q-69 -1 -138 -1q-66 0 -126 -1q-34 -1 -45.5 10.5t-9.5 45.5v2q1 59 3 117l4 60q1 13 1 26q4 60 33 77.5t86 18.5q69 2 143 -2q40 -2 66 -2h77h272q115 1 231 3q6 0 12 1q30 -2 44 7
q15 12 18 37t3 61v5l-0.5 15t-0.5 36t-1 40q-3 35 -26.5 49t-56.5 18q-66 7 -146 5h-58q-34 1 -68 1q-90 3 -162 0q-195 -8 -393 -6z" />
    <glyph glyph-name="G" unicode="G" horiz-adv-x="1714" 
d="M104 778v0v0q0 102 37.5 199.5t91 178.5t107.5 136q49 53 98.5 89t118.5 69q50 25 139.5 54.5t154.5 29.5h47q105 2 177 -8t186 -58q24 -10 73.5 -33.5t93 -51.5t43.5 -48q0 -3 -9 -18.5l-21.5 -35.5l-23.5 -36.5t-14 -21.5q-4 -6 -10 -16q-14 -26 -33.5 -54.5
t-34.5 -28.5q-11 0 -63 23q-44 19 -102.5 40.5t-118.5 33.5q-123 24 -237 0.5t-204.5 -87t-144 -159.5t-53.5 -217q0 -124 63.5 -228t169 -167t232.5 -63q65 0 138 14.5t137 42.5t105 69.5t41 96.5q0 18 -17 25t-45 7.5t-61 -1.5q-49 -4 -98 -1t-83 24q-20 14 -24.5 34
t-3.5 46q0 18 -2 38q-10 91 27.5 113.5t115.5 24.5q7 0 15 1q90 6 184 6q54 0 110 1q104 5 148.5 -2.5t54 -47.5t6.5 -132q-1 -32 -1 -72q0 -56 -27 -114.5t-67 -114t-82 -101t-74 -75.5q-48 -48 -123 -88.5t-166.5 -66t-186.5 -25.5q-127 0 -224 26.5t-176 72.5t-150 105
q-55 45 -108.5 125t-89.5 177.5t-36 193.5v76z" />
    <glyph glyph-name="H" unicode="H" horiz-adv-x="1626" 
d="M1260 1329v0v0q0 57 11 85t41 37.5t86 9.5q68 0 95.5 -6.5t33.5 -32.5t3 -85v-44l6 -318q3 -249 -3 -500q-3 -144 -4 -288v-31q1 -35 -1.5 -67.5t-17.5 -54.5t-53 -22q-20 0 -41 -1q-42 -2 -77.5 1.5t-57 23t-21.5 68.5q0 75 4 164q6 114 4 194q-2 94 -32.5 114.5
t-125.5 16.5h-12l-266 -2q-153 -2 -311 -2q-40 0 -66.5 -6t-39.5 -31.5t-13 -81.5q0 -82 -3.5 -203t-12.5 -195q-5 -33 -22 -48.5t-45 -19.5t-67 -4q-65 0 -98 5t-45 31.5t-11 86.5q-1 85 -1 161q1 44 1 94q0 143 8 307q7 152 9 304t-10 288q-11 90 24 127t127 37
q66 0 94 -4t35 -21.5t7 -57.5q1 -18 2 -41q3 -59 3 -126q0 -37 1 -69q1 -37 0 -68q-6 -90 19.5 -132.5t144.5 -28.5q134 12 302 7q48 -1 87 -1q28 0 64 -2q57 -3 115.5 -2t98 18.5t40.5 61.5z" />
    <glyph glyph-name="I" unicode="I" horiz-adv-x="502" 
d="M104 489v0v0q0 124 6 243q5 131 5 268q0 60 2 127q2 65 2 128v25q-1 39 2 76t18 61.5t52 24.5q36 0 65 1q93 6 122 -14.5t19 -118.5q-6 -78 -5.5 -190t2.5 -225q2 -101 2 -175q0 -49 -1 -128q-1 -124 -0.5 -257.5t4.5 -208.5q3 -34 -1 -62.5t-20 -46.5t-49 -18h-64
q-72 -2 -103.5 2t-39 21.5t-8.5 58.5q0 30 -5 75q-10 116 -6 259q1 41 1 74z" />
    <glyph glyph-name="J" unicode="J" horiz-adv-x="1266" 
d="M890 974v0v0q0 71 -2 140t-2 136q0 30 -2 58q-3 40 -1 72t19 50.5t61 18.5h38q80 5 111.5 -12t31.5 -108q0 -137 -4 -269q-4 -131 -4 -261v-17q1 -108 -4 -203.5t-29 -181.5q-20 -74 -63 -144.5t-105 -128t-140.5 -92t-171.5 -34.5q-104 0 -183.5 24.5t-151.5 67.5
q-27 14 -75 48t-84 74.5t-24 77.5q12 27 39.5 59t49.5 52q32 33 58 42.5t63 -24.5l20 -18q75 -73 125.5 -98.5t170.5 -25.5q65 0 113 38.5t78 95.5t41 116q15 90 21 218t6 229z" />
    <glyph glyph-name="K" unicode="K" horiz-adv-x="1630" 
d="M187 1452v0v0q-53 -2 -69.5 -34.5t-14.5 -79.5q0 -174 2 -346l2 -347q1 -131 0 -264v-291q-4 -91 85 -89l50 2q52 1 103 3q32 2 41 29t8 63v239q2 31 16.5 66.5t37.5 56.5l121 109q34 29 75 29t73 -32l147 -174l123 -151l139 -171q44 -54 75 -66t93 -9h13h60h124
q13 0 24 5t13 20q1 10 -4 21.5t-12 20.5l-48 61l-117 143l-340 400l-44 52q-55 69 -54 117q4 38 34.5 71t72.5 67l44 39l190 175l206 190q36 36 22 61t-59 26q-55 1 -110 3q-61 2 -121 2q-30 0 -50.5 -7t-41.5 -27l-121 -105l-135 -119l-380 -349q-2 -1 -3 -2
q-10 -10 -24.5 -20t-26.5 -5q-8 6 -10 19t-2 28v19q0 44 -1 89q1 183 -3 365q0 98 -98 98q-38 -1 -75 -1h-30z" />
    <glyph glyph-name="L" unicode="L" 
d="M101 1302v0v0q0 72 21 101t57.5 35t84.5 4q19 -1 39 -1q46 0 64.5 -30.5t20.5 -77.5t0 -99q-2 -31 -2 -60q0 -83 2 -169q2 -89 2 -173v-233v-117v-6q-1 -69 5.5 -112.5t36 -64t100.5 -20.5l340 -2l344 14q37 1 80.5 -6t67.5 -20q22 -15 27 -48.5t3 -72.5v-20
q0 -55 -17.5 -78.5t-55.5 -30t-100 -6.5q-2 -1 -5 -1q-88 -2 -178 0h-91q-138 0 -268 -3q-129 -4 -265 -4q-52 0 -92 -1q-107 -3 -153 6t-56 55t-8 153v13z" />
    <glyph glyph-name="M" unicode="M" horiz-adv-x="1718" 
d="M885 636v0v0q8 0 30 39t45.5 85.5l36.5 73.5q4 9 6 13q29 59 55.5 107.5t61.5 101.5q41 66 75 133l42 76l20 39q14 31 32 62t42 52.5t56 21.5h158q39 0 53.5 -21t15.5 -54t-4 -72q-4 -37 -4 -72l18 -1106q0 -29 -7 -55.5t-23.5 -43t-44.5 -16.5q-26 0 -47 -1
q-68 -2 -102.5 5.5t-46.5 45.5t-14 125q-1 74 2 147q2 54 2 111l-3 299q-1 40 -15.5 45t-32 -9t-29.5 -31q-53 -84 -96 -177l-21 -43l-19 -38l-52 -106t-66.5 -122.5t-69 -102t-58.5 -41.5q-28 0 -64.5 50t-78 128l-84.5 165l-82.5 160.5t-75.5 124t-62 48.5q-25 0 -36 -60
t-14 -153t-3 -195q1 -140 -5 -247t-33 -123l-197 -5q-23 0 -35 24t-16.5 57t-4.5 58q0 170 6 346q6 193 6 386v47q-1 74 -0.5 161t6.5 144q6 56 5 94q-3 63 17.5 87t129.5 24q120 0 159.5 -24.5t76.5 -108.5q56 -116 118 -227q14 -24 41 -77l81 -149.5t86 -143.5t63 -62z
" />
    <glyph glyph-name="N" unicode="N" horiz-adv-x="1683" 
d="M1276 903v0v0q0 84 2 164q2 78 2 158v34q-2 51 2.5 93.5t25 69t71.5 26.5h14q68 2 108 -6.5t56 -47.5t13 -129l-9 -255q-2 -76 4 -156q4 -63 4 -122v-45q-3 -121 4 -233q4 -73 -1 -161q-3 -57 -3 -111v-22q2 -79 -7 -113.5t-49 -42t-133 -5.5h-56q-46 0 -131.5 83
t-189.5 207l-209 255l-154.5 191t-125.5 141t-76 54q-22 0 -32.5 -41t-13.5 -104.5t-1 -133.5t5 -130q3 -62 3 -96v-9q-1 -60 -0.5 -131t4.5 -130q7 -115 -40 -139t-140 -17h-46q-32 0 -47 26t-19 64t-5 76q-1 28 -3 50q-6 83 0 172q3 52 3 106v593q0 59 -1 108
q-5 108 6 165.5t66.5 75t185.5 5.5q67 -7 99 -34t57 -67l23 -33q67 -89 137 -173l113 -132l192.5 -220l188 -207t99.5 -93z" />
    <glyph glyph-name="O" unicode="O" horiz-adv-x="1756" 
d="M959 299v0v0q96 0 182.5 69.5t142 173.5t55.5 206q0 113 -66.5 221.5t-171 174t-222.5 55.5q-113 -11 -187.5 -41.5t-136.5 -93.5q-70 -70 -101.5 -154.5t-31.5 -204.5q0 -50 20.5 -105.5t49 -102.5t53.5 -74q88 -91 171 -110t196 -14h47zM106 756v0v0q0 192 114 363.5
t302.5 268t419.5 75t470 -206.5q104 -85 160.5 -221.5t73.5 -307.5q5 -75 -22 -165t-52 -140q-97 -192 -287 -307t-428 -115h-67q-132 0 -254.5 63.5t-219 170.5t-153.5 242.5t-57 279.5z" />
    <glyph glyph-name="P" unicode="P" horiz-adv-x="1528" 
d="M520 858v0v0q85 0 175 8q94 7 189 8q39 0 83 5.5t83.5 19t64.5 36.5t25 59v12q0 60 -34.5 93.5t-90 47.5t-120.5 14.5t-127 -7.5q-43 -4 -107 -5t-118 0h-31q-50 0 -75 -16t-32.5 -49t-7.5 -82v-36q-6 -59 11 -83.5t112 -24.5zM113 1308v0v0q0 52 27 79.5t71 38.5t98 12
t110 -1q38 -2 73 -2q126 0 246 4q121 4 248 4q206 0 310 -110q58 -60 89.5 -142.5t31.5 -184.5q0 -76 -27.5 -142.5t-71 -117.5t-91.5 -78q-59 -34 -130.5 -48.5t-154 -17t-173.5 -2.5q-46 0 -89 -2q-83 -3 -168 1q-75 5 -90 -24.5t-10 -91.5q1 -22 1 -46q0 -64 -2 -127
q-2 -71 -2 -136v-9q2 -44 -2 -81.5t-22 -61t-63 -23.5h-25q-76 -3 -118 8t-58 60t-16 167q0 29 -1 69q-1 73 0 151t6 132q9 98 4 217q-3 74 -1 139q2 119 0 241v125z" />
    <glyph glyph-name="Q" unicode="Q" horiz-adv-x="1762" 
d="M1234 468v0v0q30 25 60.5 96t39.5 125q18 129 -40.5 246t-163 193t-220.5 76q-135 0 -246.5 -60.5t-178 -165.5t-66.5 -239q0 -119 55 -218.5t150 -159.5t214 -60q26 0 45 -1q27 0 52 0.5t62 4.5q-5 14 -12 26q-10 17 -12.5 38t21 54t89.5 86q43 34 69.5 24t47.5 -35
q16 -17 34 -30zM119 790v0v0q0 140 62 263.5t166 217t234.5 147t268.5 53.5h36q106 0 205 -34t182 -83t143 -98q56 -46 108 -129.5t86.5 -186t34.5 -201.5q0 -181 -69 -306q-35 -70 -55 -98t-36 -42q-9 -9 -19 -20.5t-23 -31.5q13 -18 30 -32q18 -15 31.5 -33.5t13.5 -49.5
q0 -21 -39 -62t-83.5 -75t-58.5 -34q-18 0 -41 22t-45 48q-28 33 -49 49q-74 -34 -189 -53t-210 -19q-134 0 -257 63t-219 167.5t-152 235.5t-56 267v55z" />
    <glyph glyph-name="R" unicode="R" horiz-adv-x="1490" 
d="M386 978v0v0q0 -89 25.5 -106t99.5 -13h21h173h80h33q54 -1 115 1t115.5 13.5t89 38t34.5 74.5v20q0 33 -20.5 60.5t-49.5 47t-56 28.5q-42 12 -148 13t-214 -1q-91 -2 -140 -1q-14 1 -25 1q-66 4 -94.5 -3.5t-33.5 -45t-5 -127.5zM228 1436v0v0l120 2q327 10 662 10
q112 0 210.5 -69.5t159.5 -175.5t61 -217q0 -103 -58 -200.5t-145 -161.5t-177 -64q13 -48 59.5 -115.5t102.5 -140.5l84 -112.5t59.5 -97.5t12 -69t-60.5 -26h-67q-96 -5 -138.5 12t-100.5 98q-50 68 -84 118.5l-66 101.5l-70 107l-22 34l-33 50l-9 13q-10 20 -23.5 29.5
t-50.5 9.5q-23 0 -52 1q-54 2 -109.5 0.5t-86.5 -12.5l-13 -319q0 -30 2 -64q5 -61 -1 -112.5t-43 -63.5q-21 -4 -69.5 -3t-94.5 7t-60 16q-20 21 -22 69.5t2 99.5q2 31 2 55l-4 426q0 113 4 222q4 106 4 216q0 25 -1 52q-2 67 2.5 129.5t29.5 103t84 41.5z" />
    <glyph glyph-name="S" unicode="S" 
d="M105 1060v0v0q0 98 44.5 174t117.5 130.5t163 87t183 43.5q230 23 426 -25q29 -7 77 -25.5t97 -44t83 -54.5t34 -56q0 -11 -16 -38t-33.5 -53t-25.5 -36q-50 -73 -134 -28q-99 52 -183.5 70t-204.5 18q-59 0 -136 -22.5t-126.5 -65.5t-36.5 -106q18 -58 83 -94
t157.5 -57.5t192.5 -37.5q88 -15 168 -33t139 -45q51 -23 100 -62t82.5 -94t33.5 -127v-24q0 -73 -33.5 -138.5t-81 -116.5t-93.5 -82q-78 -52 -185.5 -84.5t-235.5 -32.5q-80 0 -185.5 9.5t-174.5 25.5q-26 6 -68.5 18.5t-87.5 30.5t-76.5 39.5t-31.5 43.5q0 33 17.5 85
t44.5 93t56 41q46 0 80.5 -10t71.5 -26q37 -15 89 -32q75 -23 141.5 -29t151.5 -6q44 0 94 7.5t94 25t72 45.5t28 69v24q0 33 -25 55.5t-63.5 36.5t-80.5 22.5t-77 14.5q-10 1 -18 3q-168 25 -323 68q-68 20 -135.5 54t-124 84t-91 116t-34.5 151z" />
    <glyph glyph-name="T" unicode="T" horiz-adv-x="1649" 
d="M669 148v0v0q0 125 6 244q6 121 6 254v59q-2 102 3 192q3 34 3.5 81t-6 87.5t-24.5 53.5q-29 18 -96.5 20t-147.5 0q-69 -3 -130.5 -1.5t-96.5 12.5q-58 19 -70 51t-9 92q1 12 1 25q0 69 30 94.5t100 25.5q12 -2 60.5 -2t110 0.5t112.5 0.5q44 1 61 1l672 -4q25 0 59 2
q70 5 136.5 -0.5t81.5 -45.5q4 -17 3.5 -44.5t-1.5 -57.5q-2 -30 -2 -53q2 -43 -8 -71.5t-51 -28.5q-25 0 -84 2q-67 1 -147 2t-142 -0.5t-77 -8.5q-21 -15 -24.5 -48t-1.5 -72q2 -37 -1 -68q-6 -76 -3 -164q1 -30 1 -57q0 -50 -2 -108t-5 -107q-3 -47 -2 -96q1 -62 -4 -121
q-6 -61 -4 -112q2 -54 -5 -93.5t-38 -61t-106 -21.5t-108 8t-41.5 39.5t-8.5 99.5z" />
    <glyph glyph-name="U" unicode="U" horiz-adv-x="1614" 
d="M171 1473v0v0q-33 -1 -48 -29.5t-15 -53.5q0 -168 -0.5 -251t-0.5 -137v-121.5t-1 -207.5q0 -250 159 -445q139 -158 347 -206t412.5 13t333.5 230q73 101 103.5 201t28.5 217q0 183 1 258v114v76q-2 81 -2 252q0 15 -4 33.5t-15 32.5q-8 9 -20.5 16.5t-25.5 7.5
q-40 -1 -72 1q-32 1 -72 0q-66 -5 -73 -74l-1.5 -234t-0.5 -132v-16v-10q-1 -10 -1 -21q0 -23 1 -48v-31q0 -56 -1 -146q-1 -40 -1 -90q-5 -182 -117.5 -282t-299.5 -101q-206 4 -299 116.5t-93 296.5q-1 34 -1 64q-1 87 -1 142v31q1 25 1 48v1q-1 15 -1 30q0 58 -0.5 144
l-1.5 251q-3 63 -65 61q-40 1 -77 0q-36 -2 -77 -1z" />
    <glyph glyph-name="V" unicode="V" horiz-adv-x="1630" 
d="M801 441v0v0q3 0 7.5 6t8.5 12.5t5 10.5l33 69q3 9 6 15q3 8 7 17l30 67l15 35q7 15 14 32l75 187q72 186 150 359q7 15 12 30q1 3 3 6q4 11 7 18q3 5 7 14l18 48q19 62 51 89t127 13q10 -1 28 -1q23 0 49 -2.5t45 -13t19 -34.5q0 -26 -24.5 -88.5t-47.5 -115.5
q-11 -26 -17 -42l-132 -327l-97 -233q-117 -271 -204 -516q-14 -51 -59 -75q-46 -19 -113 -15q-21 0 -42 -2q-46 -5 -86 4.5t-67 59.5q-25 52 -59.5 134.5l-58.5 142.5l-151 377q-7 16 -13 33q-13 30 -25 62l-55 142l-15 36l-56.5 142l-61 159.5t-27.5 89.5v6q-1 17 2 32.5
t17.5 25t48.5 9.5q19 0 44 2q41 3 84 1.5t69 -18.5q24 -21 36 -53q3 -7 7 -15q17 -35 34 -76q6 -16 13 -30l19 -47l279 -712q2 -6 5 -14q6 -19 14.5 -37.5t21.5 -18.5z" />
    <glyph glyph-name="W" unicode="W" horiz-adv-x="2295" 
d="M108 1422v0v0q0 18 17.5 32.5t35.5 19.5q30 6 63 1q18 -3 36 -3h14q54 3 86.5 -6t49.5 -50q4 -11 7 -21q2 -9 7 -21l209 -561q0 -2 2 -8l33.5 -89.5t48.5 -121t39 -71.5q10 7 15.5 17.5t9.5 22.5q1 3 2 7q69 191 127 387q2 7 4 15q30 107 68 206q21 53 54.5 68t90.5 5
q29 -4 55 -3q35 1 63 -7t48 -45q9 -20 15 -42q2 -7 4 -12q42 -128 75 -243l46 -151l71 -222l11 -33l8 -21q4 -10 8 -19q7 -15 11 -31h9q3 12 8 22l6 16l251 734l9 25q7 18 14 44l12 41q11 46 26.5 85t43 63.5t76.5 24.5q28 0 54 1q66 5 104 -6.5t25 -71.5l-374 -1075
q-19 -48 -36 -98l-35 -93q-23 -67 -47 -95.5t-91 -28.5q-14 0 -30 -1q-41 -1 -81.5 1.5t-64.5 20.5q-13 11 -29.5 45t-31.5 74l-26 69q-4 13 -7 21q-9 22 -16 44q-8 26 -19 54q-16 43 -30 85q-3 9 -5 17q-9 24 -17 48q-9 24 -18 51l-34 98l-7 19q-7 20 -14 37t-20 37
q-16 -12 -24 -30t-14 -39l-6 -20q-17 -50 -30 -99l-84 -306q-16 -56 -26 -98q-14 -72 -34.5 -104.5t-89.5 -32.5q-102 0 -147 6t-66 36t-46 99l-23 59l-26 65l-157 389t-182.5 478t-83.5 289z" />
    <glyph glyph-name="X" unicode="X" horiz-adv-x="1692" 
d="M848 991v0v0q14 0 27 13t22 27q5 5 8 9l65 73l5 6.5t5 4.5l5 5q40 44 76 91l34 43l124 151q3 4 4 7q2 2 4 4.5t6 6.5q9 9 16 17q15 19 38 35q10 6 23 9q19 4 69 6t100 0.5t67 -10.5q8 -6 18.5 -20t10.5 -24q0 -22 -21 -54.5t-47 -64.5l-45 -54l-10 -12l-344 -423l-13 -20
q-25 -35 -34.5 -53.5t-3.5 -33.5t26 -41q47 -61 97 -119q44 -50 73 -88q3 -4 5.5 -6.5t4.5 -5.5q3 -3 7 -8q5 -6 7 -9q1 -2 3 -4.5t6 -6.5l18 -20q7 -9 17 -19l156 -188q52 -60 93 -127q23 -41 1 -60t-62.5 -23t-67.5 -4h-21q-64 -1 -95 3t-52.5 24.5t-55.5 66.5q-4 6 -9 12
q-9 13 -19 26q-31 45 -68 84l-186 204q-37 37 -56 62q-24 31 -38.5 34.5t-41.5 -27.5l-202 -248q-17 -23 -34 -43l-25 -31l-19 -24q-5 -6 -9 -12l-59 -70q-13 -16 -29 -31l-2 -2q-8 -8 -18.5 -14.5t-22.5 -9.5q-106 -12 -207 4q-107 18 -45 105l390 469q6 7 11 12q4 4 9 10
l51 64q4 5 8 9q13 15 26 34q27 39 21 61t-32 50q-10 11 -21 25q-18 22 -35 46q-28 40 -60 75l-113 135q-5 6 -9 10t-8 9l-158 195l-10 12q-17 22 -30 44.5t-13 51.5q0 25 26.5 42.5t51.5 17.5q51 0 82 1q40 2 61.5 0t37 -13t37.5 -37q11 -14 24 -27q17 -17 32 -36
q37 -48 77 -94l62 -74l138 -161q7 -8 14 -17q10 -14 22.5 -25.5t28.5 -11.5z" />
    <glyph glyph-name="Y" unicode="Y" horiz-adv-x="1586" 
d="M155 1476v0v0q-44 0 -51 -18t16 -51l239 -352l240 -354q5 -8 11 -15q16 -22 28.5 -45.5t13.5 -50.5q2 -158 9 -317q3 -82 5 -164v-2q-1 -47 12 -75t69 -32h147q37 1 50 27t12 66q-6 245 -13 491q1 25 20.5 55.5t32.5 46.5q3 4 5 7l344 506l141 209q22 37 -1 52.5
t-56 15.5h-203q-34 0 -49.5 -14t-30.5 -39q-3 -5 -7 -10l-70 -103l-225 -332q-20 -33 -35.5 -40t-39.5 29l-236 347l-72 106q-19 29 -40.5 42.5t-58.5 13.5h-207z" />
    <glyph glyph-name="Z" unicode="Z" horiz-adv-x="1491" 
d="M1364 71v0v0q1 -33 -14.5 -53.5t-51.5 -20.5l-1104 4q-73 3 -77 49t36 99l342 471l357 492q8 12 3.5 20.5t-14 13.5t-16.5 5l-624 2h-38q-36 1 -47 20.5t-11 46.5t-1 58q-2 53 0 96q0 29 12.5 49t45.5 21l558 -2q280 0 560 -1q34 0 57 -3.5t37 -19.5t16 -43t-20 -58
q-8 -11 -18 -23l-24 -32l-44 -57l-42 -56l-300 -406l-289 -391q-29 -41 -8.5 -52t61.5 -10h293q147 -1 294 -1q29 0 49 -13t21 -43q1 -41 1 -81v-81z" />
    <glyph glyph-name="bracketleft" unicode="[" horiz-adv-x="769" 
d="M262 1658v0v0q-70 0 -102.5 -6t-41 -35.5t-8.5 -101.5q0 -88 -3 -176q-2 -88 -2 -175q0 -358 2 -693q3 -335 3 -693v-70q0 -40 12 -56.5t59 -16.5h81h242h6h65q58 0 71.5 15.5t13.5 76.5v150q0 43 -43 45h-114h-27q-34 0 -48 7t-14 39v459v503v390v3q-2 34 5.5 41.5
t45.5 7.5h35h110q53 0 50 47v199q0 30 -14.5 36t-42.5 4h-11h-330z" />
    <glyph glyph-name="backslash" unicode="\" horiz-adv-x="1171" 
d="M1047 -9q-17 -40 -54 -48t-73 -6q-8 1 -16 1q-40 0 -70 -1q-77 -4 -103 10.5t-44 83.5l-31 82q-4 12 -7 23q-1 3 -2 7l-49 103q-8 18 -14 34q-4 9 -8 19l-264 619q-1 4 -2 7q-2 6 -4 11t-3 12q-5 26 -10 37t-12 21q-5 8 -13 22q-4 9 -5 14q-2 6 -6 15l-114 269
q-4 9 -13.5 38t-17.5 57t-6 35q12 29 57.5 39t101 9.5t99.5 -2.5q28 -2 42 -2q17 0 26.5 -8.5t12.5 -20.5l41 -94q2 -5 3.5 -8t1.5 -5q1 -4 4 -10l152 -355q25 -66 60 -142t60 -142l29 -70q3 -6 5 -11q3 -5 6 -13l70 -164q20 -41 44 -104q26 -64 48 -110l19 -47
q2 -5 3.5 -7.5t3.5 -5.5t4 -8q4 -7 5 -12t6 -14q6 -14 10 -27l8 -21q9 -18 18.5 -49.5t0.5 -60.5v0v0z" />
    <glyph glyph-name="bracketright" unicode="]" horiz-adv-x="773" 
d="M501 1650v0v0q70 0 102 -6t41 -35.5t9 -101.5q0 -88 3 -176q2 -88 2 -175q0 -357 -2 -693q-3 -335 -3 -692v-71q0 -40 -12 -56.5t-59 -16.5h-81h-158.5h-154.5q-58 0 -71.5 15.5t-13.5 76.5v150q0 43 43 45h141q34 0 48 7t14 39v459v503v390v3q1 34 -6 41.5t-46 7.5h-144
q-54 0 -50 47v199q0 30 14.5 36t42.5 4h11h330z" />
    <glyph glyph-name="underscore" unicode="_" horiz-adv-x="1374" 
d="M105 53v0v0q0 39 10 75q6 19 15 24.5t31 6.5q6 1 13 2q40 4 153.5 6t223.5 2t141 -2q12 -1 59.5 -2t114.5 -2q115 -1 221 -3t128 -7q44 -18 49 -71t-2 -102q-1 -19 -2 -32q-1 -11 -4.5 -22t-9.5 -18q-8 -6 -29 -9.5t-45 -4.5t-38 -1h-16q-25 1 -49 -1q-29 -3 -158.5 -4
t-292.5 0t-293 3t-162 5q-7 1 -12 1q-9 1 -15 2.5t-12 7.5q-15 18 -18 57t-1 72v17z" />
    <glyph glyph-name="a" unicode="a" horiz-adv-x="1601" 
d="M584 557v0v0q0 -34 19.5 -48t50 -17t65.5 -2q36 1 69 -2h3q22 -3 57.5 -6t73 -2.5t63.5 9t26 29.5q0 10 -17 53l-39 94l-39 90l-16 37q-9 20 -21 54q-22 60 -49.5 122.5t-51.5 82.5q-19 -17 -65 -118t-87.5 -216t-41.5 -160zM605 1348v0v0q27 59 59.5 74t81.5 17
q26 1 60 6q64 3 87.5 -23t36.5 -70q8 -24 20 -52l27 -55q30 -59 56 -121q47 -115 96 -221l61 -138l106 -245l50 -115q13 -29 40 -83q39 -77 77 -160.5t38 -117.5q0 -23 -18 -32t-46.5 -11t-60.5 -1h-41q-53 -1 -79.5 17.5t-42.5 54.5q-25 51 -38 84q-15 40 -29.5 58.5
t-47.5 22t-103 -1.5q-23 -1 -91 1t-150.5 5.5l-150.5 6.5l-82 3q-55 0 -76.5 -38.5t-32.5 -89.5q-7 -32 -17.5 -59.5t-28.5 -45.5t-51 -18q-23 0 -50 2q-47 3 -81 0q-33 -5 -57.5 1.5t-24.5 36.5q0 41 51.5 174.5l111.5 277.5q71 169 101 257q19 53 44 106q15 33 27 65
q23 59 44 119l20 55q16 42 35 84q20 42 36 84l6 18q11 34 27 68z" />
    <glyph glyph-name="b" unicode="b" horiz-adv-x="1543" 
d="M933 284v0v0q78 0 124.5 25t64.5 63t10 78t-40.5 72t-87.5 45q-68 13 -151 16q-48 2 -91 6q-63 6 -134 2q-68 -4 -129 1q-94 12 -113.5 -25t-14.5 -148q1 -32 1 -71q0 -31 43.5 -45.5t98 -17.5t93.5 2q85 6 213 0q64 -3 113 -3zM767 1196v0v0h-42q-54 1 -125.5 0.5
t-130 -6.5t-71.5 -21q-5 -10 -8 -41t-4.5 -67t-1.5 -61v-15q-1 -14 -1 -25q-4 -51 5.5 -74.5t59.5 -30.5q63 -8 162 -7t183 4q20 1 37 1q60 1 113.5 15.5t88.5 48t35 91.5v16q0 47 -28 79.5t-73 53t-97.5 30t-101.5 9.5zM111 1343v0v0q0 52 36.5 72.5t91 22.5t112.5 -2
q36 -1 68 -2l467 4q99 0 176 -32.5t131.5 -86t87.5 -119.5q27 -52 42 -118t0 -140q-14 -50 -46.5 -100t-55.5 -79q-14 -18 -15 -21q57 -15 111 -66t90 -122t36 -142v-20q0 -89 -56.5 -179t-142 -150.5t-173.5 -60.5h-853q-48 0 -73 31.5t-34 77t-9 90.5z" />
    <glyph glyph-name="c" unicode="c" horiz-adv-x="1623" 
d="M93 730v0v0q0 112 38.5 209.5t95 176.5t114.5 136q107 101 275 150.5t347.5 43.5t319.5 -72q29 -13 81 -46t96.5 -73t44.5 -72q0 -38 -27 -75.5t-59 -62.5t-49 -25h-24q-11 0 -39 16l-60 36q-49 31 -78 44q-78 33 -134.5 42.5t-146.5 9.5q-203 0 -334 -111.5t-153 -301.5
q-11 -123 42.5 -232.5t151 -180t214.5 -70.5q93 0 165 18t127 43.5t97 49.5q35 19 62.5 31.5t50.5 12.5q32 0 75 -26.5t75 -63.5t32 -69q0 -29 -31 -57.5t-75.5 -54.5t-88.5 -45.5l-72 -31.5q-89 -37 -179.5 -57t-209.5 -20q-142 0 -275.5 51t-238.5 141t-167.5 210
t-62.5 258v68z" />
    <glyph glyph-name="d" unicode="d" horiz-adv-x="1574" 
d="M403 502v0v0q0 -104 9.5 -147.5t38 -53t82.5 -6.5h28q39 0 72 -1q69 -2 129 2t126 24q78 26 149.5 85t118 142.5t46.5 181.5q0 91 -38.5 185t-87.5 142q-58 58 -131.5 92t-189.5 34h-257q-44 0 -65.5 -14.5t-21.5 -60.5v-64v-95q0 -79 -4 -158q-4 -77 -4 -157v-131z
M1463 749v0v0q0 -159 -50.5 -282.5t-134 -214.5t-185.5 -150q-163 -92 -409 -98q-41 0 -108 -1q-108 -4 -220.5 -3t-160.5 14q-46 19 -65.5 75t-22.5 130.5t-1 148.5q1 35 1 66l4 760q0 23 -1 49q-3 54 1 103.5t28 73.5q26 19 116.5 29t192 13t149.5 3q140 0 249 -14
t201.5 -54.5t181.5 -119.5q65 -58 118 -136t84.5 -176.5t31.5 -215.5z" />
    <glyph glyph-name="e" unicode="e" horiz-adv-x="1477" 
d="M266 1v0v0q-78 0 -112 33.5t-41 102.5q-12 114 -9 238v39q0 91 -3 186q-8 198 3 383q6 62 6.5 140t-5.5 136q-8 72 16 124.5t86 57.5q77 3 170 -1q59 -2 114 -3q64 0 135 -2q74 -2 146 -2h233q35 0 81 3q58 4 118 4t104 -13.5t56 -49.5q6 -25 5.5 -64.5t-7 -75.5
t-16.5 -51q-22 -23 -81 -27t-102 -4q-284 -1 -567 8l-132 4q-58 -2 -67.5 -55t-2.5 -122q2 -33 2 -62q0 -57 24.5 -67.5t81.5 -3.5q49 6 128 4l257 -13q69 -1 113 3q54 5 78 -3t29 -51.5t5 -147.5q0 -34 -24 -51.5t-59.5 -22t-73.5 -0.5q-76 7 -171 4q-32 -1 -59 -1h-117
q-115 3 -164.5 -5.5t-60 -49t-7.5 -134.5q1 -27 1 -58q0 -37 27 -51t68 -14.5t85 2.5q33 3 61 3q79 0 151 2q75 2 153 2q22 0 76 4q62 4 136.5 7t135.5 -1t80 -21q11 -12 16.5 -41t8 -62t2.5 -53q0 -50 -23.5 -74.5t-64.5 -31t-93 -0.5q-117 9 -251 7h-31q-29 0 -49 -1
t-38 -3q-23 -3 -55 -4h-506z" />
    <glyph glyph-name="f" unicode="f" horiz-adv-x="1498" 
d="M478 1437v0v0q-182 8 -293 -1q-55 -6 -72 -37.5t-15 -80.5v-18q2 -605 3 -1209v-5q0 -19 3 -38.5t18 -33.5q22 -16 55 -14q2 0 5 1q78 2 157 5q35 3 45.5 28.5t9.5 56.5q-1 89 -1 179q1 28 1 56q0 71 -1 142q1 40 24.5 57t61.5 18q110 1 221 1q74 0 148 1q53 0 106 1
q53 2 107 2q58 1 63 57q2 67 -3 131q-1 29 -14 48.5t-45 22.5q-157 11 -329 7h-17q-69 -1 -138 -1q-66 0 -126 -1q-34 -1 -45.5 10.5t-9.5 45.5v2q1 59 3 117l4 60q1 13 1 26q4 60 33 77.5t86 18.5q69 2 143 -2q40 -2 66 -2h77h272q115 1 231 3q6 0 12 1q30 -2 44 7
q15 12 18 37t3 61v5l-0.5 15t-0.5 36t-1 40q-3 35 -26.5 49t-56.5 18q-66 7 -146 5h-58q-34 1 -68 1q-90 3 -162 0q-195 -8 -393 -6z" />
    <glyph glyph-name="g" unicode="g" horiz-adv-x="1714" 
d="M104 778v0v0q0 102 37.5 199.5t91 178.5t107.5 136q49 53 98.5 89t118.5 69q50 25 139.5 54.5t154.5 29.5h47q105 2 177 -8t186 -58q24 -10 73.5 -33.5t93 -51.5t43.5 -48q0 -3 -9 -18.5l-21.5 -35.5l-23.5 -36.5t-14 -21.5q-4 -6 -10 -16q-14 -26 -33.5 -54.5
t-34.5 -28.5q-11 0 -63 23q-44 19 -102.5 40.5t-118.5 33.5q-123 24 -237 0.5t-204.5 -87t-144 -159.5t-53.5 -217q0 -124 63.5 -228t169 -167t232.5 -63q65 0 138 14.5t137 42.5t105 69.5t41 96.5q0 18 -17 25t-45 7.5t-61 -1.5q-49 -4 -98 -1t-83 24q-20 14 -24.5 34
t-3.5 46q0 18 -2 38q-10 91 27.5 113.5t115.5 24.5q7 0 15 1q90 6 184 6q54 0 110 1q104 5 148.5 -2.5t54 -47.5t6.5 -132q-1 -32 -1 -72q0 -56 -27 -114.5t-67 -114t-82 -101t-74 -75.5q-48 -48 -123 -88.5t-166.5 -66t-186.5 -25.5q-127 0 -224 26.5t-176 72.5t-150 105
q-55 45 -108.5 125t-89.5 177.5t-36 193.5v76z" />
    <glyph glyph-name="h" unicode="h" horiz-adv-x="1626" 
d="M1260 1329v0v0q0 57 11 85t41 37.5t86 9.5q68 0 95.5 -6.5t33.5 -32.5t3 -85v-44l6 -318q3 -249 -3 -500q-3 -144 -4 -288v-31q1 -35 -1.5 -67.5t-17.5 -54.5t-53 -22q-20 0 -41 -1q-42 -2 -77.5 1.5t-57 23t-21.5 68.5q0 75 4 164q6 114 4 194q-2 94 -32.5 114.5
t-125.5 16.5h-12l-266 -2q-153 -2 -311 -2q-40 0 -66.5 -6t-39.5 -31.5t-13 -81.5q0 -82 -3.5 -203t-12.5 -195q-5 -33 -22 -48.5t-45 -19.5t-67 -4q-65 0 -98 5t-45 31.5t-11 86.5q-1 85 -1 161q1 44 1 94q0 143 8 307q7 152 9 304t-10 288q-11 90 24 127t127 37
q66 0 94 -4t35 -21.5t7 -57.5q1 -18 2 -41q3 -59 3 -126q0 -37 1 -69q1 -37 0 -68q-6 -90 19.5 -132.5t144.5 -28.5q134 12 302 7q48 -1 87 -1q28 0 64 -2q57 -3 115.5 -2t98 18.5t40.5 61.5z" />
    <glyph glyph-name="i" unicode="i" horiz-adv-x="502" 
d="M104 489v0v0q0 124 6 243q5 131 5 268q0 60 2 127q2 65 2 128v25q-1 39 2 76t18 61.5t52 24.5q36 0 65 1q93 6 122 -14.5t19 -118.5q-6 -78 -5.5 -190t2.5 -225q2 -101 2 -175q0 -49 -1 -128q-1 -124 -0.5 -257.5t4.5 -208.5q3 -34 -1 -62.5t-20 -46.5t-49 -18h-64
q-72 -2 -103.5 2t-39 21.5t-8.5 58.5q0 30 -5 75q-10 116 -6 259q1 41 1 74z" />
    <glyph glyph-name="j" unicode="j" horiz-adv-x="1266" 
d="M890 974v0v0q0 71 -2 140t-2 136q0 30 -2 58q-3 40 -1 72t19 50.5t61 18.5h38q80 5 111.5 -12t31.5 -108q0 -137 -4 -269q-4 -131 -4 -261v-17q1 -108 -4 -203.5t-29 -181.5q-20 -74 -63 -144.5t-105 -128t-140.5 -92t-171.5 -34.5q-104 0 -183.5 24.5t-151.5 67.5
q-27 14 -75 48t-84 74.5t-24 77.5q12 27 39.5 59t49.5 52q32 33 58 42.5t63 -24.5l20 -18q75 -73 125.5 -98.5t170.5 -25.5q65 0 113 38.5t78 95.5t41 116q15 90 21 218t6 229z" />
    <glyph glyph-name="k" unicode="k" horiz-adv-x="1630" 
d="M187 1452v0v0q-53 -2 -69.5 -34.5t-14.5 -79.5q0 -174 2 -346l2 -347q1 -131 0 -264v-291q-4 -91 85 -89l50 2q52 1 103 3q32 2 41 29t8 63v239q2 31 16.5 66.5t37.5 56.5l121 109q34 29 75 29t73 -32l147 -174l123 -151l139 -171q44 -54 75 -66t93 -9h13h60h124
q13 0 24 5t13 20q1 10 -4 21.5t-12 20.5l-48 61l-117 143l-340 400l-44 52q-55 69 -54 117q4 38 34.5 71t72.5 67l44 39l190 175l206 190q36 36 22 61t-59 26q-55 1 -110 3q-61 2 -121 2q-30 0 -50.5 -7t-41.5 -27l-121 -105l-135 -119l-380 -349q-2 -1 -3 -2
q-10 -10 -24.5 -20t-26.5 -5q-8 6 -10 19t-2 28v19q0 44 -1 89q1 183 -3 365q0 98 -98 98q-38 -1 -75 -1h-30z" />
    <glyph glyph-name="l" unicode="l" 
d="M101 1302v0v0q0 72 21 101t57.5 35t84.5 4q19 -1 39 -1q46 0 64.5 -30.5t20.5 -77.5t0 -99q-2 -31 -2 -60q0 -83 2 -169q2 -89 2 -173v-233v-117v-6q-1 -69 5.5 -112.5t36 -64t100.5 -20.5l340 -2l344 14q37 1 80.5 -6t67.5 -20q22 -15 27 -48.5t3 -72.5v-20
q0 -55 -17.5 -78.5t-55.5 -30t-100 -6.5q-2 -1 -5 -1q-88 -2 -178 0h-91q-138 0 -268 -3q-129 -4 -265 -4q-52 0 -92 -1q-107 -3 -153 6t-56 55t-8 153v13z" />
    <glyph glyph-name="m" unicode="m" horiz-adv-x="1718" 
d="M885 636v0v0q8 0 30 39t45.5 85.5l36.5 73.5q4 9 6 13q29 59 55.5 107.5t61.5 101.5q41 66 75 133l42 76l20 39q14 31 32 62t42 52.5t56 21.5h158q39 0 53.5 -21t15.5 -54t-4 -72q-4 -37 -4 -72l18 -1106q0 -29 -7 -55.5t-23.5 -43t-44.5 -16.5q-26 0 -47 -1
q-68 -2 -102.5 5.5t-46.5 45.5t-14 125q-1 74 2 147q2 54 2 111l-3 299q-1 40 -15.5 45t-32 -9t-29.5 -31q-53 -84 -96 -177l-21 -43l-19 -38l-52 -106t-66.5 -122.5t-69 -102t-58.5 -41.5q-28 0 -64.5 50t-78 128l-84.5 165l-82.5 160.5t-75.5 124t-62 48.5q-25 0 -36 -60
t-14 -153t-3 -195q1 -140 -5 -247t-33 -123l-197 -5q-23 0 -35 24t-16.5 57t-4.5 58q0 170 6 346q6 193 6 386v47q-1 74 -0.5 161t6.5 144q6 56 5 94q-3 63 17.5 87t129.5 24q120 0 159.5 -24.5t76.5 -108.5q56 -116 118 -227q14 -24 41 -77l81 -149.5t86 -143.5t63 -62z
" />
    <glyph glyph-name="n" unicode="n" horiz-adv-x="1683" 
d="M1276 903v0v0q0 84 2 164q2 78 2 158v34q-2 51 2.5 93.5t25 69t71.5 26.5h14q68 2 108 -6.5t56 -47.5t13 -129l-9 -255q-2 -76 4 -156q4 -63 4 -122v-45q-3 -121 4 -233q4 -73 -1 -161q-3 -57 -3 -111v-22q2 -79 -7 -113.5t-49 -42t-133 -5.5h-56q-46 0 -131.5 83
t-189.5 207l-209 255l-154.5 191t-125.5 141t-76 54q-22 0 -32.5 -41t-13.5 -104.5t-1 -133.5t5 -130q3 -62 3 -96v-9q-1 -60 -0.5 -131t4.5 -130q7 -115 -40 -139t-140 -17h-46q-32 0 -47 26t-19 64t-5 76q-1 28 -3 50q-6 83 0 172q3 52 3 106v593q0 59 -1 108
q-5 108 6 165.5t66.5 75t185.5 5.5q67 -7 99 -34t57 -67l23 -33q67 -89 137 -173l113 -132l192.5 -220l188 -207t99.5 -93z" />
    <glyph glyph-name="o" unicode="o" horiz-adv-x="1756" 
d="M959 299v0v0q96 0 182.5 69.5t142 173.5t55.5 206q0 113 -66.5 221.5t-171 174t-222.5 55.5q-113 -11 -187.5 -41.5t-136.5 -93.5q-70 -70 -101.5 -154.5t-31.5 -204.5q0 -50 20.5 -105.5t49 -102.5t53.5 -74q88 -91 171 -110t196 -14h47zM106 756v0v0q0 192 114 363.5
t302.5 268t419.5 75t470 -206.5q104 -85 160.5 -221.5t73.5 -307.5q5 -75 -22 -165t-52 -140q-97 -192 -287 -307t-428 -115h-67q-132 0 -254.5 63.5t-219 170.5t-153.5 242.5t-57 279.5z" />
    <glyph glyph-name="p" unicode="p" horiz-adv-x="1528" 
d="M520 858v0v0q85 0 175 8q94 7 189 8q39 0 83 5.5t83.5 19t64.5 36.5t25 59v12q0 60 -34.5 93.5t-90 47.5t-120.5 14.5t-127 -7.5q-43 -4 -107 -5t-118 0h-31q-50 0 -75 -16t-32.5 -49t-7.5 -82v-36q-6 -59 11 -83.5t112 -24.5zM113 1308v0v0q0 52 27 79.5t71 38.5t98 12
t110 -1q38 -2 73 -2q126 0 246 4q121 4 248 4q206 0 310 -110q58 -60 89.5 -142.5t31.5 -184.5q0 -76 -27.5 -142.5t-71 -117.5t-91.5 -78q-59 -34 -130.5 -48.5t-154 -17t-173.5 -2.5q-46 0 -89 -2q-83 -3 -168 1q-75 5 -90 -24.5t-10 -91.5q1 -22 1 -46q0 -64 -2 -127
q-2 -71 -2 -136v-9q2 -44 -2 -81.5t-22 -61t-63 -23.5h-25q-76 -3 -118 8t-58 60t-16 167q0 29 -1 69q-1 73 0 151t6 132q9 98 4 217q-3 74 -1 139q2 119 0 241v125z" />
    <glyph glyph-name="q" unicode="q" horiz-adv-x="1762" 
d="M1234 468v0v0q30 25 60.5 96t39.5 125q18 129 -40.5 246t-163 193t-220.5 76q-135 0 -246.5 -60.5t-178 -165.5t-66.5 -239q0 -119 55 -218.5t150 -159.5t214 -60q26 0 45 -1q27 0 52 0.5t62 4.5q-5 14 -12 26q-10 17 -12.5 38t21 54t89.5 86q43 34 69.5 24t47.5 -35
q16 -17 34 -30zM119 790v0v0q0 140 62 263.5t166 217t234.5 147t268.5 53.5h36q106 0 205 -34t182 -83t143 -98q56 -46 108 -129.5t86.5 -186t34.5 -201.5q0 -181 -69 -306q-35 -70 -55 -98t-36 -42q-9 -9 -19 -20.5t-23 -31.5q13 -18 30 -32q18 -15 31.5 -33.5t13.5 -49.5
q0 -21 -39 -62t-83.5 -75t-58.5 -34q-18 0 -41 22t-45 48q-28 33 -49 49q-74 -34 -189 -53t-210 -19q-134 0 -257 63t-219 167.5t-152 235.5t-56 267v55z" />
    <glyph glyph-name="r" unicode="r" horiz-adv-x="1490" 
d="M386 978v0v0q0 -89 25.5 -106t99.5 -13h21h173h80h33q54 -1 115 1t115.5 13.5t89 38t34.5 74.5v20q0 33 -20.5 60.5t-49.5 47t-56 28.5q-42 12 -148 13t-214 -1q-91 -2 -140 -1q-14 1 -25 1q-66 4 -94.5 -3.5t-33.5 -45t-5 -127.5zM228 1436v0v0l120 2q327 10 662 10
q112 0 210.5 -69.5t159.5 -175.5t61 -217q0 -103 -58 -200.5t-145 -161.5t-177 -64q13 -48 59.5 -115.5t102.5 -140.5l84 -112.5t59.5 -97.5t12 -69t-60.5 -26h-67q-96 -5 -138.5 12t-100.5 98q-50 68 -84 118.5l-66 101.5l-70 107l-22 34l-33 50l-9 13q-10 20 -23.5 29.5
t-50.5 9.5q-23 0 -52 1q-54 2 -109.5 0.5t-86.5 -12.5l-13 -319q0 -30 2 -64q5 -61 -1 -112.5t-43 -63.5q-21 -4 -69.5 -3t-94.5 7t-60 16q-20 21 -22 69.5t2 99.5q2 31 2 55l-4 426q0 113 4 222q4 106 4 216q0 25 -1 52q-2 67 2.5 129.5t29.5 103t84 41.5z" />
    <glyph glyph-name="s" unicode="s" 
d="M105 1060v0v0q0 98 44.5 174t117.5 130.5t163 87t183 43.5q230 23 426 -25q29 -7 77 -25.5t97 -44t83 -54.5t34 -56q0 -11 -16 -38t-33.5 -53t-25.5 -36q-50 -73 -134 -28q-99 52 -183.5 70t-204.5 18q-59 0 -136 -22.5t-126.5 -65.5t-36.5 -106q18 -58 83 -94
t157.5 -57.5t192.5 -37.5q88 -15 168 -33t139 -45q51 -23 100 -62t82.5 -94t33.5 -127v-24q0 -73 -33.5 -138.5t-81 -116.5t-93.5 -82q-78 -52 -185.5 -84.5t-235.5 -32.5q-80 0 -185.5 9.5t-174.5 25.5q-26 6 -68.5 18.5t-87.5 30.5t-76.5 39.5t-31.5 43.5q0 33 17.5 85
t44.5 93t56 41q46 0 80.5 -10t71.5 -26q37 -15 89 -32q75 -23 141.5 -29t151.5 -6q44 0 94 7.5t94 25t72 45.5t28 69v24q0 33 -25 55.5t-63.5 36.5t-80.5 22.5t-77 14.5q-10 1 -18 3q-168 25 -323 68q-68 20 -135.5 54t-124 84t-91 116t-34.5 151z" />
    <glyph glyph-name="t" unicode="t" horiz-adv-x="1649" 
d="M669 148v0v0q0 125 6 244q6 121 6 254v59q-2 102 3 192q3 34 3.5 81t-6 87.5t-24.5 53.5q-29 18 -96.5 20t-147.5 0q-69 -3 -130.5 -1.5t-96.5 12.5q-58 19 -70 51t-9 92q1 12 1 25q0 69 30 94.5t100 25.5q12 -2 60.5 -2t110 0.5t112.5 0.5q44 1 61 1l672 -4q25 0 59 2
q70 5 136.5 -0.5t81.5 -45.5q4 -17 3.5 -44.5t-1.5 -57.5q-2 -30 -2 -53q2 -43 -8 -71.5t-51 -28.5q-25 0 -84 2q-67 1 -147 2t-142 -0.5t-77 -8.5q-21 -15 -24.5 -48t-1.5 -72q2 -37 -1 -68q-6 -76 -3 -164q1 -30 1 -57q0 -50 -2 -108t-5 -107q-3 -47 -2 -96q1 -62 -4 -121
q-6 -61 -4 -112q2 -54 -5 -93.5t-38 -61t-106 -21.5t-108 8t-41.5 39.5t-8.5 99.5z" />
    <glyph glyph-name="u" unicode="u" horiz-adv-x="1614" 
d="M171 1473v0v0q-33 -1 -48 -29.5t-15 -53.5q0 -168 -0.5 -251t-0.5 -137v-121.5t-1 -207.5q0 -250 159 -445q139 -158 347 -206t412.5 13t333.5 230q73 101 103.5 201t28.5 217q0 183 1 258v114v76q-2 81 -2 252q0 15 -4 33.5t-15 32.5q-8 9 -20.5 16.5t-25.5 7.5
q-40 -1 -72 1q-32 1 -72 0q-66 -5 -73 -74l-1.5 -234t-0.5 -132v-16v-10q-1 -10 -1 -21q0 -23 1 -48v-31q0 -56 -1 -146q-1 -40 -1 -90q-5 -182 -117.5 -282t-299.5 -101q-206 4 -299 116.5t-93 296.5q-1 34 -1 64q-1 87 -1 142v31q1 25 1 48v1q-1 15 -1 30q0 58 -0.5 144
l-1.5 251q-3 63 -65 61q-40 1 -77 0q-36 -2 -77 -1z" />
    <glyph glyph-name="v" unicode="v" horiz-adv-x="1630" 
d="M801 441v0v0q3 0 7.5 6t8.5 12.5t5 10.5l33 69q3 9 6 15q3 8 7 17l30 67l15 35q7 15 14 32l75 187q72 186 150 359q7 15 12 30q1 3 3 6q4 11 7 18q3 5 7 14l18 48q19 62 51 89t127 13q10 -1 28 -1q23 0 49 -2.5t45 -13t19 -34.5q0 -26 -24.5 -88.5t-47.5 -115.5
q-11 -26 -17 -42l-132 -327l-97 -233q-117 -271 -204 -516q-14 -51 -59 -75q-46 -19 -113 -15q-21 0 -42 -2q-46 -5 -86 4.5t-67 59.5q-25 52 -59.5 134.5l-58.5 142.5l-151 377q-7 16 -13 33q-13 30 -25 62l-55 142l-15 36l-56.5 142l-61 159.5t-27.5 89.5v6q-1 17 2 32.5
t17.5 25t48.5 9.5q19 0 44 2q41 3 84 1.5t69 -18.5q24 -21 36 -53q3 -7 7 -15q17 -35 34 -76q6 -16 13 -30l19 -47l279 -712q2 -6 5 -14q6 -19 14.5 -37.5t21.5 -18.5z" />
    <glyph glyph-name="w" unicode="w" horiz-adv-x="2295" 
d="M108 1422v0v0q0 18 17.5 32.5t35.5 19.5q30 6 63 1q18 -3 36 -3h14q54 3 86.5 -6t49.5 -50q4 -11 7 -21q2 -9 7 -21l209 -561q0 -2 2 -8l33.5 -89.5t48.5 -121t39 -71.5q10 7 15.5 17.5t9.5 22.5q1 3 2 7q69 191 127 387q2 7 4 15q30 107 68 206q21 53 54.5 68t90.5 5
q29 -4 55 -3q35 1 63 -7t48 -45q9 -20 15 -42q2 -7 4 -12q42 -128 75 -243l46 -151l71 -222l11 -33l8 -21q4 -10 8 -19q7 -15 11 -31h9q3 12 8 22l6 16l251 734l9 25q7 18 14 44l12 41q11 46 26.5 85t43 63.5t76.5 24.5q28 0 54 1q66 5 104 -6.5t25 -71.5l-374 -1075
q-19 -48 -36 -98l-35 -93q-23 -67 -47 -95.5t-91 -28.5q-14 0 -30 -1q-41 -1 -81.5 1.5t-64.5 20.5q-13 11 -29.5 45t-31.5 74l-26 69q-4 13 -7 21q-9 22 -16 44q-8 26 -19 54q-16 43 -30 85q-3 9 -5 17q-9 24 -17 48q-9 24 -18 51l-34 98l-7 19q-7 20 -14 37t-20 37
q-16 -12 -24 -30t-14 -39l-6 -20q-17 -50 -30 -99l-84 -306q-16 -56 -26 -98q-14 -72 -34.5 -104.5t-89.5 -32.5q-102 0 -147 6t-66 36t-46 99l-23 59l-26 65l-157 389t-182.5 478t-83.5 289z" />
    <glyph glyph-name="x" unicode="x" horiz-adv-x="1692" 
d="M848 991v0v0q14 0 27 13t22 27q5 5 8 9l65 73l5 6.5t5 4.5l5 5q40 44 76 91l34 43l124 151q3 4 4 7q2 2 4 4.5t6 6.5q9 9 16 17q15 19 38 35q10 6 23 9q19 4 69 6t100 0.5t67 -10.5q8 -6 18.5 -20t10.5 -24q0 -22 -21 -54.5t-47 -64.5l-45 -54l-10 -12l-344 -423l-13 -20
q-25 -35 -34.5 -53.5t-3.5 -33.5t26 -41q47 -61 97 -119q44 -50 73 -88q3 -4 5.5 -6.5t4.5 -5.5q3 -3 7 -8q5 -6 7 -9q1 -2 3 -4.5t6 -6.5l18 -20q7 -9 17 -19l156 -188q52 -60 93 -127q23 -41 1 -60t-62.5 -23t-67.5 -4h-21q-64 -1 -95 3t-52.5 24.5t-55.5 66.5q-4 6 -9 12
q-9 13 -19 26q-31 45 -68 84l-186 204q-37 37 -56 62q-24 31 -38.5 34.5t-41.5 -27.5l-202 -248q-17 -23 -34 -43l-25 -31l-19 -24q-5 -6 -9 -12l-59 -70q-13 -16 -29 -31l-2 -2q-8 -8 -18.5 -14.5t-22.5 -9.5q-106 -12 -207 4q-107 18 -45 105l390 469q6 7 11 12q4 4 9 10
l51 64q4 5 8 9q13 15 26 34q27 39 21 61t-32 50q-10 11 -21 25q-18 22 -35 46q-28 40 -60 75l-113 135q-5 6 -9 10t-8 9l-158 195l-10 12q-17 22 -30 44.5t-13 51.5q0 25 26.5 42.5t51.5 17.5q51 0 82 1q40 2 61.5 0t37 -13t37.5 -37q11 -14 24 -27q17 -17 32 -36
q37 -48 77 -94l62 -74l138 -161q7 -8 14 -17q10 -14 22.5 -25.5t28.5 -11.5z" />
    <glyph glyph-name="y" unicode="y" horiz-adv-x="1586" 
d="M155 1476v0v0q-44 0 -51 -18t16 -51l239 -352l240 -354q5 -8 11 -15q16 -22 28.5 -45.5t13.5 -50.5q2 -158 9 -317q3 -82 5 -164v-2q-1 -47 12 -75t69 -32h147q37 1 50 27t12 66q-6 245 -13 491q1 25 20.5 55.5t32.5 46.5q3 4 5 7l344 506l141 209q22 37 -1 52.5
t-56 15.5h-203q-34 0 -49.5 -14t-30.5 -39q-3 -5 -7 -10l-70 -103l-225 -332q-20 -33 -35.5 -40t-39.5 29l-236 347l-72 106q-19 29 -40.5 42.5t-58.5 13.5h-207z" />
    <glyph glyph-name="z" unicode="z" horiz-adv-x="1491" 
d="M1364 71v0v0q1 -33 -14.5 -53.5t-51.5 -20.5l-1104 4q-73 3 -77 49t36 99l342 471l357 492q8 12 3.5 20.5t-14 13.5t-16.5 5l-624 2h-38q-36 1 -47 20.5t-11 46.5t-1 58q-2 53 0 96q0 29 12.5 49t45.5 21l558 -2q280 0 560 -1q34 0 57 -3.5t37 -19.5t16 -43t-20 -58
q-8 -11 -18 -23l-24 -32l-44 -57l-42 -56l-300 -406l-289 -391q-29 -41 -8.5 -52t61.5 -10h293q147 -1 294 -1q29 0 49 -13t21 -43q1 -41 1 -81v-81z" />
    <glyph glyph-name="braceleft" unicode="{" horiz-adv-x="1024" 
d="M519 1663v0v0q-70 0 -102 -6t-41 -35.5t-9 -101.5q0 -88 -3 -176q-2 -88 -2 -175v-204q0 -24 -9.5 -52.5t-28.5 -46.5l-207 -181q-33 -33 0 -66l206 -180q43 -35 42 -89q2 -276 2 -567v-70q0 -40 12 -56.5t59 -16.5h81h100h5h208q58 0 71.5 15.5t13.5 76.5v150
q0 43 -43 44h-141q-34 0 -48 7.5t-14 39.5v465q0 52 -12 102t-53 96q-9 10 -7 18t11 17q48 53 57 110.5t5 113.5q-1 20 -1 40v390v3q-1 34 6 41.5t46 7.5h144q53 0 50 47v199q0 30 -14.5 36t-42.5 4h-11h-167h-163z" />
    <glyph glyph-name="braceright" unicode="}" horiz-adv-x="1022" 
d="M504 1667v0v0q70 0 102 -6t41 -36t9 -102q0 -87 2 -175q3 -88 3 -176v-203q0 -25 9.5 -53.5t28.5 -46.5l201 -176q3 -2 6 -5q33 -32 0 -65l-101 -89l-105 -92q-43 -34 -42 -89q-2 -275 -2 -566v-70q0 -40 -12.5 -56.5t-58.5 -16.5h-81h-158.5h-154.5q-58 0 -72 15.5
t-14 76.5v150q0 42 44 44h25h116q34 0 48 7t14 40v465q0 52 12 102t53 96q9 10 7 17.5t-11 16.5q-48 54 -57 111t-5 114q1 20 1 39v390v4q1 33 -6 40.5t-46 7.5h-144q-54 0 -51 48v198q0 31 15 36.5t43 4.5h11h330z" />
    </font>
</defs>
</svg>
